<svg xmlns="http://www.w3.org/2000/svg" viewBox="0 0 84.71 80.3"><defs><style>.cls-1{fill:#1d1d1b;}.cls-2{fill:#dadada;}.cls-3{fill:#fff;}</style></defs><g id="Capa_2" data-name="Capa 2"><g id="textos"><path class="cls-1" d="M59.47,44.72a1.22,1.22,0,0,1,1.42.19L84.71,64.12,79.25,11.7a4.73,4.73,0,0,0-4.73-4.54l-10.83,0a5,5,0,0,0-3.62,2L53.19,17.6a.66.66,0,0,1-1.12-.16L49.2,8.82c-1.41-3.68,2.73-5.05,5.11-2.47-.38-1.62-.72-3-1.07-4.44-.53-2.21-2.16-2-3.66-1.79L39.08,1.51c-1.81.23-3,.44-4-.23a3.71,3.71,0,0,0,2.61,3l-5,13.13a.65.65,0,0,1-1.11.15L24.64,9.13a5,5,0,0,0-3.62-2l-10.83,0a4.73,4.73,0,0,0-4.73,4.53L0,64.12,23.82,44.91a1.18,1.18,0,0,1,1.42-.19A1.15,1.15,0,0,1,25.71,46c-.76,2.95-2.34,6.59-6.18,19.36H12.47a1.25,1.25,0,0,0-1.16.89,1.39,1.39,0,0,0-.06.4v1.41l.79-1h2.48l-1.69.71A1.25,1.25,0,0,0,12.06,69a1,1,0,0,0,.09.38l.55,1.33.35-1.22.75-.31,3-1.8-2.17,2.35a1.24,1.24,0,0,0,.07,1.78l1,1-.19-1.26.55-.6,2.47-3.6h4.72l.79,1V66.63a1.27,1.27,0,0,0-.06-.39,1.25,1.25,0,0,0-1.16-.89H21.21c1.72-1.63,11.58-11.79,11.58-11.79l-5.42,12a1.63,1.63,0,0,0,.52,2.14l5,4.39,4.28-9.89c-.26,1.72-.58,7.68-1,10.69a2.94,2.94,0,0,0,.91,2.9c1.12,1,5.18,4.52,5.18,4.52s4.07-3.52,5.19-4.52a2.94,2.94,0,0,0,.91-2.9c-.37-3-.69-9-1-10.69l4.28,9.89,5-4.39a1.63,1.63,0,0,0,.52-2.14l-5.42-12S61.78,63.72,63.5,65.35H61.83a1.25,1.25,0,0,0-1.16.89,1.27,1.27,0,0,0-.06.39v1.42l.79-1h4.72l2.47,3.6.55.6L69,72.51l1-1a1.07,1.07,0,0,0,.25-.31,1.26,1.26,0,0,0-.18-1.47L67.9,67.4l3,1.8.75.31L72,70.73l.55-1.33a1,1,0,0,0,.09-.38,1.26,1.26,0,0,0-.77-1.26l-1.69-.71h2.48l.79,1V66.64a1.34,1.34,0,0,0-.06-.4,1.25,1.25,0,0,0-1.16-.89H65.18C61.34,52.58,59.76,48.94,59,46A1.15,1.15,0,0,1,59.47,44.72Z"/><polygon class="cls-2" points="38.4 51.71 38.4 29.21 37.74 29.21 35.7 32.82 28.21 32.82 34.72 21.32 54.45 21.32 49.98 29.21 46.28 29.21 46.28 51.71 38.4 51.71"/><polygon class="cls-3" points="53.19 22.05 35.15 22.05 29.47 32.09 35.27 32.09 37.32 28.48 39.13 28.48 39.13 50.98 45.55 50.98 45.55 28.48 49.55 28.48 53.19 22.05"/></g></g></svg>