<svg xmlns="http://www.w3.org/2000/svg" viewBox="0 0 299 77"><defs><style>.cls-1{fill:#e3051b;}.cls-2{fill:#fff;}</style></defs><g id="Capa_2" data-name="Capa 2"><g id="textos"><rect class="cls-1" width="299" height="77"/><path class="cls-2" d="M82.3,20.08h5.92V55.51H82.3ZM85,34.74h6.38a3,3,0,0,0,1.35-.28,2,2,0,0,0,.87-.8,2.61,2.61,0,0,0,.29-1.26V28.46a3.13,3.13,0,0,0-.29-1.39,2,2,0,0,0-.87-.89,2.86,2.86,0,0,0-1.35-.3H85v-5.8h6a11.55,11.55,0,0,1,4.9.94A6.8,6.8,0,0,1,99,23.77a8.45,8.45,0,0,1,1.07,4.35v4.14A8.84,8.84,0,0,1,99,36.72a7,7,0,0,1-3.12,2.84,11.25,11.25,0,0,1-4.89,1H85Zm4.92,4.7,5.53-1.12,5.65,17.19H94.62Z"/><path class="cls-2" d="M104.82,20.11h6v35.4h-6Zm2.68,0h13V26h-13Zm0,14.87h11.83v5.87H107.5Zm0,14.64h13v5.89h-13Z"/><path class="cls-2" d="M123.67,20.11h6v35.4h-6ZM126.49,36h6.26a2.15,2.15,0,0,0,2.1-1.34,3.91,3.91,0,0,0,.29-1.56V28.92a4.41,4.41,0,0,0-.28-1.63,2.22,2.22,0,0,0-.82-1,2.35,2.35,0,0,0-1.29-.35h-6.26V20.11h6.43a10.08,10.08,0,0,1,4.51.92,6.36,6.36,0,0,1,2.85,2.72,8.94,8.94,0,0,1,1,4.29v6a8.36,8.36,0,0,1-1,4.2,6.4,6.4,0,0,1-2.86,2.65,10.11,10.11,0,0,1-4.48.92h-6.43Z"/><path class="cls-2" d="M145,20.11h6v35.4h-6Zm2.68,0h13V26h-13Zm0,14.87h11.84v5.87H147.65Zm0,14.64h13v5.89h-13Z"/><path class="cls-2" d="M162.36,20.11h17.73V25.9H162.36Zm5.84,3h6V55.51h-6Z"/><path class="cls-2" d="M188.51,55.51h-6V20.11h6Z"/><path class="cls-2" d="M192.36,20.08h5.92V55.51h-5.92Zm2.7,14.66h6.38a3,3,0,0,0,1.35-.28,2,2,0,0,0,.87-.8A2.61,2.61,0,0,0,204,32.4V28.46a3.13,3.13,0,0,0-.29-1.39,2,2,0,0,0-.87-.89,2.86,2.86,0,0,0-1.35-.3h-6.38v-5.8h6A11.55,11.55,0,0,1,206,21a6.8,6.8,0,0,1,3.11,2.75,8.45,8.45,0,0,1,1.07,4.35v4.14a8.84,8.84,0,0,1-1.07,4.46A7,7,0,0,1,206,39.56a11.25,11.25,0,0,1-4.89,1h-6Zm4.92,4.7,5.53-1.12,5.65,17.19h-6.48Z"/></g></g></svg>