<svg xmlns="http://www.w3.org/2000/svg" viewBox="0 0 299 77"><defs><style>.cls-1{fill:#1d1d1b;}.cls-2{fill:#fff;}</style></defs><g id="Capa_2" data-name="Capa 2"><g id="textos"><rect class="cls-1" width="299" height="77"/><path class="cls-2" d="M66.86,20.11H84.59V25.9H66.86Zm5.85,3h6V55.51h-6Z"/><path class="cls-2" d="M87.46,20.11h6v35.4h-6Zm2.68,0h13V26h-13Zm0,14.87H102v5.87H90.14Zm0,14.64h13v5.89h-13Z"/><path class="cls-2" d="M106.31,20.08h5.92V55.51h-5.92ZM109,34.74h6.38a3,3,0,0,0,1.35-.28,2,2,0,0,0,.87-.8,2.61,2.61,0,0,0,.29-1.26V28.46a3.13,3.13,0,0,0-.29-1.39,2,2,0,0,0-.87-.89,2.86,2.86,0,0,0-1.35-.3H109v-5.8h6a11.55,11.55,0,0,1,4.9.94A6.8,6.8,0,0,1,123,23.77a8.45,8.45,0,0,1,1.07,4.35v4.14A8.84,8.84,0,0,1,123,36.72a6.9,6.9,0,0,1-3.12,2.84,11.25,11.25,0,0,1-4.89,1h-6Zm4.92,4.7,5.53-1.12,5.65,17.19h-6.48Z"/><path class="cls-2" d="M146.51,20.11h5.65v35.4h-5.38V30.79l.36,1.56L142,49.25h-3l-5.14-16.41.49-2.05V55.51h-5.51V20.11h5.8l5.87,19.23Z"/><path class="cls-2" d="M162.05,55.51h-6V20.11h6Z"/><path class="cls-2" d="M165.89,20.11h4.75L179,43.72l-.66,1V20.11h5.51V55.49H179l-8.23-22.26.63-1V55.49h-5.53Z"/><path class="cls-2" d="M194.41,20.11h4.23l8.45,35.4h-6L196.53,32.3,192,55.51h-6Zm-2.7,24.25h9.64V50h-9.64Z"/><path class="cls-2" d="M209.72,20.08h5.92V55.51h-5.92Zm2.71,14.66h6.38a3,3,0,0,0,1.35-.28,1.91,1.91,0,0,0,.86-.8,2.5,2.5,0,0,0,.29-1.26V28.46a3,3,0,0,0-.29-1.39,2,2,0,0,0-.86-.89,2.86,2.86,0,0,0-1.35-.3h-6.38v-5.8h6a11.59,11.59,0,0,1,4.91.94,6.77,6.77,0,0,1,3.1,2.75,8.35,8.35,0,0,1,1.07,4.35v4.14a8.74,8.74,0,0,1-1.07,4.46,6.85,6.85,0,0,1-3.12,2.84,11.25,11.25,0,0,1-4.89,1h-6Zm4.91,4.7,5.53-1.12,5.65,17.19H222Z"/></g></g></svg>