<svg xmlns="http://www.w3.org/2000/svg" viewBox="0 0 299 77"><defs><style>.cls-1{fill:#1d1d1b;}.cls-2{fill:#fff;}</style></defs><g id="Capa_2" data-name="Capa 2"><g id="textos"><rect class="cls-1" width="299" height="77"/><path class="cls-2" d="M66.22,54.82a7.05,7.05,0,0,1-2.91-3.08,10.85,10.85,0,0,1-1-4.87V28.75a10.85,10.85,0,0,1,1-4.87,7,7,0,0,1,2.91-3.08,9.2,9.2,0,0,1,4.58-1.06,9.32,9.32,0,0,1,4.59,1.06,7,7,0,0,1,2.91,3.09,11.09,11.09,0,0,1,1,4.88v2.85H73.18V28.77a4.22,4.22,0,0,0-.26-1.55,2.12,2.12,0,0,0-.82-1,2.33,2.33,0,0,0-1.3-.36,2.38,2.38,0,0,0-1.27.34,2.15,2.15,0,0,0-.82,1,4.1,4.1,0,0,0-.28,1.56V46.87a4,4,0,0,0,.28,1.54,2.18,2.18,0,0,0,.82,1,2.3,2.3,0,0,0,1.27.34,2.37,2.37,0,0,0,1.31-.34,2.1,2.1,0,0,0,.81-1,4.26,4.26,0,0,0,.26-1.57V44H79.3v2.85a11,11,0,0,1-1,4.88,7,7,0,0,1-2.91,3.1,9.43,9.43,0,0,1-4.59,1.06A9.31,9.31,0,0,1,66.22,54.82Z"/><path class="cls-2" d="M86.34,54.89A7,7,0,0,1,83.24,52a8.8,8.8,0,0,1-1.07-4.49V28.07a8.88,8.88,0,0,1,1.07-4.51,6.92,6.92,0,0,1,3.1-2.85,12.79,12.79,0,0,1,9.77,0,6.92,6.92,0,0,1,3.1,2.85,8.88,8.88,0,0,1,1.07,4.51V47.55A8.8,8.8,0,0,1,99.21,52a7,7,0,0,1-3.1,2.85,12.55,12.55,0,0,1-9.77,0Zm6.48-5.42a2.33,2.33,0,0,0,1-1,3.6,3.6,0,0,0,.34-1.65v-18a3.57,3.57,0,0,0-.34-1.63,2.33,2.33,0,0,0-1-1.05,3.33,3.33,0,0,0-1.59-.37,3.28,3.28,0,0,0-1.59.37,2.34,2.34,0,0,0-1,1.05,3.57,3.57,0,0,0-.35,1.63v18a3.59,3.59,0,0,0,.35,1.65,2.34,2.34,0,0,0,1,1,3.17,3.17,0,0,0,1.59.37A3.22,3.22,0,0,0,92.82,49.47Z"/><path class="cls-2" d="M121.81,20.11h5.65v35.4h-5.38V30.8l.36,1.55-5.14,16.9h-3l-5.14-16.41.48-2V55.51h-5.5V20.11h5.8l5.87,19.23Z"/><path class="cls-2" d="M131.79,20.11h6v35.4h-6Zm2.68,0h13.05V26H134.47Zm0,14.87h11.84v5.87H134.47Zm0,14.64h13.05v5.89H134.47Z"/><path class="cls-2" d="M150.64,20.11h4.75l8.33,23.61-.66,1V20.11h5.5V55.49h-4.8l-8.23-22.26.64-1V55.49h-5.53Z"/><path class="cls-2" d="M187.53,25.46l-8.79,24.26h9v5.79H172.53V50.15l8.86-24.25H173V20.11h14.56Z"/><path class="cls-2" d="M197.76,20.11H202l8.45,35.4h-6L199.88,32.3,195.3,55.51h-6Zm-2.71,24.25h9.65V50h-9.65Z"/><path class="cls-2" d="M213.07,20.08H219V55.51h-5.92Zm2.71,14.66h6.37a3.06,3.06,0,0,0,1.36-.28,1.91,1.91,0,0,0,.86-.8,2.5,2.5,0,0,0,.29-1.26V28.46a3,3,0,0,0-.29-1.39,2,2,0,0,0-.86-.89,2.93,2.93,0,0,0-1.36-.3h-6.37v-5.8h6a11.63,11.63,0,0,1,4.91.94,6.77,6.77,0,0,1,3.1,2.75,8.45,8.45,0,0,1,1.07,4.35v4.14a8.84,8.84,0,0,1-1.07,4.46,6.85,6.85,0,0,1-3.12,2.84,11.25,11.25,0,0,1-4.89,1h-6Zm4.91,4.7,5.53-1.12,5.65,17.19h-6.48Z"/></g></g></svg>