<svg xmlns="http://www.w3.org/2000/svg" viewBox="0 0 299 77"><defs><style>.cls-1{fill:#1d1d1b;}.cls-2{fill:#fff;}</style></defs><g id="Capa_2" data-name="Capa 2"><g id="textos"><rect class="cls-1" width="299" height="77"/><path class="cls-2" d="M43.3,20.08h5.92V55.51H43.3ZM46,34.74h6.38a3,3,0,0,0,1.35-.28,2,2,0,0,0,.87-.8,2.61,2.61,0,0,0,.29-1.26V28.46a3.13,3.13,0,0,0-.29-1.39,2,2,0,0,0-.87-.89,2.86,2.86,0,0,0-1.35-.3H46v-5.8h6a11.55,11.55,0,0,1,4.9.94A6.8,6.8,0,0,1,60,23.77a8.45,8.45,0,0,1,1.07,4.35v4.14A8.84,8.84,0,0,1,60,36.72a7,7,0,0,1-3.12,2.84,11.25,11.25,0,0,1-4.89,1H46Zm4.92,4.7,5.53-1.12L62.1,55.51H55.62Z"/><path class="cls-2" d="M65.82,20.11h6v35.4h-6Zm2.68,0h13V26h-13ZM68.5,35H80.33v5.87H68.5Zm0,14.64h13v5.89h-13Z"/><path class="cls-2" d="M102.35,36.4V47a10.24,10.24,0,0,1-1,4.77,7.11,7.11,0,0,1-3,3.06,9.91,9.91,0,0,1-4.72,1.06,10.44,10.44,0,0,1-4.8-1,7,7,0,0,1-3-3,9.56,9.56,0,0,1-1.06-4.65V28.87a10.77,10.77,0,0,1,1-4.9,7.22,7.22,0,0,1,3-3.15,9.71,9.71,0,0,1,4.72-1.08,9.58,9.58,0,0,1,4.64,1.05,7,7,0,0,1,3,3,10.36,10.36,0,0,1,1,4.77v2.73h-6.2V28.6a3.35,3.35,0,0,0-.3-1.47,2.1,2.1,0,0,0-.84-.95,2.41,2.41,0,0,0-1.28-.33,2.59,2.59,0,0,0-1.4.37,2.38,2.38,0,0,0-.91,1,3.82,3.82,0,0,0-.32,1.61V47.23a2.62,2.62,0,0,0,.33,1.33,2.19,2.19,0,0,0,1,.88,3.79,3.79,0,0,0,3,0,2.26,2.26,0,0,0,1-.92A3,3,0,0,0,96.43,47V42.19h-3V36.4Z"/><path class="cls-2" d="M111.75,55.51h-6V20.11h6Z"/><path class="cls-2" d="M119.22,54.84a7.1,7.1,0,0,1-3-3,9.77,9.77,0,0,1-1.06-4.72v-1.9l6,0v1.9a2.84,2.84,0,0,0,.76,2.1A2.8,2.8,0,0,0,124,50a2.64,2.64,0,0,0,2-.76,2.87,2.87,0,0,0,.72-2.07V44a2.68,2.68,0,0,0-.55-1.69,4.88,4.88,0,0,0-1.41-1.24c-.58-.35-1.36-.77-2.35-1.26l-.18-.09-.18-.1-.32-.15a19.88,19.88,0,0,1-3.36-2.08,8.47,8.47,0,0,1-2.31-2.86,9.39,9.39,0,0,1-.93-4.38V28.36a9.61,9.61,0,0,1,1-4.64,6.92,6.92,0,0,1,3-3,10.25,10.25,0,0,1,4.75-1,9.91,9.91,0,0,1,4.65,1,6.86,6.86,0,0,1,3,3,10.05,10.05,0,0,1,1,4.71v2l-6,.08v-2a3.07,3.07,0,0,0-.69-2.13,2.47,2.47,0,0,0-1.94-.77,2.81,2.81,0,0,0-2,.69,2.54,2.54,0,0,0-.72,1.91v2.37a2.85,2.85,0,0,0,.52,1.72A4.57,4.57,0,0,0,123,33.53a23.37,23.37,0,0,0,2.2,1.21l.55.27.57.29.09.05.08,0a25.35,25.35,0,0,1,3.26,2A7.41,7.41,0,0,1,131.88,40a9,9,0,0,1,.88,4.24v2.94a10,10,0,0,1-1,4.72,7,7,0,0,1-3,3,10.07,10.07,0,0,1-4.73,1A10.24,10.24,0,0,1,119.22,54.84Z"/><path class="cls-2" d="M134.66,20.11h17.73V25.9H134.66Zm5.84,3h6V55.51h-6Z"/><path class="cls-2" d="M155.26,20.08h5.92V55.51h-5.92ZM158,34.74h6.38a3,3,0,0,0,1.35-.28,2,2,0,0,0,.87-.8,2.61,2.61,0,0,0,.29-1.26V28.46a3.13,3.13,0,0,0-.29-1.39,2,2,0,0,0-.87-.89,2.86,2.86,0,0,0-1.35-.3H158v-5.8h6a11.55,11.55,0,0,1,4.9.94A6.8,6.8,0,0,1,172,23.77a8.45,8.45,0,0,1,1.07,4.35v4.14A8.84,8.84,0,0,1,172,36.72a7,7,0,0,1-3.12,2.84,11.25,11.25,0,0,1-4.89,1h-6Zm4.92,4.7,5.53-1.12,5.65,17.19h-6.48Z"/><path class="cls-2" d="M183.31,20.11h4.24L196,55.51h-6L185.43,32.3l-4.58,23.21h-6Zm-2.7,24.25h9.64V50h-9.64Z"/><path class="cls-2" d="M198.63,20.08h5.91V55.51h-5.91Zm2.7,14.66h6.38a3,3,0,0,0,1.35-.28,1.91,1.91,0,0,0,.86-.8,2.5,2.5,0,0,0,.3-1.26V28.46a3,3,0,0,0-.3-1.39,2,2,0,0,0-.86-.89,2.86,2.86,0,0,0-1.35-.3h-6.38v-5.8h6a11.59,11.59,0,0,1,4.91.94,6.77,6.77,0,0,1,3.1,2.75,8.36,8.36,0,0,1,1.08,4.35v4.14a8.74,8.74,0,0,1-1.08,4.46,6.87,6.87,0,0,1-3.11,2.84,11.33,11.33,0,0,1-4.9,1h-6Zm4.92,4.7,5.52-1.12,5.65,17.19H211Z"/><path class="cls-2" d="M223.8,54.84a7.1,7.1,0,0,1-3.05-3,9.77,9.77,0,0,1-1.06-4.72v-1.9l6,0v1.9a2.84,2.84,0,0,0,.76,2.1,2.8,2.8,0,0,0,2.09.77,2.63,2.63,0,0,0,2-.76,2.87,2.87,0,0,0,.72-2.07V44a2.73,2.73,0,0,0-.54-1.69,5.06,5.06,0,0,0-1.42-1.24c-.57-.35-1.36-.77-2.35-1.26l-.18-.09-.18-.1-.32-.15A20.72,20.72,0,0,1,223,37.43a8.59,8.59,0,0,1-2.31-2.86,9.39,9.39,0,0,1-.93-4.38V28.36a9.72,9.72,0,0,1,1-4.64,7,7,0,0,1,3-3,10.25,10.25,0,0,1,4.75-1,9.91,9.91,0,0,1,4.65,1,6.86,6.86,0,0,1,3,3,9.93,9.93,0,0,1,1,4.71v2l-6,.08v-2a3.07,3.07,0,0,0-.69-2.13,2.45,2.45,0,0,0-1.94-.77,2.82,2.82,0,0,0-2,.69,2.54,2.54,0,0,0-.72,1.91v2.37a2.92,2.92,0,0,0,.52,1.72,4.57,4.57,0,0,0,1.32,1.23,24.73,24.73,0,0,0,2.2,1.21l.55.27.57.29.09.05.08,0a26.29,26.29,0,0,1,3.27,2A7.63,7.63,0,0,1,236.47,40a9.08,9.08,0,0,1,.87,4.24v2.94a10,10,0,0,1-1,4.72,7.06,7.06,0,0,1-3,3,10.06,10.06,0,0,1-4.72,1A10.28,10.28,0,0,1,223.8,54.84Z"/><path class="cls-2" d="M241.19,20.11h6v35.4h-6Zm2.68,0h13.05V26H243.87Zm0,14.87H255.7v5.87H243.87Zm0,14.64h13.05v5.89H243.87Z"/></g></g></svg>