<svg xmlns="http://www.w3.org/2000/svg" viewBox="0 0 224.89 57.91"><defs><style>.cls-1{fill:#1d1d1b;}.cls-2{fill:#fff;}</style></defs><g id="Capa_2" data-name="Capa 2"><g id="textos"><rect class="cls-1" width="224.89" height="57.91"/><path class="cls-2" d="M53.59,41.25A5.29,5.29,0,0,1,51.29,39a7.35,7.35,0,0,1-.8-3.54V34L55,34v1.42A2.16,2.16,0,0,0,55.58,37a2.13,2.13,0,0,0,1.58.58A2,2,0,0,0,58.69,37a2.18,2.18,0,0,0,.54-1.56V33.13a2,2,0,0,0-.42-1.28,3.7,3.7,0,0,0-1.06-.93c-.43-.26-1-.58-1.77-.94l-.13-.08-.14-.07-.24-.11a15.11,15.11,0,0,1-2.53-1.57A6.58,6.58,0,0,1,51.2,26a7.13,7.13,0,0,1-.69-3.3V21.33a7.31,7.31,0,0,1,.78-3.49,5.21,5.21,0,0,1,2.26-2.22,7.59,7.59,0,0,1,3.57-.77,7.38,7.38,0,0,1,3.5.77,5.13,5.13,0,0,1,2.23,2.24,7.46,7.46,0,0,1,.77,3.54v1.51L59.1,23V21.44a2.33,2.33,0,0,0-.52-1.6,1.86,1.86,0,0,0-1.46-.58,2.15,2.15,0,0,0-1.53.52,1.92,1.92,0,0,0-.54,1.44V23a2.2,2.2,0,0,0,.39,1.3,3.78,3.78,0,0,0,1,.92c.4.25,1,.56,1.66.91l.41.2.43.22.07,0,.06,0a21.19,21.19,0,0,1,2.46,1.5,5.53,5.53,0,0,1,1.59,1.93,6.77,6.77,0,0,1,.66,3.19v2.21A7.46,7.46,0,0,1,63,39a5.25,5.25,0,0,1-2.26,2.26,7.56,7.56,0,0,1-3.55.78A7.67,7.67,0,0,1,53.59,41.25Z"/><path class="cls-2" d="M70.84,41.75H66.3V15.12h4.54Z"/><path class="cls-2" d="M87,27.37v8a7.7,7.7,0,0,1-.78,3.59A5.34,5.34,0,0,1,84,41.23a7.46,7.46,0,0,1-3.56.8,7.84,7.84,0,0,1-3.6-.77A5.3,5.3,0,0,1,74.53,39a7.21,7.21,0,0,1-.8-3.5V21.72A8.1,8.1,0,0,1,74.51,18a5.4,5.4,0,0,1,2.26-2.37,7.3,7.3,0,0,1,3.55-.81,7.17,7.17,0,0,1,3.49.79A5.23,5.23,0,0,1,86,17.92a7.86,7.86,0,0,1,.77,3.59v2.06H82.14V21.51a2.66,2.66,0,0,0-.22-1.1,1.65,1.65,0,0,0-.63-.72,1.92,1.92,0,0,0-1-.25,2,2,0,0,0-1,.28,1.73,1.73,0,0,0-.69.79,3,3,0,0,0-.23,1.21v13.8a2,2,0,0,0,.24,1,1.62,1.62,0,0,0,.73.66,2.83,2.83,0,0,0,2.26,0,1.71,1.71,0,0,0,.74-.69,2.24,2.24,0,0,0,.26-1.1V31.73H80.34V27.37Z"/><path class="cls-2" d="M92.2,41.23A5.21,5.21,0,0,1,90,38.92a8,8,0,0,1-.75-3.61V15.12h4.56V35.43a2.19,2.19,0,0,0,.48,1.51,1.66,1.66,0,0,0,1.32.54A1.7,1.7,0,0,0,97,36.94a2.15,2.15,0,0,0,.49-1.51V15.12H102V35.31a7.91,7.91,0,0,1-.76,3.61,5.29,5.29,0,0,1-2.2,2.31,7.73,7.73,0,0,1-6.85,0Z"/><path class="cls-2" d="M108.78,41.75h-4.54V15.12h4.54Z"/><path class="cls-2" d="M111.68,15.12h4.54V41.75h-4.54Zm2,0h9.82v4.43h-9.82Zm0,11.19h8.9v4.42h-8.9Zm0,11h9.82v4.43h-9.82Z"/><path class="cls-2" d="M125.85,15.12h3.58l6.26,17.77-.5.71V15.12h4.14V41.73h-3.61L129.53,25l.48-.73V41.73h-4.16Z"/><path class="cls-2" d="M142.23,15.12h13.33v4.36H142.23Zm4.39,2.24h4.54V41.75h-4.54Z"/><path class="cls-2" d="M157.72,15.12h4.54V41.75h-4.54Zm2,0h9.81v4.43h-9.81Zm0,11.19h8.9v4.42h-8.9Zm0,11h9.81v4.43h-9.81Z"/></g></g></svg>