<svg xmlns="http://www.w3.org/2000/svg" viewBox="0 0 299 77"><defs><style>.cls-1{fill:#1d1d1b;}.cls-2{fill:#fff;}</style></defs><g id="Capa_2" data-name="Capa 2"><g id="textos"><rect class="cls-1" width="299" height="77"/><path class="cls-2" d="M73.85,55.51h-6V20.11h6Z"/><path class="cls-2" d="M77.7,20.11h4.75l8.32,23.61-.65,1V20.11h5.5V55.49h-4.8L82.59,33.23l.63-1V55.49H77.7Z"/><path class="cls-2" d="M117.63,36.4V47a10.24,10.24,0,0,1-1,4.77,7.17,7.17,0,0,1-3,3.06,9.94,9.94,0,0,1-4.72,1.06,10.44,10.44,0,0,1-4.8-1,7.08,7.08,0,0,1-3.06-3A9.68,9.68,0,0,1,100,47.23V28.87a10.77,10.77,0,0,1,1-4.9,7.16,7.16,0,0,1,3-3.15,10.82,10.82,0,0,1,9.36,0,7.07,7.07,0,0,1,3,3,10.36,10.36,0,0,1,1,4.77v2.73h-6.21V28.6a3.5,3.5,0,0,0-.29-1.47,2.23,2.23,0,0,0-.84-.95,2.44,2.44,0,0,0-1.28-.33,2.57,2.57,0,0,0-1.4.37,2.32,2.32,0,0,0-.91,1,3.67,3.67,0,0,0-.32,1.61V47.23a2.62,2.62,0,0,0,.33,1.33,2.22,2.22,0,0,0,1,.88,3.81,3.81,0,0,0,3,0,2.19,2.19,0,0,0,1-.92,3,3,0,0,0,.34-1.46V42.19h-3V36.4Z"/><path class="cls-2" d="M121.48,20.08h5.92V55.51h-5.92Zm2.7,14.66h6.38a3,3,0,0,0,1.35-.28,2,2,0,0,0,.87-.8,2.61,2.61,0,0,0,.29-1.26V28.46a3.13,3.13,0,0,0-.29-1.39,2,2,0,0,0-.87-.89,2.86,2.86,0,0,0-1.35-.3h-6.38v-5.8h6a11.55,11.55,0,0,1,4.9.94,6.8,6.8,0,0,1,3.11,2.75,8.45,8.45,0,0,1,1.07,4.35v4.14a8.84,8.84,0,0,1-1.07,4.46,7,7,0,0,1-3.12,2.84,11.28,11.28,0,0,1-4.89,1h-6Zm4.92,4.7,5.53-1.12,5.65,17.19H133.8Z"/><path class="cls-2" d="M144,20.11h6v35.4h-6Zm2.68,0h13V26h-13Zm0,14.87h11.83v5.87H146.68Zm0,14.64h13v5.89h-13Z"/><path class="cls-2" d="M166.48,54.84a7.18,7.18,0,0,1-3.06-3,9.77,9.77,0,0,1-1.06-4.72v-1.9l6,0v1.9a2.87,2.87,0,0,0,.75,2.1,2.8,2.8,0,0,0,2.09.77,2.66,2.66,0,0,0,2-.76,2.87,2.87,0,0,0,.72-2.07V44a2.74,2.74,0,0,0-.55-1.69A5.16,5.16,0,0,0,172,41.11c-.58-.35-1.36-.77-2.35-1.26l-.19-.09a.77.77,0,0,0-.18-.1l-.32-.15a20.72,20.72,0,0,1-3.36-2.08,8.71,8.71,0,0,1-2.31-2.86,9.4,9.4,0,0,1-.92-4.38V28.36a9.72,9.72,0,0,1,1-4.64,6.94,6.94,0,0,1,3-3,10.22,10.22,0,0,1,4.75-1,9.91,9.91,0,0,1,4.65,1,6.86,6.86,0,0,1,3,3,10.05,10.05,0,0,1,1,4.71v2l-6,.08v-2a3.07,3.07,0,0,0-.7-2.13,2.45,2.45,0,0,0-1.93-.77,2.83,2.83,0,0,0-2,.69,2.54,2.54,0,0,0-.72,1.91v2.37A2.86,2.86,0,0,0,169,32.3a4.66,4.66,0,0,0,1.31,1.23,25.15,25.15,0,0,0,2.21,1.21q.27.12.54.27l.58.29.08.05.09,0a26.83,26.83,0,0,1,3.26,2A7.52,7.52,0,0,1,179.14,40a9.08,9.08,0,0,1,.88,4.24v2.94a10,10,0,0,1-1,4.72,7,7,0,0,1-3,3,10,10,0,0,1-4.72,1A10.24,10.24,0,0,1,166.48,54.84Z"/><path class="cls-2" d="M191.09,20.11h4.24l8.45,35.4h-6L193.21,32.3l-4.57,23.21h-6Zm-2.7,24.25H198V50h-9.64Z"/><path class="cls-2" d="M206.41,20.08h5.92V55.51h-5.92Zm2.7,14.66h6.38a3,3,0,0,0,1.35-.28,1.94,1.94,0,0,0,.87-.8A2.61,2.61,0,0,0,218,32.4V28.46a3.13,3.13,0,0,0-.29-1.39,2,2,0,0,0-.87-.89,2.86,2.86,0,0,0-1.35-.3h-6.38v-5.8h6A11.55,11.55,0,0,1,220,21a6.8,6.8,0,0,1,3.11,2.75,8.45,8.45,0,0,1,1.07,4.35v4.14a8.84,8.84,0,0,1-1.07,4.46A6.9,6.9,0,0,1,220,39.56a11.25,11.25,0,0,1-4.89,1h-6Zm4.92,4.7,5.53-1.12,5.65,17.19h-6.48Z"/></g></g></svg>