<svg xmlns="http://www.w3.org/2000/svg" viewBox="0 0 662.46 251.46"><defs><style>.cls-1{fill:#e3051b;}.cls-2{fill:#fff;}</style></defs><g id="Capa_2" data-name="Capa 2"><g id="textos"><rect class="cls-1" width="662.46" height="251.46"/><path class="cls-2" d="M41.79,34.36H58V129.1H41.79Zm7.23,0H83.94V49.87H49Zm0,40.79H80.69V90.66H49Z"/><path class="cls-2" d="M87,34.36h16.16V129.1H87Zm7.16,0H129V50.13H94.11Zm0,39.81h31.67V89.88H94.11Zm0,39.16H129V129.1H94.11Z"/><path class="cls-2" d="M132,34.36H148.2V129.1H132Zm6.65,79.24h34.15v15.5H138.69Z"/><path class="cls-2" d="M190.69,129.1H174.53V34.36h16.16Z"/><path class="cls-2" d="M206.14,127.25a18.78,18.78,0,0,1-7.78-8.25,28.76,28.76,0,0,1-2.71-13V57.49a28.79,28.79,0,0,1,2.71-13,18.75,18.75,0,0,1,7.78-8.24,27.93,27.93,0,0,1,24.54,0,18.56,18.56,0,0,1,7.78,8.27,29.41,29.41,0,0,1,2.67,13.07v7.62H224.78V57.56a11,11,0,0,0-.72-4.17,5.63,5.63,0,0,0-2.18-2.71,6.3,6.3,0,0,0-3.49-.94,6.18,6.18,0,0,0-3.39.91,5.76,5.76,0,0,0-2.18,2.67,10.57,10.57,0,0,0-.75,4.17V106a10.35,10.35,0,0,0,.75,4.14,5.78,5.78,0,0,0,2.18,2.64,6.18,6.18,0,0,0,3.39.91,6.4,6.4,0,0,0,3.52-.91,5.55,5.55,0,0,0,2.15-2.64,10.9,10.9,0,0,0,.72-4.2V98.28h16.35v7.63A29.4,29.4,0,0,1,238.46,119a18.53,18.53,0,0,1-7.78,8.28,28,28,0,0,1-24.54,0Z"/><path class="cls-2" d="M259.65,129.1H243.49V34.36h16.16Z"/><path class="cls-2" d="M263.3,34.36h47.44V49.87H263.3Zm15.64,8H295.1V129.1H278.94Z"/><path class="cls-2" d="M325.27,34.36h11.34l22.61,94.74h-16L330.94,67l-12.25,62.1h-16ZM318,99.26h25.8v15.12H318Z"/><path class="cls-2" d="M366.2,127.25a18.8,18.8,0,0,1-7.79-8.25,28.9,28.9,0,0,1-2.7-13V57.49a28.92,28.92,0,0,1,2.7-13,18.78,18.78,0,0,1,7.79-8.24,27.9,27.9,0,0,1,24.53,0,18.58,18.58,0,0,1,7.79,8.27,29.41,29.41,0,0,1,2.67,13.07v7.62H384.83V57.56a11,11,0,0,0-.71-4.17,5.68,5.68,0,0,0-2.18-2.71,6.3,6.3,0,0,0-3.49-.94,6.18,6.18,0,0,0-3.39.91,5.7,5.7,0,0,0-2.18,2.67,10.57,10.57,0,0,0-.75,4.17V106a10.35,10.35,0,0,0,.75,4.14,5.72,5.72,0,0,0,2.18,2.64,6.18,6.18,0,0,0,3.39.91,6.42,6.42,0,0,0,3.52-.91,5.61,5.61,0,0,0,2.15-2.64,10.91,10.91,0,0,0,.71-4.2V98.28h16.36v7.63A29.4,29.4,0,0,1,398.52,119a18.55,18.55,0,0,1-7.79,8.28,28,28,0,0,1-24.53,0Z"/><path class="cls-2" d="M419.7,129.1H403.54V34.36H419.7Z"/><path class="cls-2" d="M435.83,127.44a18.78,18.78,0,0,1-8.3-7.62,23.66,23.66,0,0,1-2.87-12V55.67a23.87,23.87,0,0,1,2.87-12.06,18.56,18.56,0,0,1,8.3-7.62A34,34,0,0,1,462,36a18.53,18.53,0,0,1,8.31,7.62,24,24,0,0,1,2.87,12.06V107.8a23.76,23.76,0,0,1-2.87,12,18.76,18.76,0,0,1-8.31,7.62,33.65,33.65,0,0,1-26.13,0Zm17.34-14.5a6.35,6.35,0,0,0,2.7-2.8,9.77,9.77,0,0,0,.91-4.43V57.62a9.61,9.61,0,0,0-.91-4.36,6.43,6.43,0,0,0-2.7-2.81,8.83,8.83,0,0,0-4.27-1,8.65,8.65,0,0,0-4.24,1A6.47,6.47,0,0,0,442,53.26a9.61,9.61,0,0,0-.91,4.36v48.09a9.77,9.77,0,0,0,.91,4.43,6.4,6.4,0,0,0,2.67,2.8,8.55,8.55,0,0,0,4.24,1A8.72,8.72,0,0,0,453.17,112.94Z"/><path class="cls-2" d="M478.1,34.36h12.7l22.29,63.21-1.76,2.54V34.36h14.72V129H513.22l-22-59.56,1.7-2.6V129H478.1Z"/><path class="cls-2" d="M532.32,34.36h16.16V129.1H532.32Zm7.16,0h34.93V50.13H539.48Zm0,39.81h31.67V89.88H539.48Zm0,39.16h34.93V129.1H539.48Z"/><path class="cls-2" d="M587.12,127.31a19.05,19.05,0,0,1-8.18-8,26.19,26.19,0,0,1-2.83-12.61v-5.08l16.09-.13v5.08a7.68,7.68,0,0,0,2,5.63,7.52,7.52,0,0,0,5.61,2.06,7.18,7.18,0,0,0,5.44-2,7.73,7.73,0,0,0,1.92-5.54V98.41a7.28,7.28,0,0,0-1.47-4.53,13.33,13.33,0,0,0-3.78-3.32q-2.31-1.4-6.28-3.35l-.49-.27-.49-.26-.85-.39a55.16,55.16,0,0,1-9-5.57,22.83,22.83,0,0,1-6.19-7.66,25.18,25.18,0,0,1-2.48-11.72V56.45A26.05,26.05,0,0,1,578.94,44a18.6,18.6,0,0,1,8-7.92,27.23,27.23,0,0,1,12.71-2.74,26.35,26.35,0,0,1,12.44,2.74,18.35,18.35,0,0,1,8,8,26.89,26.89,0,0,1,2.74,12.61v5.34l-16.1.2V56.84a8.18,8.18,0,0,0-1.85-5.7,6.63,6.63,0,0,0-5.18-2,7.53,7.53,0,0,0-5.44,1.85,6.77,6.77,0,0,0-1.93,5.12v6.32a7.73,7.73,0,0,0,1.4,4.62,12.48,12.48,0,0,0,3.52,3.3q2.12,1.33,5.9,3.22.72.33,1.47.72l1.53.78.23.13.22.13a71.66,71.66,0,0,1,8.74,5.31A19.84,19.84,0,0,1,621,87.47a24,24,0,0,1,2.35,11.33v7.89a26.65,26.65,0,0,1-2.77,12.61,18.75,18.75,0,0,1-8.05,8,26.83,26.83,0,0,1-12.64,2.77A27.38,27.38,0,0,1,587.12,127.31Z"/><path class="cls-2" d="M37.74,161.16H68.47v10.05H37.74Zm10.13,5.15H58.34v56.23H47.87Z"/><path class="cls-2" d="M71.72,161.16H82.19v61.38H71.72Zm4.65,0H99v10.22H76.37Zm0,25.8H96.88v10.17H76.37Zm0,25.37H99v10.21H76.37Z"/><path class="cls-2" d="M102.67,161.12h10.25v61.42H102.67Zm4.68,25.41h11.06a5.31,5.31,0,0,0,2.34-.48,3.29,3.29,0,0,0,1.5-1.4,4.33,4.33,0,0,0,.51-2.17v-6.84a5.25,5.25,0,0,0-.51-2.4,3.34,3.34,0,0,0-1.5-1.54,4.81,4.81,0,0,0-2.34-.53H107.35v-10h10.43a20.08,20.08,0,0,1,8.5,1.63,11.79,11.79,0,0,1,5.39,4.77,14.59,14.59,0,0,1,1.85,7.53v7.18a15.34,15.34,0,0,1-1.85,7.74,11.94,11.94,0,0,1-5.41,4.92,19.49,19.49,0,0,1-8.48,1.69H107.35Zm8.53,8.15,9.58-1.94,9.8,29.8H124Z"/><path class="cls-2" d="M170.63,161.16h9.79v61.38H171.1V179.69l.63,2.71-8.91,29.29h-5.23l-8.91-28.45.84-3.55v42.85H140V161.16H150l10.17,33.35Z"/><path class="cls-2" d="M195.83,222.54H185.36V161.16h10.47Z"/><path class="cls-2" d="M200.77,161.16H209l14.43,41-1.14,1.65v-42.6h9.54V222.5h-8.31l-14.27-38.58,1.1-1.69V222.5h-9.59Z"/><path class="cls-2" d="M248.48,161.16h7.34l14.65,61.38H260.09l-7.94-40.23-7.94,40.23H233.83Zm-4.69,42.05h16.72V213H243.79Z"/><path class="cls-2" d="M276.21,221.38a12.41,12.41,0,0,1-5.3-5.19,17,17,0,0,1-1.83-8.17v-3.29l10.43-.09v3.3a5,5,0,0,0,1.3,3.65,4.91,4.91,0,0,0,3.63,1.33,4.65,4.65,0,0,0,3.53-1.31,5,5,0,0,0,1.24-3.59v-5.36a4.69,4.69,0,0,0-.95-2.94,9,9,0,0,0-2.44-2.15c-1-.6-2.36-1.33-4.08-2.17-.11-.06-.22-.11-.31-.17l-.32-.17-.55-.25a35.91,35.91,0,0,1-5.82-3.61,14.87,14.87,0,0,1-4-5,16.34,16.34,0,0,1-1.6-7.6v-3.17a16.92,16.92,0,0,1,1.79-8,12.08,12.08,0,0,1,5.22-5.13,17.7,17.7,0,0,1,8.23-1.77,17.15,17.15,0,0,1,8.06,1.77,12,12,0,0,1,5.15,5.17,17.5,17.5,0,0,1,1.78,8.17v3.46l-10.43.13v-3.5a5.33,5.33,0,0,0-1.2-3.7,4.35,4.35,0,0,0-3.36-1.33,4.85,4.85,0,0,0-3.53,1.21,4.37,4.37,0,0,0-1.24,3.31v4.09a5,5,0,0,0,.91,3,7.75,7.75,0,0,0,2.28,2.13,41.85,41.85,0,0,0,3.82,2.09c.31.14.62.3.95.47s.65.34,1,.5l.15.09.14.08a46.73,46.73,0,0,1,5.66,3.44,12.79,12.79,0,0,1,3.67,4.46,15.53,15.53,0,0,1,1.52,7.34V208a17.38,17.38,0,0,1-1.79,8.17,12.2,12.2,0,0,1-5.21,5.19,17.37,17.37,0,0,1-8.19,1.79A17.75,17.75,0,0,1,276.21,221.38Z"/><path class="cls-2" d="M301.25,161.16H332v10.05H301.25Zm10.13,5.15h10.47v56.23H311.38Z"/><path class="cls-2" d="M335.23,161.16H345.7v61.38H335.23Zm4.64,0H362.5v10.22H339.87Zm0,25.8h20.52v10.17H339.87Zm0,25.37H362.5v10.21H339.87Z"/><path class="cls-2" d="M381.84,161.16h10.47v61.38H381.84Zm4.3,51.33h22.12v10H386.14Z"/><path class="cls-2" d="M424.47,161.16h7.35l14.65,61.38H436.08l-7.93-40.23-7.94,40.23H409.83Zm-4.68,42.05H436.5V213H419.79Z"/><path class="cls-2" d="M460.74,161.16h30.73v10.05H460.74Zm10.13,5.15h10.47v56.23H470.87Z"/><path class="cls-2" d="M494.72,161.12H505v61.42H494.72Zm4.69,25.41h11.06a5.31,5.31,0,0,0,2.34-.48,3.4,3.4,0,0,0,1.5-1.4,4.33,4.33,0,0,0,.5-2.17v-6.84a5.25,5.25,0,0,0-.5-2.4,3.44,3.44,0,0,0-1.5-1.54,4.81,4.81,0,0,0-2.34-.53H499.41v-10h10.42a20.13,20.13,0,0,1,8.51,1.63,11.77,11.77,0,0,1,5.38,4.77,14.5,14.5,0,0,1,1.86,7.53v7.18a15.24,15.24,0,0,1-1.86,7.74,12,12,0,0,1-5.4,4.92,19.54,19.54,0,0,1-8.49,1.69H499.41Zm8.52,8.15,9.59-1.94,9.79,29.8H516.08Z"/><path class="cls-2" d="M530.69,151l10.64-11,7.68,7.39-11.65,10Zm11,71.59H531.19V161.16h10.47Z"/><path class="cls-2" d="M544.49,161.16H555.6l5.86,42.38,5.87-42.38h11.1l-11.31,61.38H555.81Z"/><path class="cls-2" d="M590.47,222.54H580V161.16h10.47Z"/><path class="cls-2" d="M606.26,161.16h7.34l14.65,61.38H617.86l-7.93-40.23L602,222.54H591.61Zm-4.69,42.05h16.72V213H601.57Z"/></g></g></svg>