<svg xmlns="http://www.w3.org/2000/svg" viewBox="0 0 257.69 244.26"><defs><style>.cls-1{fill:#1d1d1b;}.cls-2{fill:#dadada;}.cls-3{fill:#fff;}</style></defs><g id="Capa_2" data-name="Capa 2"><g id="textos"><path class="cls-1" d="M180.89,136.05a3.7,3.7,0,0,1,4.33.57l72.47,58.44L241.09,35.59c-.89-8-6.4-13.8-14.4-13.8-11.26,0-27.36,0-32.94.06-4.94,0-8.65,3.2-11,5.91L161.81,53.55a2,2,0,0,1-3.4-.5l-8.75-26.23c-4.28-11.18,8.31-15.35,15.54-7.5C164.05,14.39,163,10.06,162,5.8c-1.64-6.71-6.6-6-11.14-5.45L118.89,4.59c-5.52.71-9.28,1.34-12.23-.69,1.09,6.23,5.14,8.14,7.92,9.23L99.27,53.08a2,2,0,0,1-3.39.46L75,27.76c-2.37-2.71-6.08-5.88-11-5.91-5.58,0-21.68-.06-32.94-.06-8,0-13.53,5.82-14.4,13.77L0,195.06l72.47-58.44a3.55,3.55,0,0,1,4.32-.57,3.5,3.5,0,0,1,1.43,3.85c-2.31,9-7.13,20-18.8,58.89H37.94a3.79,3.79,0,0,0-3.54,2.71,4.11,4.11,0,0,0-.17,1.21V207l2.4-3h7.55L39,206.12A3.86,3.86,0,0,0,36.67,210a4,4,0,0,0,.29,1.18l1.69,4,1.05-3.72L42,210.5,51.13,205l-6.6,7.15a3.84,3.84,0,0,0-.53,4.49,3.7,3.7,0,0,0,.74.93l3.22,3-.6-3.82L49,214.93l7.52-11H70.91l2.4,3v-4.32a3.92,3.92,0,0,0-.17-1.18,3.82,3.82,0,0,0-3.54-2.7H64.53c5.23-4.95,35.21-35.87,35.21-35.87L83.27,199.41c-1.38,3.68,0,5.18,1.57,6.51,3.37,2.91,15.33,13.34,15.33,13.34l13-30.08c-.81,5.24-1.76,23.36-2.89,32.53-.59,4.79.77,7,2.75,8.8,3.42,3.06,15.78,13.75,15.78,13.75s12.37-10.69,15.79-13.75c2-1.79,3.34-4,2.75-8.8-1.13-9.17-2.09-27.29-2.89-32.53l13,30.08s11.95-10.43,15.33-13.34c1.54-1.33,2.94-2.83,1.56-6.51L158,162.92s30,30.92,35.21,35.87h-5.08a3.8,3.8,0,0,0-3.53,2.7,3.65,3.65,0,0,0-.17,1.19V207l2.4-3h14.36l7.51,11,1.68,1.81-.6,3.82,3.22-3a3.7,3.7,0,0,0,.74-.93,3.86,3.86,0,0,0-.53-4.49L206.55,205l9.16,5.48,2.28.95,1,3.72,1.68-4A3.41,3.41,0,0,0,221,210a3.85,3.85,0,0,0-2.36-3.84L213.51,204h7.54l2.41,3v-4.29a4,4,0,0,0-.17-1.2,3.81,3.81,0,0,0-3.54-2.71H198.27C186.6,160,181.78,148.88,179.46,139.9A3.51,3.51,0,0,1,180.89,136.05Z"/><polygon class="cls-2" points="116.8 157.31 116.8 88.86 114.81 88.86 108.6 99.83 85.83 99.83 105.63 64.87 165.63 64.87 152.04 88.86 140.79 88.86 140.79 157.31 116.8 157.31"/><polygon class="cls-3" points="161.81 67.09 106.92 67.09 89.64 97.6 107.31 97.6 113.52 86.64 119.02 86.64 119.02 155.08 138.56 155.08 138.56 86.64 150.74 86.64 161.81 67.09"/></g></g></svg>