<svg xmlns="http://www.w3.org/2000/svg" viewBox="0 0 807.31 126.41"><g id="Capa_2" data-name="Capa 2"><g id="textos"><path d="M27,149.15H5.88V25.3H27Z" transform="translate(-5.88 -24.02)"/><path d="M37,25.3H53.58l29.14,82.63-2.3,3.32V25.3H99.67V149.07H82.89L54.09,71.21l2.22-3.4v81.26H37Z" transform="translate(-5.88 -24.02)"/><path d="M124,146.81a24.86,24.86,0,0,1-10.69-10.48,34.2,34.2,0,0,1-3.7-16.48v-6.64l21-.17v6.64a10.06,10.06,0,0,0,2.64,7.37,9.8,9.8,0,0,0,7.32,2.68,9.37,9.37,0,0,0,7.12-2.64,10.09,10.09,0,0,0,2.51-7.24V109a9.48,9.48,0,0,0-1.92-5.92,17.58,17.58,0,0,0-4.94-4.34q-3-1.83-8.22-4.39c-.23-.11-.44-.22-.64-.34l-.64-.34-1.1-.51a72.6,72.6,0,0,1-11.76-7.28,30.13,30.13,0,0,1-8.09-10q-3.24-6.23-3.24-15.34V54.18A34,34,0,0,1,113.34,38,24.29,24.29,0,0,1,123.86,27.6Q130.76,24,140.47,24a34.49,34.49,0,0,1,16.27,3.58A24.06,24.06,0,0,1,167.13,38a35.22,35.22,0,0,1,3.58,16.49v7l-21,.26V54.69q0-4.77-2.43-7.46a8.64,8.64,0,0,0-6.77-2.68c-3.06,0-5.44.81-7.11,2.43a8.84,8.84,0,0,0-2.51,6.68v8.27A10.13,10.13,0,0,0,132.68,68a16.32,16.32,0,0,0,4.6,4.3c1.84,1.16,4.41,2.57,7.71,4.21.62.29,1.26.6,1.91.94s1.32.68,2,1l.29.17a2.14,2.14,0,0,0,.3.17,94.54,94.54,0,0,1,11.42,6.95,26.09,26.09,0,0,1,7.41,9q3.06,5.81,3.06,14.82v10.31q0,9.63-3.62,16.48a24.42,24.42,0,0,1-10.52,10.48,35.18,35.18,0,0,1-16.52,3.62A35.92,35.92,0,0,1,124,146.81Z" transform="translate(-5.88 -24.02)"/><path d="M174.55,25.3h62V45.57h-62ZM195,35.69h21.13V149.15H195Z" transform="translate(-5.88 -24.02)"/><path d="M243.12,25.21h20.7V149.15h-20.7Zm9.46,51.28H274.9a10.53,10.53,0,0,0,4.72-1,6.73,6.73,0,0,0,3-2.81,8.86,8.86,0,0,0,1-4.38V54.52a10.76,10.76,0,0,0-1-4.86,7,7,0,0,0-3-3.11,9.9,9.9,0,0,0-4.72-1.06H252.58V25.21h21a40.85,40.85,0,0,1,17.16,3.28,23.82,23.82,0,0,1,10.86,9.63,29.36,29.36,0,0,1,3.75,15.2V67.81a30.86,30.86,0,0,1-3.75,15.63,24.19,24.19,0,0,1-10.9,9.92,39.54,39.54,0,0,1-17.12,3.41h-21Zm17.21,16.44L289.12,89l19.76,60.13H286.23Z" transform="translate(-5.88 -24.02)"/><path d="M327.33,146.73A24.33,24.33,0,0,1,317.15,136a37.39,37.39,0,0,1-3.49-16.82V25.3h21.21v94.47a10.28,10.28,0,0,0,2.21,7,7.75,7.75,0,0,0,6.14,2.52,8,8,0,0,0,6.26-2.52,10.14,10.14,0,0,0,2.26-7V25.3H373v93.87A37,37,0,0,1,369.41,136a24.58,24.58,0,0,1-10.22,10.74,36.14,36.14,0,0,1-31.86,0Z" transform="translate(-5.88 -24.02)"/><path d="M393.56,146.73A24.6,24.6,0,0,1,383.38,136q-3.53-7.06-3.53-17V55.54q0-10,3.53-17a24.63,24.63,0,0,1,10.18-10.77,36.51,36.51,0,0,1,32.07,0,24.24,24.24,0,0,1,10.18,10.81,38.43,38.43,0,0,1,3.5,17.08v10H417.93v-10a14.52,14.52,0,0,0-.94-5.45,7.4,7.4,0,0,0-2.86-3.53,8.9,8.9,0,0,0-9,0,7.53,7.53,0,0,0-2.86,3.5,13.89,13.89,0,0,0-1,5.45v63.37a13.55,13.55,0,0,0,1,5.41,7.49,7.49,0,0,0,2.86,3.45,8,8,0,0,0,4.43,1.2,8.38,8.38,0,0,0,4.6-1.2,7.23,7.23,0,0,0,2.81-3.45,14.37,14.37,0,0,0,.94-5.49v-10h21.38v10a38.4,38.4,0,0,1-3.5,17.08,24.26,24.26,0,0,1-10.18,10.82,36.6,36.6,0,0,1-32.07,0Z" transform="translate(-5.88 -24.02)"/><path d="M459.58,146.73A24.6,24.6,0,0,1,449.4,136q-3.52-7.06-3.53-17V55.54q0-10,3.53-17a24.63,24.63,0,0,1,10.18-10.77,36.51,36.51,0,0,1,32.07,0,24.24,24.24,0,0,1,10.18,10.81,38.43,38.43,0,0,1,3.5,17.08v10H483.94v-10a14.53,14.53,0,0,0-.93-5.45,7.4,7.4,0,0,0-2.86-3.53,8.9,8.9,0,0,0-9,0,7.53,7.53,0,0,0-2.86,3.5,13.89,13.89,0,0,0-1,5.45v63.37a13.55,13.55,0,0,0,1,5.41,7.49,7.49,0,0,0,2.86,3.45,8,8,0,0,0,4.43,1.2,8.38,8.38,0,0,0,4.6-1.2,7.23,7.23,0,0,0,2.81-3.45,14.38,14.38,0,0,0,.93-5.49v-10h21.39v10a38.4,38.4,0,0,1-3.5,17.08,24.26,24.26,0,0,1-10.18,10.82,36.6,36.6,0,0,1-32.07,0Z" transform="translate(-5.88 -24.02)"/><path d="M533,149.15H511.89V25.3H533Z" transform="translate(-5.88 -24.02)"/><path d="M557.59,147a24.55,24.55,0,0,1-10.86-10A31.05,31.05,0,0,1,543,121.3V53.15a31.22,31.22,0,0,1,3.75-15.75,24.18,24.18,0,0,1,10.86-10,44.48,44.48,0,0,1,34.16,0,24.18,24.18,0,0,1,10.86,10,31.22,31.22,0,0,1,3.75,15.75V121.3A31.05,31.05,0,0,1,602.61,137a24.55,24.55,0,0,1-10.86,10,44,44,0,0,1-34.16,0ZM580.25,128a8.35,8.35,0,0,0,3.54-3.66,12.92,12.92,0,0,0,1.19-5.8V55.71A12.7,12.7,0,0,0,583.79,50a8.35,8.35,0,0,0-3.54-3.66,11.5,11.5,0,0,0-5.58-1.28,11.29,11.29,0,0,0-5.54,1.28A8.4,8.4,0,0,0,565.64,50a12.7,12.7,0,0,0-1.19,5.71v62.86a12.92,12.92,0,0,0,1.19,5.8,8.4,8.4,0,0,0,3.49,3.66,11.29,11.29,0,0,0,5.54,1.28A11.5,11.5,0,0,0,580.25,128Z" transform="translate(-5.88 -24.02)"/><path d="M616.33,25.3h16.61l29.13,82.63-2.3,3.32V25.3H679V149.07H662.24L633.45,71.21l2.21-3.4v81.26H616.33Z" transform="translate(-5.88 -24.02)"/><path d="M690.7,25.3h21.12V149.15H690.7Zm9.37,0h45.65V45.91H700.07Zm0,52.05h41.39V97.87H700.07Zm0,51.19h45.65v20.61H700.07Z" transform="translate(-5.88 -24.02)"/><path d="M765.83,146.81a24.81,24.81,0,0,1-10.69-10.48,34.2,34.2,0,0,1-3.71-16.48v-6.64l21-.17v6.64a10,10,0,0,0,2.65,7.37,9.8,9.8,0,0,0,7.32,2.68,9.33,9.33,0,0,0,7.11-2.64,10,10,0,0,0,2.52-7.24V109a9.48,9.48,0,0,0-1.92-5.92,17.72,17.72,0,0,0-4.94-4.34q-3-1.83-8.22-4.39c-.23-.11-.44-.22-.64-.34l-.64-.34-1.11-.51a72.48,72.48,0,0,1-11.75-7.28,30,30,0,0,1-8.09-10q-3.24-6.23-3.24-15.34V54.18A34,34,0,0,1,755.14,38,24.29,24.29,0,0,1,765.66,27.6Q772.56,24,782.27,24a34.52,34.52,0,0,1,16.27,3.58A24.06,24.06,0,0,1,808.93,38a35.22,35.22,0,0,1,3.58,16.49v7l-21,.26V54.69q0-4.77-2.43-7.46a8.65,8.65,0,0,0-6.77-2.68q-4.6,0-7.11,2.43a8.84,8.84,0,0,0-2.51,6.68v8.27A10.06,10.06,0,0,0,774.48,68a16.32,16.32,0,0,0,4.6,4.3c1.84,1.16,4.41,2.57,7.71,4.21.62.29,1.26.6,1.91.94l2,1,.3.17a2.14,2.14,0,0,0,.3.17,93.54,93.54,0,0,1,11.41,6.95,26,26,0,0,1,7.42,9q3.06,5.81,3.06,14.82v10.31a34.9,34.9,0,0,1-3.62,16.48,24.42,24.42,0,0,1-10.52,10.48,35.18,35.18,0,0,1-16.52,3.62A35.92,35.92,0,0,1,765.83,146.81Z" transform="translate(-5.88 -24.02)"/></g></g></svg>