<svg xmlns="http://www.w3.org/2000/svg" viewBox="0 0 209.5 145.92"><defs><style>.cls-1{fill:#1d1d1b;}.cls-2{fill:#dadada;}.cls-3{fill:#fff;}.cls-4{fill:#e3051b;}</style></defs><g id="Capa_2" data-name="Capa 2"><g id="textos"><path class="cls-1" d="M119.45,44.72a1.21,1.21,0,0,1,1.42.19L144.7,64.12,139.24,11.7a4.73,4.73,0,0,0-4.73-4.54l-10.83,0a5,5,0,0,0-3.63,2l-6.87,8.47a.66.66,0,0,1-1.12-.16l-2.88-8.62c-1.4-3.68,2.74-5.05,5.11-2.47-.38-1.62-.72-3-1.06-4.44-.54-2.21-2.17-2-3.66-1.79L99.07,1.51c-1.81.23-3,.44-4-.23a3.71,3.71,0,0,0,2.6,3l-5,13.13a.65.65,0,0,1-1.11.15L84.63,9.13a5,5,0,0,0-3.63-2l-10.82,0a4.75,4.75,0,0,0-4.74,4.53L60,64.12,83.81,44.91A1.12,1.12,0,0,1,85.7,46c-.76,2.95-2.34,6.59-6.18,19.36H72.46a1.27,1.27,0,0,0-1.17.89,1.37,1.37,0,0,0-.05.4v1.41l.79-1h2.48l-1.69.71A1.27,1.27,0,0,0,72,69a1.26,1.26,0,0,0,.1.38l.55,1.33L73,69.51l.75-.31,3-1.8-2.18,2.35a1.26,1.26,0,0,0-.17,1.47,1.23,1.23,0,0,0,.24.31l1.06,1-.19-1.26.55-.6,2.47-3.6H83.3l.79,1V66.63a1.28,1.28,0,0,0-1.22-1.28H81.2c1.72-1.63,11.57-11.79,11.57-11.79l-5.41,12a1.63,1.63,0,0,0,.51,2.14c1.12,1,5,4.39,5,4.39l4.29-9.89c-.27,1.72-.58,7.68-1,10.69a2.92,2.92,0,0,0,.9,2.9c1.13,1,5.19,4.52,5.19,4.52s4.07-3.52,5.19-4.52a2.92,2.92,0,0,0,.9-2.9c-.37-3-.68-9-.94-10.69l4.28,9.89,5-4.39a1.62,1.62,0,0,0,.51-2.14l-5.41-12s9.86,10.16,11.57,11.79h-1.66a1.24,1.24,0,0,0-1.22,1.28v1.42l.79-1h4.72l2.47,3.6.55.6-.2,1.26,1.06-1a1,1,0,0,0,.24-.31,1.26,1.26,0,0,0-.17-1.47l-2.17-2.35,3,1.8.75.31.34,1.22.55-1.33a1,1,0,0,0,.1-.38,1.25,1.25,0,0,0-.78-1.26l-1.69-.71h2.48l.79,1V66.64a1.33,1.33,0,0,0-.05-.4,1.26,1.26,0,0,0-1.17-.89h-7.06C121.33,52.58,119.74,48.94,119,46A1.16,1.16,0,0,1,119.45,44.72Z"/><polygon class="cls-2" points="98.38 51.71 98.38 29.21 97.73 29.21 95.69 32.82 88.2 32.82 94.71 21.32 114.43 21.32 109.97 29.21 106.27 29.21 106.27 51.71 98.38 51.71"/><polygon class="cls-3" points="113.18 22.05 95.14 22.05 89.45 32.09 95.26 32.09 97.3 28.48 99.11 28.48 99.11 50.98 105.54 50.98 105.54 28.48 109.54 28.48 113.18 22.05"/><polygon class="cls-4" points="171.33 91.95 136.52 91.95 136.52 103.94 145.05 103.94 145.05 145.92 157.03 145.92 157.03 103.94 164.54 103.94 171.33 91.95"/><polygon class="cls-4" points="44.26 91.95 10.6 91.95 0 110.67 10.83 110.67 14.64 103.94 18.02 103.94 18.02 145.92 30 145.92 30 103.94 37.47 103.94 44.26 91.95"/><path class="cls-4" d="M52.9,123.85h7.76L67,112.74H52.9v-8.8H69.56l6.78-12H47.7l-6.79,12h0V141.7a4.22,4.22,0,0,0,4.21,4.22H63.17l6.78-12H52.9Z"/><path class="cls-4" d="M180,123.85h7.76L194,112.74H180v-8.8h16.66l6.79-12H174.76l-6.79,12h0V141.7a4.22,4.22,0,0,0,4.22,4.22H192l6.79-12H180Z"/><path class="cls-4" d="M106.76,92l-4.1,12h8l-14.38,42h11.56l4.1-12h10.26v12h11.43V92Zm15.39,32.11h-6.87L122.15,104Z"/><path class="cls-4" d="M96.89,133.93H85v-30H99.22l4.11-12H79.78l-6.79,12V141.7a4.22,4.22,0,0,0,4.22,4.22H92.78Z"/><path class="cls-4" d="M206.92,92a2.59,2.59,0,1,1-2.59,2.58A2.59,2.59,0,0,1,206.92,92ZM209,94.53a2.13,2.13,0,1,0-2.12,2.17A2.14,2.14,0,0,0,209,94.53ZM205.89,93h1.17c.66,0,1,.28,1,.88a.81.81,0,0,1-.82.84l.87,1.3h-.46l-.84-1.27h-.49v1.27h-.46Zm1,1.33c.42,0,.79,0,.79-.47s-.34-.44-.66-.44h-.62v.91Z"/></g></g></svg>