<svg xmlns="http://www.w3.org/2000/svg" viewBox="0 0 665.12 239.56"><defs><style>.cls-1{fill:#1d1d1b;}.cls-2{fill:#fff;}.cls-3{fill:#e3051b;}</style></defs><g id="Capa_2" data-name="Capa 2"><g id="textos"><rect class="cls-1" x="2.66" width="662.46" height="128.46"/><path class="cls-2" d="M45.92,38.16H76.65V48.21H45.92Zm10.13,5.15H66.52V99.54H56.05Z" transform="translate(-5.52)"/><path class="cls-2" d="M79.9,38.16H90.37V99.54H79.9Zm4.65,0h22.62V48.38H84.55Zm0,25.8h20.51V74.13H84.55Zm0,25.37h22.62V99.54H84.55Z" transform="translate(-5.52)"/><path class="cls-2" d="M110.85,38.12H121.1V99.54H110.85Zm4.68,25.41h11.06a5.31,5.31,0,0,0,2.34-.48,3.29,3.29,0,0,0,1.5-1.4,4.33,4.33,0,0,0,.51-2.17V52.64a5.25,5.25,0,0,0-.51-2.4,3.34,3.34,0,0,0-1.5-1.54,4.81,4.81,0,0,0-2.34-.53H115.53V38.12H126a20.08,20.08,0,0,1,8.5,1.63,11.79,11.79,0,0,1,5.39,4.77,14.59,14.59,0,0,1,1.85,7.53v7.18A15.34,15.34,0,0,1,139.85,67a11.94,11.94,0,0,1-5.41,4.92A19.49,19.49,0,0,1,126,73.58H115.53Zm8.53,8.15,9.58-1.94,9.8,29.8H132.21Z" transform="translate(-5.52)"/><path class="cls-2" d="M178.81,38.16h9.79V99.54h-9.32V56.69l.63,2.71L171,88.69h-5.23l-8.91-28.45.84-3.55V99.54h-9.54V38.16h10.05l10.17,33.35Z" transform="translate(-5.52)"/><path class="cls-2" d="M204,99.54H193.54V38.16H204Z" transform="translate(-5.52)"/><path class="cls-2" d="M209,38.16h8.24l14.43,41-1.14,1.65V38.16H240V99.5h-8.31L217.44,60.92l1.1-1.69V99.5H209Z" transform="translate(-5.52)"/><path class="cls-2" d="M256.66,38.16H264l14.65,61.38H268.27l-7.94-40.23-7.94,40.23H242ZM252,80.21h16.72V90H252Z" transform="translate(-5.52)"/><path class="cls-2" d="M284.39,98.38a12.41,12.41,0,0,1-5.3-5.19A17,17,0,0,1,277.26,85V81.73l10.43-.09v3.3a5,5,0,0,0,1.3,3.65,4.91,4.91,0,0,0,3.63,1.33,4.65,4.65,0,0,0,3.53-1.31A5,5,0,0,0,297.39,85V79.66a4.69,4.69,0,0,0-.95-2.94A9,9,0,0,0,294,74.57c-1-.6-2.36-1.33-4.08-2.17-.11-.06-.22-.11-.31-.17l-.32-.17-.55-.25a35.91,35.91,0,0,1-5.82-3.61,14.87,14.87,0,0,1-4-5,16.34,16.34,0,0,1-1.6-7.6V52.47a16.92,16.92,0,0,1,1.79-8,12.08,12.08,0,0,1,5.22-5.13,17.7,17.7,0,0,1,8.23-1.77,17.15,17.15,0,0,1,8.06,1.77,12,12,0,0,1,5.15,5.17,17.5,17.5,0,0,1,1.78,8.17V56.1l-10.43.13v-3.5a5.33,5.33,0,0,0-1.2-3.7,4.35,4.35,0,0,0-3.36-1.33A4.85,4.85,0,0,0,289,48.91a4.37,4.37,0,0,0-1.24,3.31v4.09a5,5,0,0,0,.91,3A7.75,7.75,0,0,0,291,61.44a41.85,41.85,0,0,0,3.82,2.09c.31.14.62.3,1,.47s.65.34,1,.5l.15.09.14.08a46.73,46.73,0,0,1,5.66,3.44,12.79,12.79,0,0,1,3.67,4.46,15.53,15.53,0,0,1,1.52,7.34V85a17.38,17.38,0,0,1-1.79,8.17,12.2,12.2,0,0,1-5.21,5.19,17.37,17.37,0,0,1-8.19,1.79A17.75,17.75,0,0,1,284.39,98.38Z" transform="translate(-5.52)"/><path class="cls-2" d="M309.43,38.16h30.73V48.21H309.43Zm10.13,5.15H330V99.54H319.56Z" transform="translate(-5.52)"/><path class="cls-2" d="M343.41,38.16h10.47V99.54H343.41Zm4.64,0h22.63V48.38H348.05Zm0,25.8h20.52V74.13H348.05Zm0,25.37h22.63V99.54H348.05Z" transform="translate(-5.52)"/><path class="cls-2" d="M390,38.16h10.47V99.54H390Zm4.3,51.33h22.12V99.54H394.32Z" transform="translate(-5.52)"/><path class="cls-2" d="M432.65,38.16H440l14.65,61.38H444.26l-7.93-40.23-7.94,40.23H418ZM428,80.21h16.71V90H428Z" transform="translate(-5.52)"/><path class="cls-2" d="M468.92,38.16h30.73V48.21H468.92Zm10.13,5.15h10.47V99.54H479.05Z" transform="translate(-5.52)"/><path class="cls-2" d="M502.9,38.12h10.26V99.54H502.9Zm4.69,25.41h11.06a5.31,5.31,0,0,0,2.34-.48,3.4,3.4,0,0,0,1.5-1.4,4.33,4.33,0,0,0,.5-2.17V52.64a5.25,5.25,0,0,0-.5-2.4A3.44,3.44,0,0,0,521,48.7a4.81,4.81,0,0,0-2.34-.53H507.59V38.12H518a20.13,20.13,0,0,1,8.51,1.63,11.77,11.77,0,0,1,5.38,4.77,14.5,14.5,0,0,1,1.86,7.53v7.18A15.24,15.24,0,0,1,531.9,67a12,12,0,0,1-5.4,4.92A19.54,19.54,0,0,1,518,73.58H507.59Zm8.52,8.15,9.59-1.94,9.79,29.8H524.26Z" transform="translate(-5.52)"/><path class="cls-2" d="M538.87,28l10.64-11,7.68,7.39-11.65,10Zm11,71.59H539.38V38.16h10.46Z" transform="translate(-5.52)"/><path class="cls-2" d="M552.67,38.16h11.11l5.86,42.38,5.87-42.38h11.1L575.3,99.54H564Z" transform="translate(-5.52)"/><path class="cls-2" d="M598.65,99.54H588.18V38.16h10.47Z" transform="translate(-5.52)"/><path class="cls-2" d="M614.44,38.16h7.34l14.65,61.38H626l-7.93-40.23-7.94,40.23H599.79Zm-4.69,42.05h16.72V90H609.75Z" transform="translate(-5.52)"/><path class="cls-3" d="M5.52,148.43H20.91v90.2H5.52Zm7.2,40.45H28.66a5.89,5.89,0,0,0,3.23-.87A5.65,5.65,0,0,0,34,185.46a9.8,9.8,0,0,0,.74-4V170.88a11,11,0,0,0-.71-4.15A5.62,5.62,0,0,0,32,164.09a5.85,5.85,0,0,0-3.29-.9H12.72V148.43H29.1a25.7,25.7,0,0,1,11.47,2.35,16.22,16.22,0,0,1,7.26,6.92,22.54,22.54,0,0,1,2.48,11v15.2a21.31,21.31,0,0,1-2.51,10.7,16.32,16.32,0,0,1-7.29,6.76,25.83,25.83,0,0,1-11.41,2.33H12.72Z" transform="translate(-5.52)"/><path class="cls-3" d="M54.72,148.43H70.11v90.2H54.72Zm6.83,0H94.8v15H61.55Zm0,37.9H91.7v14.95H61.55Zm0,37.29H94.8v15H61.55Z" transform="translate(-5.52)"/><path class="cls-3" d="M97.66,148.36h15.07v90.27H97.66Zm6.89,37.35H120.8a7.82,7.82,0,0,0,3.44-.71,5,5,0,0,0,2.21-2.05,6.51,6.51,0,0,0,.74-3.19v-10a7.9,7.9,0,0,0-.74-3.54,5.16,5.16,0,0,0-2.21-2.27,7.31,7.31,0,0,0-3.44-.77H104.55V148.36h15.32a29.72,29.72,0,0,1,12.5,2.39,17.36,17.36,0,0,1,7.91,7A21.42,21.42,0,0,1,143,168.84v10.54a22.49,22.49,0,0,1-2.73,11.39,17.65,17.65,0,0,1-7.94,7.22,28.71,28.71,0,0,1-12.47,2.49H104.55Zm12.53,12,14.08-2.85,14.39,43.8h-16.5Z" transform="translate(-5.52)"/><path class="cls-3" d="M158.12,237.05a17.93,17.93,0,0,1-7.91-7.26,22.59,22.59,0,0,1-2.73-11.45V168.71a22.75,22.75,0,0,1,2.73-11.47,17.6,17.6,0,0,1,7.91-7.26A32.44,32.44,0,0,1,183,150a17.6,17.6,0,0,1,7.91,7.26,22.75,22.75,0,0,1,2.73,11.47v49.63a22.59,22.59,0,0,1-2.73,11.45,17.93,17.93,0,0,1-7.91,7.26,32.08,32.08,0,0,1-24.88,0Zm16.5-13.81a6,6,0,0,0,2.58-2.66,9.37,9.37,0,0,0,.87-4.22V170.57a9.18,9.18,0,0,0-.87-4.15,6.05,6.05,0,0,0-2.58-2.67,8.34,8.34,0,0,0-4.06-.93,8.17,8.17,0,0,0-4,.93,6.09,6.09,0,0,0-2.55,2.67,9.18,9.18,0,0,0-.86,4.15v45.79a9.37,9.37,0,0,0,.86,4.22,6.07,6.07,0,0,0,2.55,2.66,8.06,8.06,0,0,0,4,.94A8.23,8.23,0,0,0,174.62,223.24Z" transform="translate(-5.52)"/><path class="cls-3" d="M220.08,148.43h12.09l21.22,60.17L251.72,211V148.43h14v90.14H253.52l-21-56.71,1.61-2.48v59.19H220.08Z" transform="translate(-5.52)"/><path class="cls-3" d="M282.34,237.05a17.88,17.88,0,0,1-7.91-7.26,22.59,22.59,0,0,1-2.73-11.45V168.71a22.75,22.75,0,0,1,2.73-11.47,17.55,17.55,0,0,1,7.91-7.26,32.44,32.44,0,0,1,24.88,0,17.6,17.6,0,0,1,7.91,7.26,22.85,22.85,0,0,1,2.72,11.47v49.63a22.69,22.69,0,0,1-2.72,11.45,17.93,17.93,0,0,1-7.91,7.26,32.08,32.08,0,0,1-24.88,0Zm16.5-13.81a6.08,6.08,0,0,0,2.58-2.66,9.51,9.51,0,0,0,.86-4.22V170.57a9.31,9.31,0,0,0-.86-4.15,6.11,6.11,0,0,0-2.58-2.67,8.37,8.37,0,0,0-4.06-.93,8.21,8.21,0,0,0-4,.93,6.13,6.13,0,0,0-2.54,2.67,9.18,9.18,0,0,0-.87,4.15v45.79a9.37,9.37,0,0,0,.87,4.22,6.1,6.1,0,0,0,2.54,2.66,8.1,8.1,0,0,0,4,.94A8.26,8.26,0,0,0,298.84,223.24Z" transform="translate(-5.52)"/><path class="cls-3" d="M389.33,189.93v27a26.1,26.1,0,0,1-2.63,12.16,18.09,18.09,0,0,1-7.66,7.78,25.13,25.13,0,0,1-12,2.7,26.6,26.6,0,0,1-12.22-2.6,18,18,0,0,1-7.79-7.57,24.46,24.46,0,0,1-2.7-11.85V170.76a27.48,27.48,0,0,1,2.64-12.5,18.24,18.24,0,0,1,7.66-8,27.62,27.62,0,0,1,23.86-.1,17.87,17.87,0,0,1,7.53,7.76,26.33,26.33,0,0,1,2.61,12.16V177H372.77v-6.95a8.88,8.88,0,0,0-.74-3.76,5.46,5.46,0,0,0-2.15-2.42,6.26,6.26,0,0,0-3.25-.83,6.69,6.69,0,0,0-3.57.93,6,6,0,0,0-2.33,2.67,9.72,9.72,0,0,0-.8,4.09v46.78a6.65,6.65,0,0,0,.84,3.38,5.43,5.43,0,0,0,2.45,2.23,8.56,8.56,0,0,0,3.78.78,8.7,8.7,0,0,0,3.88-.81,5.68,5.68,0,0,0,2.51-2.36,7.47,7.47,0,0,0,.87-3.72V204.69h-7.57V189.93Z" transform="translate(-5.52)"/><path class="cls-3" d="M408.76,148.43h10.79l21.53,90.2H425.82l-11.67-59.12-11.66,59.12H387.23Zm-6.89,61.79h24.57v14.39H401.87Z" transform="translate(-5.52)"/><path class="cls-3" d="M442.7,148.43h12.1L476,208.6,474.34,211V148.43h14v90.14H476.14l-21-56.71,1.61-2.48v59.19H442.7Z" transform="translate(-5.52)"/><path class="cls-3" d="M510.26,148.43h10.8l21.52,90.2H527.32l-11.66-59.12L504,238.63H488.74Zm-6.88,61.79h24.56v14.39H503.38Z" transform="translate(-5.52)"/><path class="cls-3" d="M548.48,236.92a18.08,18.08,0,0,1-7.78-7.63,24.91,24.91,0,0,1-2.7-12v-4.84l15.32-.12v4.84a7.28,7.28,0,0,0,1.93,5.36,7.15,7.15,0,0,0,5.33,2,6.83,6.83,0,0,0,5.18-1.93,7.33,7.33,0,0,0,1.83-5.27v-7.88a6.91,6.91,0,0,0-1.39-4.31,12.79,12.79,0,0,0-3.6-3.17c-1.47-.88-3.47-2-6-3.19l-.46-.25-.47-.25-.81-.37a52,52,0,0,1-8.56-5.3,21.94,21.94,0,0,1-5.89-7.29,24,24,0,0,1-2.36-11.17v-4.65a24.74,24.74,0,0,1,2.64-11.82,17.76,17.76,0,0,1,7.66-7.54,26,26,0,0,1,12.1-2.6,25.15,25.15,0,0,1,11.85,2.6,17.58,17.58,0,0,1,7.57,7.6,25.75,25.75,0,0,1,2.6,12v5.08l-15.32.19v-5.15a7.79,7.79,0,0,0-1.77-5.43,6.32,6.32,0,0,0-4.93-2,7.18,7.18,0,0,0-5.18,1.76,6.47,6.47,0,0,0-1.83,4.87v6a7.36,7.36,0,0,0,1.33,4.41,11.94,11.94,0,0,0,3.35,3.13c1.34.85,3.22,1.87,5.62,3.07.45.21.92.44,1.39.68l1.46.75.22.12.21.13a68.17,68.17,0,0,1,8.32,5.05,18.83,18.83,0,0,1,5.39,6.55A22.94,22.94,0,0,1,583,209.78v7.51a25.37,25.37,0,0,1-2.64,12,17.8,17.8,0,0,1-7.66,7.63,25.57,25.57,0,0,1-12,2.64A26.13,26.13,0,0,1,548.48,236.92Z" transform="translate(-5.52)"/><path class="cls-3" d="M582.73,148.43H627.9v14.76H582.73ZM597.62,156H613v82.64H597.62Z" transform="translate(-5.52)"/><path class="cls-3" d="M630.14,148.43h15.38v90.2H630.14Zm6.82,0h33.25v15H637Zm0,37.9h30.15v14.95H637Zm0,37.29h33.25v15H637Z" transform="translate(-5.52)"/></g></g></svg>