<svg xmlns="http://www.w3.org/2000/svg" viewBox="0 0 461 111.52"><defs><style>.cls-1{fill:#e3051b;}</style></defs><g id="Capa_2" data-name="Capa 2"><g id="textos"><path class="cls-1" d="M6.69,22.32H25.32V131.58H6.69Zm8.72,49H34.72a7.09,7.09,0,0,0,3.91-1.06,6.76,6.76,0,0,0,2.55-3.08,11.76,11.76,0,0,0,.9-4.81V49.52a13.33,13.33,0,0,0-.86-5,6.86,6.86,0,0,0-2.52-3.2,7.12,7.12,0,0,0-4-1.09H15.41V22.32H35.24a31.2,31.2,0,0,1,13.91,2.85,19.7,19.7,0,0,1,8.79,8.38,27.47,27.47,0,0,1,3,13.27V65.23a25.88,25.88,0,0,1-3.05,13,19.87,19.87,0,0,1-8.83,8.19A31.3,31.3,0,0,1,35.24,89.2H15.41Z" transform="translate(-6.69 -21.19)"/><path class="cls-1" d="M66.29,22.24H84.55V131.58H66.29Zm8.34,45.24H94.32a9.35,9.35,0,0,0,4.17-.86,6.06,6.06,0,0,0,2.67-2.48,7.85,7.85,0,0,0,.9-3.87V48.09a9.48,9.48,0,0,0-.9-4.28,6.26,6.26,0,0,0-2.67-2.74,8.73,8.73,0,0,0-4.17-.94H74.63V22.24H93.19a35.93,35.93,0,0,1,15.14,2.9,21,21,0,0,1,9.58,8.49A25.84,25.84,0,0,1,121.22,47V59.82a27.15,27.15,0,0,1-3.31,13.79,21.33,21.33,0,0,1-9.62,8.75,34.73,34.73,0,0,1-15.1,3H74.63ZM89.81,82l17.06-3.46,17.43,53.05h-20Z" transform="translate(-6.69 -21.19)"/><path class="cls-1" d="M129.64,22.32h18.64V131.58H129.64Zm8.27,0h40.28V40.5H137.91Zm0,45.91h36.52V86.35H137.91Zm0,45.17h40.28v18.18H137.91Z" transform="translate(-6.69 -21.19)"/><path class="cls-1" d="M236.21,72.59v32.69A31.64,31.64,0,0,1,233,120a21.89,21.89,0,0,1-9.28,9.43,30.35,30.35,0,0,1-14.57,3.27,32.19,32.19,0,0,1-14.81-3.15,21.81,21.81,0,0,1-9.43-9.17A29.66,29.66,0,0,1,181.65,106V49.37a33.32,33.32,0,0,1,3.19-15.14,22.15,22.15,0,0,1,9.29-9.69A33.36,33.36,0,0,1,223,24.42a21.65,21.65,0,0,1,9.13,9.4,32,32,0,0,1,3.16,14.73V57H216.14V48.55a10.61,10.61,0,0,0-.9-4.55,6.51,6.51,0,0,0-2.59-2.93,7.5,7.5,0,0,0-4-1,8.14,8.14,0,0,0-4.32,1.13,7.29,7.29,0,0,0-2.81,3.23,11.58,11.58,0,0,0-1,5V106a8.14,8.14,0,0,0,1,4.1,6.61,6.61,0,0,0,3,2.7,10.42,10.42,0,0,0,4.59.94,10.56,10.56,0,0,0,4.69-1,6.92,6.92,0,0,0,3.05-2.86,9.09,9.09,0,0,0,1-4.51v-15h-9.17V72.59Z" transform="translate(-6.69 -21.19)"/><path class="cls-1" d="M251.28,129.44a21.49,21.49,0,0,1-9-9.47,33.07,33.07,0,0,1-3.08-14.84V22.32h18.71v83.34a9,9,0,0,0,2,6.2,6.81,6.81,0,0,0,5.41,2.21,7,7,0,0,0,5.52-2.21,9,9,0,0,0,2-6.2V22.32h18.71v82.81A32.8,32.8,0,0,1,288.41,120a21.69,21.69,0,0,1-9,9.47,31.84,31.84,0,0,1-28.11,0Z" transform="translate(-6.69 -21.19)"/><path class="cls-1" d="M296,22.32h14.65l25.7,72.89-2,2.93V22.32h17V131.51H336.54l-25.4-68.69,2-3v71.69H296Z" transform="translate(-6.69 -21.19)"/><path class="cls-1" d="M357.07,22.32h54.7V40.2h-54.7Zm18,9.17h18.64V131.58H375.1Z" transform="translate(-6.69 -21.19)"/><path class="cls-1" d="M428.54,22.32h13.07l26.08,109.26H449.2L435.07,60,421,131.58H402.46ZM420.2,97.17H450V114.6H420.2Z" transform="translate(-6.69 -21.19)"/></g></g></svg>