<svg xmlns="http://www.w3.org/2000/svg" viewBox="0 0 330.67 231.65"><defs><style>.cls-1{fill:#e3051b;}.cls-2{fill:#1d1d1b;}</style></defs><g id="Capa_2" data-name="Capa 2"><g id="textos"><path class="cls-1" d="M3.43,124.56H12V176H3.43Zm3.93,21.3h9.27a4.29,4.29,0,0,0,2-.41,2.9,2.9,0,0,0,1.26-1.16,3.75,3.75,0,0,0,.42-1.83v-5.73a4.48,4.48,0,0,0-.42-2,2.91,2.91,0,0,0-1.26-1.29,4.05,4.05,0,0,0-2-.45H7.36v-8.42H16.1a16.92,16.92,0,0,1,7.13,1.37,9.93,9.93,0,0,1,4.51,4,12.31,12.31,0,0,1,1.55,6.32v6a12.85,12.85,0,0,1-1.55,6.49,10.11,10.11,0,0,1-4.53,4.13,16.45,16.45,0,0,1-7.11,1.41H7.36Zm7.14,6.83,8-1.63,8.2,25H21.33Z" transform="translate(-2.77 -15.6)"/><path class="cls-1" d="M34.71,124.6h8.77V176H34.71Zm3.89,0h19v8.56h-19Zm0,21.61H55.79v8.53H38.6Zm0,21.27h19V176h-19Z" transform="translate(-2.77 -15.6)"/><path class="cls-1" d="M65.91,175.06a10.36,10.36,0,0,1-4.44-4.35,14.13,14.13,0,0,1-1.54-6.84v-2.76l8.74-.07v2.76a4.16,4.16,0,0,0,1.1,3.06,4.07,4.07,0,0,0,3,1.11,3.87,3.87,0,0,0,3-1.09,4.2,4.2,0,0,0,1-3v-4.49a3.92,3.92,0,0,0-.8-2.46A7.37,7.37,0,0,0,74,155.11c-.84-.5-2-1.11-3.42-1.82l-.26-.14A1.71,1.71,0,0,0,70,153l-.46-.22a29.55,29.55,0,0,1-4.88-3,12.52,12.52,0,0,1-3.36-4.16A13.6,13.6,0,0,1,60,139.25v-2.66a14.15,14.15,0,0,1,1.5-6.74,10.12,10.12,0,0,1,4.37-4.29,14.71,14.71,0,0,1,6.9-1.49,14.19,14.19,0,0,1,6.75,1.49,10,10,0,0,1,4.32,4.33,14.63,14.63,0,0,1,1.49,6.84v2.9l-8.74.11V136.8a4.44,4.44,0,0,0-1-3.09,3.61,3.61,0,0,0-2.81-1.12,4.1,4.1,0,0,0-3,1,3.72,3.72,0,0,0-1,2.78v3.43a4.15,4.15,0,0,0,.76,2.51,6.67,6.67,0,0,0,1.91,1.79c.77.48,1.83,1.07,3.2,1.75l.8.39.83.42.12.08.13.07a37.7,37.7,0,0,1,4.74,2.88,10.82,10.82,0,0,1,3.08,3.73,13.25,13.25,0,0,1,1.27,6.16v4.28a14.48,14.48,0,0,1-1.5,6.84,10.2,10.2,0,0,1-4.37,4.35,14.52,14.52,0,0,1-6.87,1.51A14.8,14.8,0,0,1,65.91,175.06Z" transform="translate(-2.77 -15.6)"/><path class="cls-1" d="M89.72,124.6h8.77V176H89.72Zm4.1,23.07h9.1a3.32,3.32,0,0,0,1.83-.5,3.23,3.23,0,0,0,1.21-1.45,5.59,5.59,0,0,0,.42-2.26v-6.05A6.25,6.25,0,0,0,106,135a3.25,3.25,0,0,0-1.19-1.51,3.33,3.33,0,0,0-1.87-.51h-9.1V124.6h9.34a14.77,14.77,0,0,1,6.55,1.34,9.36,9.36,0,0,1,4.14,3.95,12.9,12.9,0,0,1,1.41,6.24v8.67a12.23,12.23,0,0,1-1.43,6.1,9.38,9.38,0,0,1-4.16,3.86,14.76,14.76,0,0,1-6.51,1.32H93.82Z" transform="translate(-2.77 -15.6)"/><path class="cls-1" d="M125.29,175.14a10.24,10.24,0,0,1-4.51-4.14,12.88,12.88,0,0,1-1.55-6.53v-28.3a13,13,0,0,1,1.55-6.55,10.13,10.13,0,0,1,4.51-4.14,18.56,18.56,0,0,1,14.19,0,10.13,10.13,0,0,1,4.51,4.14,13,13,0,0,1,1.56,6.55v28.3A12.88,12.88,0,0,1,144,171a10.24,10.24,0,0,1-4.51,4.14,18.32,18.32,0,0,1-14.19,0Zm9.41-7.88a3.43,3.43,0,0,0,1.47-1.52,5.32,5.32,0,0,0,.5-2.4V137.23a5.25,5.25,0,0,0-.5-2.37,3.43,3.43,0,0,0-1.47-1.52,4.69,4.69,0,0,0-2.31-.53,4.58,4.58,0,0,0-2.3.53,3.44,3.44,0,0,0-1.45,1.52,5.25,5.25,0,0,0-.5,2.37v26.11a5.32,5.32,0,0,0,.5,2.4,3.44,3.44,0,0,0,1.45,1.52,4.58,4.58,0,0,0,2.3.53A4.69,4.69,0,0,0,134.7,167.26Z" transform="translate(-2.77 -15.6)"/><path class="cls-1" d="M149.69,124.6h6.89l12.1,34.32-1,1.37V124.6h8V176h-7L156.8,143.67l.92-1.42V176h-8Z" transform="translate(-2.77 -15.6)"/><path class="cls-1" d="M180.57,124.6h8.78V176h-8.78Zm5.84,43H193a3.43,3.43,0,0,0,2.72-1.08,4.41,4.41,0,0,0,1-3V137.12a4.4,4.4,0,0,0-1-3A3.43,3.43,0,0,0,193,133h-6.58V124.6h7.46a13.47,13.47,0,0,1,6.3,1.36,9.27,9.27,0,0,1,4,4,13.12,13.12,0,0,1,1.38,6.21V164.5a13.06,13.06,0,0,1-1.38,6.21,9.23,9.23,0,0,1-4,4,13.67,13.67,0,0,1-6.31,1.36h-7.43Z" transform="translate(-2.77 -15.6)"/><path class="cls-1" d="M217.75,176H209V124.6h8.77Z" transform="translate(-2.77 -15.6)"/><path class="cls-1" d="M221.89,124.6h8.78V176h-8.78Zm3.9,0h19v8.56h-19Zm0,21.61H243v8.53H225.79Zm0,21.27h19V176h-19Z" transform="translate(-2.77 -15.6)"/><path class="cls-1" d="M247.83,124.6h6.9l12.09,34.32-.95,1.37V124.6h8V176h-7l-12-32.33.92-1.42V176h-8Z" transform="translate(-2.77 -15.6)"/><path class="cls-1" d="M278.71,124.6h8.78V176h-8.78Zm5.84,43h6.58a3.43,3.43,0,0,0,2.72-1.08,4.41,4.41,0,0,0,1-3V137.12a4.4,4.4,0,0,0-1-3,3.43,3.43,0,0,0-2.72-1.08h-6.58V124.6H292a13.45,13.45,0,0,1,6.3,1.36,9.27,9.27,0,0,1,4,4,13.12,13.12,0,0,1,1.38,6.21V164.5a13.06,13.06,0,0,1-1.38,6.21,9.23,9.23,0,0,1-4,4A13.67,13.67,0,0,1,292,176h-7.43Z" transform="translate(-2.77 -15.6)"/><path class="cls-1" d="M313.19,175.14a10.24,10.24,0,0,1-4.51-4.14,12.88,12.88,0,0,1-1.56-6.53v-28.3a13,13,0,0,1,1.56-6.55,10.13,10.13,0,0,1,4.51-4.14,18.56,18.56,0,0,1,14.19,0,10.18,10.18,0,0,1,4.51,4.14,13.09,13.09,0,0,1,1.55,6.55v28.3a13,13,0,0,1-1.55,6.53,10.3,10.3,0,0,1-4.51,4.14,18.32,18.32,0,0,1-14.19,0Zm9.41-7.88a3.43,3.43,0,0,0,1.47-1.52,5.32,5.32,0,0,0,.49-2.4V137.23a5.25,5.25,0,0,0-.49-2.37,3.43,3.43,0,0,0-1.47-1.52,4.71,4.71,0,0,0-2.32-.53,4.63,4.63,0,0,0-2.3.53,3.49,3.49,0,0,0-1.45,1.52,5.25,5.25,0,0,0-.49,2.37v26.11a5.32,5.32,0,0,0,.49,2.4,3.49,3.49,0,0,0,1.45,1.52,4.63,4.63,0,0,0,2.3.53A4.71,4.71,0,0,0,322.6,167.26Z" transform="translate(-2.77 -15.6)"/><path class="cls-2" d="M5.21,16.43H18.93V96.87H5.21Zm6.14,0H41V29.6H11.35Zm0,34.63H38.24V64.23H11.35Z" transform="translate(-2.77 -15.6)"/><path class="cls-2" d="M54.5,16.43h9.63l19.2,80.44H69.72L59.32,44.15,48.92,96.87H35.31Zm-6.14,55.1H70.27V84.37H48.36Z" transform="translate(-2.77 -15.6)"/><path class="cls-2" d="M87,16.43h13.72V96.87H87Zm5.64,67.28h29V96.87h-29Z" transform="translate(-2.77 -15.6)"/><path class="cls-2" d="M126.48,16.43H140.2V96.87H126.48Zm5.65,67.28h29V96.87h-29Z" transform="translate(-2.77 -15.6)"/><path class="cls-2" d="M182.36,16.43H192l19.2,80.44H197.58l-10.4-52.72-10.4,52.72H163.17Zm-6.14,55.1h21.91V84.37H176.22Z" transform="translate(-2.77 -15.6)"/><path class="cls-2" d="M218.71,95.35a16.21,16.21,0,0,1-6.94-6.8,22.29,22.29,0,0,1-2.41-10.71V73.53L223,73.42v4.31a6.52,6.52,0,0,0,1.72,4.79,6.35,6.35,0,0,0,4.75,1.74,6.06,6.06,0,0,0,4.62-1.72,6.52,6.52,0,0,0,1.63-4.7v-7A6.16,6.16,0,0,0,234.51,67a11.32,11.32,0,0,0-3.21-2.82q-2-1.19-5.34-2.85c-.15-.07-.28-.15-.41-.22a4.13,4.13,0,0,0-.42-.22l-.72-.34a46.07,46.07,0,0,1-7.63-4.73,19.45,19.45,0,0,1-5.26-6.5,21.38,21.38,0,0,1-2.1-9.95V35.19a22,22,0,0,1,2.35-10.54,15.77,15.77,0,0,1,6.83-6.72,23.2,23.2,0,0,1,10.79-2.33A22.44,22.44,0,0,1,240,17.93a15.6,15.6,0,0,1,6.75,6.77A22.89,22.89,0,0,1,249,35.41v4.53l-13.66.17V35.52a7,7,0,0,0-1.58-4.84,5.64,5.64,0,0,0-4.4-1.74,6.39,6.39,0,0,0-4.62,1.57,5.75,5.75,0,0,0-1.63,4.34v5.37a6.6,6.6,0,0,0,1.19,3.93,10.37,10.37,0,0,0,3,2.79q1.8,1.14,5,2.74c.41.19.82.39,1.25.61l1.3.66.19.11.2.12a61,61,0,0,1,7.41,4.5,16.85,16.85,0,0,1,4.81,5.84,20.48,20.48,0,0,1,2,9.63v6.69a22.64,22.64,0,0,1-2.35,10.71,15.85,15.85,0,0,1-6.83,6.8,22.78,22.78,0,0,1-10.73,2.35A23.29,23.29,0,0,1,218.71,95.35Z" transform="translate(-2.77 -15.6)"/><path class="cls-2" d="M251.52,16.43H291.8V29.6H251.52Zm13.28,6.75h13.72V96.87H264.8Z" transform="translate(-2.77 -15.6)"/><path class="cls-2" d="M296.06,16.43h13.72V96.87H296.06Zm6.09,0H331.8V29.82H302.15Zm0,33.8H329V63.57H302.15Zm0,33.25H331.8V96.87H302.15Z" transform="translate(-2.77 -15.6)"/><path class="cls-2" d="M7.79,245.89A9,9,0,0,1,4.06,242a13.82,13.82,0,0,1-1.29-6.23V212.55a13.82,13.82,0,0,1,1.29-6.23,9.06,9.06,0,0,1,3.73-3.94A11.88,11.88,0,0,1,13.64,201a12,12,0,0,1,5.88,1.36,8.84,8.84,0,0,1,3.72,4,14.11,14.11,0,0,1,1.27,6.25v3.64H16.7v-3.64a5.21,5.21,0,0,0-.35-2,2.75,2.75,0,0,0-1-1.3,3,3,0,0,0-1.67-.45,3,3,0,0,0-1.62.44,2.73,2.73,0,0,0-1,1.28,5,5,0,0,0-.36,2v23.17a4.93,4.93,0,0,0,.36,2A2.78,2.78,0,0,0,12,239a3,3,0,0,0,1.62.44,3.1,3.1,0,0,0,1.69-.44,2.68,2.68,0,0,0,1-1.26,5.21,5.21,0,0,0,.35-2v-3.64h7.81v3.64a14.11,14.11,0,0,1-1.27,6.25,8.84,8.84,0,0,1-3.72,3.95,11.91,11.91,0,0,1-5.88,1.36A11.77,11.77,0,0,1,7.79,245.89Z" transform="translate(-2.77 -15.6)"/><path class="cls-2" d="M32.26,246a8.91,8.91,0,0,1-4-3.65,11.27,11.27,0,0,1-1.38-5.74V211.68a11.38,11.38,0,0,1,1.38-5.77,8.78,8.78,0,0,1,4-3.64A14.32,14.32,0,0,1,38.5,201a14.39,14.39,0,0,1,6.25,1.25,8.83,8.83,0,0,1,4,3.64,11.48,11.48,0,0,1,1.37,5.77V236.6a11.37,11.37,0,0,1-1.37,5.74,9,9,0,0,1-4,3.65,14.25,14.25,0,0,1-6.25,1.26A14.17,14.17,0,0,1,32.26,246Zm8.28-6.93a3,3,0,0,0,1.29-1.34,4.58,4.58,0,0,0,.44-2.12v-23a4.54,4.54,0,0,0-.44-2.09,3.09,3.09,0,0,0-1.29-1.34,4.21,4.21,0,0,0-2-.46,4.1,4.1,0,0,0-2,.46,3.12,3.12,0,0,0-1.28,1.34,4.67,4.67,0,0,0-.44,2.09v23a4.71,4.71,0,0,0,.44,2.12,3.07,3.07,0,0,0,1.28,1.34,4.1,4.1,0,0,0,2,.46A4.21,4.21,0,0,0,40.54,239.06Z" transform="translate(-2.77 -15.6)"/><path class="cls-2" d="M53.74,201.46h7.57v45.32H53.74Zm3.45,18.75h8.16a3.84,3.84,0,0,0,1.73-.36,2.5,2.5,0,0,0,1.11-1,3.27,3.27,0,0,0,.37-1.61v-5a3.93,3.93,0,0,0-.37-1.78,2.55,2.55,0,0,0-1.11-1.14,3.59,3.59,0,0,0-1.73-.39H57.19v-7.41h7.7a14.86,14.86,0,0,1,6.27,1.2,8.72,8.72,0,0,1,4,3.52,10.79,10.79,0,0,1,1.37,5.56V217a11.32,11.32,0,0,1-1.37,5.72,8.91,8.91,0,0,1-4,3.63,14.47,14.47,0,0,1-6.26,1.24h-7.7Zm6.3,6,7.07-1.43,7.22,22H69.5Z" transform="translate(-2.77 -15.6)"/><path class="cls-2" d="M81.27,201.46h7.57v45.32H81.27Zm3.46,18.75h8.16a3.87,3.87,0,0,0,1.73-.36,2.5,2.5,0,0,0,1.11-1,3.27,3.27,0,0,0,.37-1.61v-5a3.93,3.93,0,0,0-.37-1.78,2.55,2.55,0,0,0-1.11-1.14,3.62,3.62,0,0,0-1.73-.39H84.73v-7.41h7.69a14.91,14.91,0,0,1,6.28,1.2,8.7,8.7,0,0,1,4,3.52,10.69,10.69,0,0,1,1.37,5.56V217a11.22,11.22,0,0,1-1.37,5.72,8.84,8.84,0,0,1-4,3.63,14.52,14.52,0,0,1-6.27,1.24H84.73Zm6.29,6,7.07-1.43,7.23,22H97Z" transform="translate(-2.77 -15.6)"/><path class="cls-2" d="M108.81,201.49h7.73v45.29h-7.73Zm3.43,0h16.69V209H112.24Zm0,19h15.14V228H112.24Zm0,18.72h16.69v7.54H112.24Z" transform="translate(-2.77 -15.6)"/><path class="cls-2" d="M136.66,245.89a8.93,8.93,0,0,1-3.72-3.94,13.82,13.82,0,0,1-1.3-6.23V212.55a13.82,13.82,0,0,1,1.3-6.23,9,9,0,0,1,3.72-3.94,13.33,13.33,0,0,1,11.73,0,8.84,8.84,0,0,1,3.72,4,14.1,14.1,0,0,1,1.28,6.25v3.64h-7.82v-3.64a5.41,5.41,0,0,0-.34-2,2.77,2.77,0,0,0-1-1.3,3,3,0,0,0-1.66-.45,2.93,2.93,0,0,0-1.62.44,2.69,2.69,0,0,0-1.05,1.28,5,5,0,0,0-.36,2v23.17a4.93,4.93,0,0,0,.36,2A2.73,2.73,0,0,0,140.9,239a2.93,2.93,0,0,0,1.62.44,3.09,3.09,0,0,0,1.68-.44,2.7,2.7,0,0,0,1-1.26,5.41,5.41,0,0,0,.34-2v-3.64h7.82v3.64a14.1,14.1,0,0,1-1.28,6.25,8.84,8.84,0,0,1-3.72,3.95,13.33,13.33,0,0,1-11.73,0Z" transform="translate(-2.77 -15.6)"/><path class="cls-2" d="M153.92,201.49h22.67v7.41H153.92Zm7.47,3.8h7.73v41.49h-7.73Z" transform="translate(-2.77 -15.6)"/><path class="cls-2" d="M184.82,201.49h5.42l10.81,45.29h-7.66l-5.86-29.68-5.86,29.68H174Zm-3.46,31H193.7v7.22H181.36Z" transform="translate(-2.77 -15.6)"/><path class="cls-2" d="M225.75,201.49H233v45.29h-6.89V215.17l.47,2L220,238.78h-3.86l-6.58-21,.63-2.61v31.61h-7V201.49h7.41l7.51,24.61Z" transform="translate(-2.77 -15.6)"/><path class="cls-2" d="M237.25,201.49H245v45.29h-7.72Zm3.42,0h16.7V209h-16.7Zm0,19h15.14V228H240.67Zm0,18.72h16.7v7.54h-16.7Z" transform="translate(-2.77 -15.6)"/><path class="cls-2" d="M260.08,201.49h6.07l10.66,30.22-.84,1.21V201.49h7v45.26h-6.14l-10.53-28.47.81-1.25v29.72h-7.07Z" transform="translate(-2.77 -15.6)"/><path class="cls-2" d="M286.65,201.49h22.68v7.41H286.65Zm7.48,3.8h7.72v41.49h-7.72Z" transform="translate(-2.77 -15.6)"/><path class="cls-2" d="M311.73,201.49h7.72v45.29h-7.72Zm3.42,0h16.7V209h-16.7Zm0,19h15.14V228H315.15Zm0,18.72h16.7v7.54h-16.7Z" transform="translate(-2.77 -15.6)"/></g></g></svg>