<svg xmlns="http://www.w3.org/2000/svg" viewBox="0 0 819 236"><defs><style>.cls-1{fill:#e3051b;}.cls-2{fill:#fff;}</style></defs><g id="Capa_2" data-name="Capa 2"><g id="textos"><rect class="cls-1" width="819" height="236"/><path class="cls-2" d="M80.37,59.64h4.07V95.16H80.37Zm2.17,16.68h6.57a5.11,5.11,0,0,0,2.41-.53,3.58,3.58,0,0,0,1.54-1.54,5,5,0,0,0,.54-2.4V68.19a5.7,5.7,0,0,0-.53-2.54A3.61,3.61,0,0,0,91.54,64a5.13,5.13,0,0,0-2.43-.54H82.54V59.64h6.23a11.37,11.37,0,0,1,4.81.94,6.77,6.77,0,0,1,3,2.76,8.58,8.58,0,0,1,1.05,4.36v4.15a9.13,9.13,0,0,1-1,4.48,6.78,6.78,0,0,1-3,2.84,11,11,0,0,1-4.82,1H82.54Zm6.71,2.73L93,77.93l5.67,17.23H94.09Z"/><path class="cls-2" d="M104.28,94.54a6.46,6.46,0,0,1-2.63-2.88,10.23,10.23,0,0,1-.92-4.55V78.29a11.87,11.87,0,0,1,.89-4.81,6.64,6.64,0,0,1,2.58-3,7.49,7.49,0,0,1,4-1.05,8.12,8.12,0,0,1,4.11,1,6.28,6.28,0,0,1,2.59,2.8,10.19,10.19,0,0,1,.89,4.49V84.1h-12.4V80.56h8.42V77.73a5.39,5.39,0,0,0-.94-3.4,3.17,3.17,0,0,0-2.67-1.21,3,3,0,0,0-2.61,1.28,6.08,6.08,0,0,0-.93,3.63v9.2a5,5,0,0,0,1,3.31,3.36,3.36,0,0,0,2.75,1.18,3.53,3.53,0,0,0,2.59-.91,3.41,3.41,0,0,0,.91-2.58v-.17l4,0v.15a7.21,7.21,0,0,1-2,5.4,7.57,7.57,0,0,1-5.52,1.9A8.24,8.24,0,0,1,104.28,94.54Z"/><path class="cls-2" d="M122.07,94.66a5.77,5.77,0,0,1-2.6-2.57,8.81,8.81,0,0,1-.89-4.15v-.1h3.9v.1a4.22,4.22,0,0,0,1,3,3.65,3.65,0,0,0,2.8,1A3.71,3.71,0,0,0,129,91a4,4,0,0,0,.95-2.85,3.23,3.23,0,0,0-.45-1.77,3.29,3.29,0,0,0-1.21-1.1,18.49,18.49,0,0,0-2-.86l-.27-.06-.29-.09a.73.73,0,0,0-.19-.07l-.2-.05a21.66,21.66,0,0,1-3.31-1.4,6.13,6.13,0,0,1-2.22-2.17,7,7,0,0,1-.92-3.8,8.92,8.92,0,0,1,.83-4,5.7,5.7,0,0,1,2.43-2.5,8.2,8.2,0,0,1,3.9-.86,8.49,8.49,0,0,1,3.9.81,5.45,5.45,0,0,1,2.42,2.4,8.45,8.45,0,0,1,.83,3.9v.07h-3.9v-.1a3.77,3.77,0,0,0-.82-2.62,3.13,3.13,0,0,0-2.43-.89,3,3,0,0,0-2.41,1,4.13,4.13,0,0,0-.81,2.76,3.31,3.31,0,0,0,.51,1.93,3.55,3.55,0,0,0,1.37,1.16,15.39,15.39,0,0,0,2.19.84l.14,0,.13,0a.19.19,0,0,0,.09,0l.08,0a21.22,21.22,0,0,1,3.41,1.3A5.82,5.82,0,0,1,133,84.13a7.42,7.42,0,0,1,.93,4,8.44,8.44,0,0,1-.88,4,5.8,5.8,0,0,1-2.6,2.51,9.34,9.34,0,0,1-4.19.85A9.12,9.12,0,0,1,122.07,94.66Z"/><path class="cls-2" d="M136.82,69.82h4.07v35.65h-4.07Zm5.72,24.55a5.84,5.84,0,0,1-2-3.18l.34-3.89a6.55,6.55,0,0,0,.42,2.49,3.29,3.29,0,0,0,1.21,1.57,3.37,3.37,0,0,0,1.91.53,3.13,3.13,0,0,0,2.65-1.23,5.55,5.55,0,0,0,.94-3.45V77.59a5.32,5.32,0,0,0-.94-3.37,3.16,3.16,0,0,0-2.65-1.2,3.45,3.45,0,0,0-1.91.51,3.18,3.18,0,0,0-1.21,1.53,6.33,6.33,0,0,0-.42,2.43L140.38,74a7.15,7.15,0,0,1,2.33-3.42,5.54,5.54,0,0,1,3.46-1.22,5.3,5.3,0,0,1,3.18,1,5.79,5.79,0,0,1,2,2.75,12.63,12.63,0,0,1,.68,4.4v9.79a12.39,12.39,0,0,1-.72,4.47,6.06,6.06,0,0,1-2.09,2.82,5.63,5.63,0,0,1-3.32,1A5.29,5.29,0,0,1,142.54,94.37Z"/><path class="cls-2" d="M158.8,94.66a5.74,5.74,0,0,1-2.5-2.52,8.63,8.63,0,0,1-.86-4V76.63a8.27,8.27,0,0,1,.86-3.91,5.71,5.71,0,0,1,2.5-2.48,8.45,8.45,0,0,1,3.94-.86,8.31,8.31,0,0,1,3.92.86,5.71,5.71,0,0,1,2.48,2.48,8.27,8.27,0,0,1,.86,3.91v11.6a8.45,8.45,0,0,1-.86,3.94,5.73,5.73,0,0,1-2.48,2.51,9.41,9.41,0,0,1-7.86,0Zm6.28-3.94a3.61,3.61,0,0,0,.84-2.56V76.71a3.53,3.53,0,0,0-.86-2.52,3.1,3.1,0,0,0-2.36-.9,3,3,0,0,0-2.34.9,3.57,3.57,0,0,0-.84,2.52V88.16a3.65,3.65,0,0,0,.83,2.56,3,3,0,0,0,2.35.9A3.12,3.12,0,0,0,165.08,90.72Z"/><path class="cls-2" d="M173.88,69.82H178V95.16h-4.08Zm11.4,7.6a4.79,4.79,0,0,0-.9-3.18,3.47,3.47,0,0,0-2.76-1,3.37,3.37,0,0,0-2.75,1.12,5.35,5.35,0,0,0-.91,3.42l-.52-3.63a7.58,7.58,0,0,1,2.37-3.54,5.58,5.58,0,0,1,3.54-1.18,5.45,5.45,0,0,1,4.49,1.87,8.6,8.6,0,0,1,1.52,5.51v18.4h-4.08Z"/><path class="cls-2" d="M196,94.71A5.49,5.49,0,0,1,194,92.1a10.57,10.57,0,0,1-.71-4.09V77.24A11.22,11.22,0,0,1,194,73a5.79,5.79,0,0,1,2-2.7,5.43,5.43,0,0,1,3.21-.93,5.15,5.15,0,0,1,3.29,1.18,8.39,8.39,0,0,1,2.42,3.29l-.51,3.54a5.81,5.81,0,0,0-.42-2.33,3.25,3.25,0,0,0-1.21-1.48,3.47,3.47,0,0,0-1.91-.51,3.16,3.16,0,0,0-2.62,1.15,5,5,0,0,0-.92,3.2V87.91a4.37,4.37,0,0,0,.92,3,3.31,3.31,0,0,0,2.62,1,3.55,3.55,0,0,0,1.91-.5A3.22,3.22,0,0,0,204,90a5.51,5.51,0,0,0,.42-2.27l.34,3.47a6.82,6.82,0,0,1-2.15,3.25,5.2,5.2,0,0,1-3.39,1.16A5.59,5.59,0,0,1,196,94.71Zm8.4-35h4.07V95.16H204.4Z"/><path class="cls-2" d="M215.91,94.54a6.48,6.48,0,0,1-2.64-2.88,10.37,10.37,0,0,1-.91-4.55V78.29a11.7,11.7,0,0,1,.89-4.81,6.68,6.68,0,0,1,2.57-3,7.55,7.55,0,0,1,4.06-1.05,8.12,8.12,0,0,1,4.11,1,6.34,6.34,0,0,1,2.59,2.8,10.33,10.33,0,0,1,.89,4.49V84.1h-12.4V80.56h8.42V77.73a5.39,5.39,0,0,0-.94-3.4,3.18,3.18,0,0,0-2.67-1.21,3.05,3.05,0,0,0-2.62,1.28,6.09,6.09,0,0,0-.92,3.63v9.2a5.06,5.06,0,0,0,1,3.31,3.37,3.37,0,0,0,2.76,1.18,3.53,3.53,0,0,0,2.59-.91,3.37,3.37,0,0,0,.9-2.58v-.17l4,0v.15a7.21,7.21,0,0,1-1.95,5.4,7.57,7.57,0,0,1-5.52,1.9A8.21,8.21,0,0,1,215.91,94.54Z"/><path class="cls-2" d="M243.51,94.64a6,6,0,0,1-2.61-2.59A8.61,8.61,0,0,1,240,88V77.32a9.38,9.38,0,0,1,.9-4.29,6.29,6.29,0,0,1,2.62-2.71,8.61,8.61,0,0,1,4.14-.94,8.75,8.75,0,0,1,4.18.94,6.25,6.25,0,0,1,2.63,2.73,9.45,9.45,0,0,1,.91,4.32v.51h-4v-.51a4.5,4.5,0,0,0-1-3.09,3.93,3.93,0,0,0-5.42,0,4.36,4.36,0,0,0-1,3V88a3.85,3.85,0,0,0,1,2.79,4.25,4.25,0,0,0,5.45,0,3.85,3.85,0,0,0,.95-2.85v-.51l4,0v.48a8.73,8.73,0,0,1-.91,4.16,6.18,6.18,0,0,1-2.65,2.61,9,9,0,0,1-4.2.9A8.93,8.93,0,0,1,243.51,94.64Z"/><path class="cls-2" d="M261.2,94.66a5.74,5.74,0,0,1-2.5-2.52,8.63,8.63,0,0,1-.86-4V76.63a8.27,8.27,0,0,1,.86-3.91,5.71,5.71,0,0,1,2.5-2.48,8.45,8.45,0,0,1,3.94-.86,8.31,8.31,0,0,1,3.92.86,5.77,5.77,0,0,1,2.48,2.48,8.27,8.27,0,0,1,.85,3.91v11.6a8.45,8.45,0,0,1-.85,3.94,5.78,5.78,0,0,1-2.48,2.51,9.41,9.41,0,0,1-7.86,0Zm6.27-3.94a3.57,3.57,0,0,0,.85-2.56V76.71a3.53,3.53,0,0,0-.86-2.52,3.11,3.11,0,0,0-2.37-.9,3,3,0,0,0-2.33.9,3.57,3.57,0,0,0-.84,2.52V88.16a3.65,3.65,0,0,0,.83,2.56,3,3,0,0,0,2.34.9A3.09,3.09,0,0,0,267.47,90.72Z"/><path class="cls-2" d="M276.28,69.82h4.07V95.16h-4.07Zm11.36,3.52h-.28a7.58,7.58,0,0,0-5.05,1.54,5.62,5.62,0,0,0-2,4.27l-.51-4.91a9.89,9.89,0,0,1,3.42-3.58,8.73,8.73,0,0,1,4.61-1.28v4Z"/><path class="cls-2" d="M290.9,69.82H295V95.16H290.9Zm11.37,3.52H302a7.61,7.61,0,0,0-5.06,1.54A5.61,5.61,0,0,0,295,79.15l-.51-4.91a9.79,9.79,0,0,1,3.41-3.58,8.74,8.74,0,0,1,4.62-1.28v4Z"/><path class="cls-2" d="M308.1,94.54a6.46,6.46,0,0,1-2.63-2.88,10.23,10.23,0,0,1-.92-4.55V78.29a11.87,11.87,0,0,1,.89-4.81,6.7,6.7,0,0,1,2.58-3,7.49,7.49,0,0,1,4.05-1.05,8.12,8.12,0,0,1,4.11,1,6.28,6.28,0,0,1,2.59,2.8,10.19,10.19,0,0,1,.89,4.49V84.1h-12.4V80.56h8.42V77.73a5.39,5.39,0,0,0-.94-3.4,3.17,3.17,0,0,0-2.67-1.21,3,3,0,0,0-2.61,1.28,6.08,6.08,0,0,0-.93,3.63v9.2a5,5,0,0,0,1,3.31,3.36,3.36,0,0,0,2.75,1.18,3.53,3.53,0,0,0,2.59-.91,3.41,3.41,0,0,0,.91-2.58v-.17l4,0v.15a7.21,7.21,0,0,1-2,5.4,7.57,7.57,0,0,1-5.52,1.9A8.24,8.24,0,0,1,308.1,94.54Z"/><path class="cls-2" d="M326.65,94.64A6.07,6.07,0,0,1,324,92.05a8.61,8.61,0,0,1-.9-4.09V77.32A9.38,9.38,0,0,1,324,73a6.26,6.26,0,0,1,2.63-2.71,8.58,8.58,0,0,1,4.14-.94,8.73,8.73,0,0,1,4.17.94,6.22,6.22,0,0,1,2.64,2.73,9.45,9.45,0,0,1,.9,4.32v.51h-3.95v-.51a4.5,4.5,0,0,0-1-3.09,3.93,3.93,0,0,0-5.42,0,4.41,4.41,0,0,0-1,3V88a3.81,3.81,0,0,0,1,2.79,4.23,4.23,0,0,0,5.44,0,3.89,3.89,0,0,0,1-2.85v-.51l4,0v.48a8.61,8.61,0,0,1-.92,4.16A6.21,6.21,0,0,1,335,94.63a9,9,0,0,1-4.2.9A8.9,8.9,0,0,1,326.65,94.64Z"/><path class="cls-2" d="M339.51,69.82h10.94v3.84H339.51Zm4,23.77a7.63,7.63,0,0,1-1.42-5V62.45h4.07V88.6a3.29,3.29,0,0,0,.6,2.11,2.13,2.13,0,0,0,1.77.74h1.88v3.84h-2.39A5.6,5.6,0,0,1,343.55,93.59Z"/><path class="cls-2" d="M354.85,93.76a7.67,7.67,0,0,1-1.62-5.33q0-4.28,2-6.39t5.86-2.11H365l.35,3.34h-4.23a3.57,3.57,0,0,0-3,1.29,6.2,6.2,0,0,0-1,3.87,3.88,3.88,0,0,0,.89,2.82,3.6,3.6,0,0,0,2.7.91,3.94,3.94,0,0,0,3.06-1.1,4.73,4.73,0,0,0,1-3.32l.52,2.22a7.23,7.23,0,0,1-.65,3.1,4,4,0,0,1-1.84,1.86,6.84,6.84,0,0,1-3.08.61A6.2,6.2,0,0,1,354.85,93.76Zm9.88-17.15A3.39,3.39,0,0,0,361,72.87a3.11,3.11,0,0,0-2.44,1,4,4,0,0,0-.86,2.78l-3.95,0a7.1,7.1,0,0,1,1.93-5.33,7.4,7.4,0,0,1,5.44-1.9,8.84,8.84,0,0,1,4.05.86,5.88,5.88,0,0,1,2.57,2.46,8.15,8.15,0,0,1,.88,3.91V95.16h-3.89Z"/><path class="cls-2" d="M373,69.82h4.07V95.16H373Zm10.93,7.6a5.32,5.32,0,0,0-.78-3.18,2.8,2.8,0,0,0-2.41-1A3.32,3.32,0,0,0,378,74.33a5.38,5.38,0,0,0-.92,3.43l-.51-3.66a7.88,7.88,0,0,1,2.37-3.54,5.5,5.5,0,0,1,3.54-1.18,5.41,5.41,0,0,1,3.05.83,5.08,5.08,0,0,1,1.88,2.47,11.32,11.32,0,0,1,.64,4V95.16h-4.11Zm11,0a4.73,4.73,0,0,0-.92-3.18,3.46,3.46,0,0,0-2.75-1,2.71,2.71,0,0,0-2.41,1.14,6.08,6.08,0,0,0-.78,3.43l-.83-3.35a7.11,7.11,0,0,1,2.22-3.76A5.41,5.41,0,0,1,393,69.38a6.18,6.18,0,0,1,3.31.83,5.22,5.22,0,0,1,2,2.48,10.79,10.79,0,0,1,.68,4.07v18.4h-4.07Z"/><path class="cls-2" d="M406.4,94.54a6.48,6.48,0,0,1-2.64-2.88,10.37,10.37,0,0,1-.91-4.55V78.29a11.7,11.7,0,0,1,.89-4.81,6.68,6.68,0,0,1,2.57-3,7.55,7.55,0,0,1,4.06-1.05,8.12,8.12,0,0,1,4.11,1,6.34,6.34,0,0,1,2.59,2.8,10.33,10.33,0,0,1,.89,4.49V84.1h-12.4V80.56H414V77.73a5.39,5.39,0,0,0-.94-3.4,3.18,3.18,0,0,0-2.67-1.21,3.05,3.05,0,0,0-2.62,1.28,6.09,6.09,0,0,0-.92,3.63v9.2a5.06,5.06,0,0,0,1,3.31,3.37,3.37,0,0,0,2.76,1.18,3.53,3.53,0,0,0,2.59-.91,3.37,3.37,0,0,0,.9-2.58v-.17l4,0v.15a7.21,7.21,0,0,1-1.95,5.4,7.57,7.57,0,0,1-5.52,1.9A8.21,8.21,0,0,1,406.4,94.54Z"/><path class="cls-2" d="M421.91,69.82H426V95.16h-4.08Zm11.41,7.6a4.79,4.79,0,0,0-.91-3.18,3.44,3.44,0,0,0-2.76-1,3.35,3.35,0,0,0-2.74,1.12,5.35,5.35,0,0,0-.92,3.42l-.51-3.63a7.58,7.58,0,0,1,2.37-3.54,5.58,5.58,0,0,1,3.54-1.18,5.46,5.46,0,0,1,4.49,1.87,8.6,8.6,0,0,1,1.51,5.51v18.4h-4.07Z"/><path class="cls-2" d="M439.81,69.82h10.94v3.84H439.81Zm4,23.77a7.63,7.63,0,0,1-1.43-5V62.45h4.08V88.6a3.29,3.29,0,0,0,.6,2.11,2.13,2.13,0,0,0,1.77.74h1.88v3.84h-2.39A5.57,5.57,0,0,1,443.85,93.59Z"/><path class="cls-2" d="M457,94.54a6.46,6.46,0,0,1-2.63-2.88,10.23,10.23,0,0,1-.92-4.55V78.29a11.87,11.87,0,0,1,.89-4.81,6.7,6.7,0,0,1,2.58-3,7.49,7.49,0,0,1,4.05-1.05,8.12,8.12,0,0,1,4.11,1,6.28,6.28,0,0,1,2.59,2.8,10.19,10.19,0,0,1,.89,4.49V84.1h-12.4V80.56h8.42V77.73a5.39,5.39,0,0,0-.94-3.4,3.16,3.16,0,0,0-2.67-1.21,3,3,0,0,0-2.61,1.28,6.08,6.08,0,0,0-.93,3.63v9.2a5,5,0,0,0,1,3.31,3.37,3.37,0,0,0,2.76,1.18,3.52,3.52,0,0,0,2.58-.91,3.41,3.41,0,0,0,.91-2.58v-.17l4,0v.15a7.21,7.21,0,0,1-2,5.4,7.56,7.56,0,0,1-5.51,1.9A8.25,8.25,0,0,1,457,94.54Z"/><path class="cls-2" d="M485.61,88.48a3.29,3.29,0,0,0,.6,2.11,2.08,2.08,0,0,0,1.7.74h1.51v3.83h-1.95a5.52,5.52,0,0,1-4.38-1.75,7.24,7.24,0,0,1-1.55-5V59.67h4.07Z"/><path class="cls-2" d="M493.09,93.76a7.67,7.67,0,0,1-1.62-5.33c0-2.85.66-5,2-6.39s3.25-2.11,5.86-2.11h3.9l.35,3.34h-4.23a3.57,3.57,0,0,0-3,1.29,6.2,6.2,0,0,0-1,3.87,3.88,3.88,0,0,0,.89,2.82,3.6,3.6,0,0,0,2.7.91,3.94,3.94,0,0,0,3.06-1.1,4.73,4.73,0,0,0,1-3.32l.52,2.22a7.08,7.08,0,0,1-.65,3.1A4,4,0,0,1,501,94.92a6.84,6.84,0,0,1-3.08.61A6.2,6.2,0,0,1,493.09,93.76ZM503,76.61a3.39,3.39,0,0,0-3.73-3.74,3.11,3.11,0,0,0-2.44,1,4,4,0,0,0-.86,2.78l-3.95,0a7.1,7.1,0,0,1,1.93-5.33,7.4,7.4,0,0,1,5.44-1.9,8.84,8.84,0,0,1,4.05.86A5.88,5.88,0,0,1,506,72.7a8.15,8.15,0,0,1,.88,3.91V95.16H503Z"/><path class="cls-2" d="M513.5,94.66a5.77,5.77,0,0,1-2.6-2.57,8.81,8.81,0,0,1-.89-4.15v-.1h3.9v.1a4.27,4.27,0,0,0,1,3,3.67,3.67,0,0,0,2.81,1,3.71,3.71,0,0,0,2.79-1,4,4,0,0,0,.95-2.85,3.23,3.23,0,0,0-.45-1.77,3.37,3.37,0,0,0-1.21-1.1,18.49,18.49,0,0,0-2-.86l-.27-.06-.29-.09a.8.8,0,0,0-.2-.07l-.19-.05a21.24,21.24,0,0,1-3.31-1.4,6.13,6.13,0,0,1-2.22-2.17,7,7,0,0,1-.92-3.8,8.92,8.92,0,0,1,.83-4,5.7,5.7,0,0,1,2.43-2.5,8.2,8.2,0,0,1,3.9-.86,8.52,8.52,0,0,1,3.9.81,5.45,5.45,0,0,1,2.42,2.4,8.45,8.45,0,0,1,.83,3.9v.07h-3.91v-.1a3.77,3.77,0,0,0-.81-2.62,3.13,3.13,0,0,0-2.43-.89,3,3,0,0,0-2.41,1,4.13,4.13,0,0,0-.82,2.76,3.24,3.24,0,0,0,.52,1.93,3.59,3.59,0,0,0,1.36,1.16,16.07,16.07,0,0,0,2.2.84l.13,0,.14,0a.16.16,0,0,0,.09,0l.08,0a21.22,21.22,0,0,1,3.41,1.3,5.82,5.82,0,0,1,2.23,2.14,7.42,7.42,0,0,1,.93,4,8.44,8.44,0,0,1-.88,4,5.8,5.8,0,0,1-2.6,2.51,9.34,9.34,0,0,1-4.19.85A9.12,9.12,0,0,1,513.5,94.66Z"/><path class="cls-2" d="M537.3,69.82h4.08v35.65H537.3ZM543,94.37a5.84,5.84,0,0,1-2-3.18l.34-3.89a6.55,6.55,0,0,0,.42,2.49,3.27,3.27,0,0,0,1.2,1.57,3.41,3.41,0,0,0,1.92.53,3.15,3.15,0,0,0,2.65-1.23,5.55,5.55,0,0,0,.94-3.45V77.59a5.32,5.32,0,0,0-.94-3.37,3.18,3.18,0,0,0-2.65-1.2,3.48,3.48,0,0,0-1.92.51,3.16,3.16,0,0,0-1.2,1.53,6.33,6.33,0,0,0-.42,2.43L540.87,74a7.15,7.15,0,0,1,2.33-3.42,5.53,5.53,0,0,1,3.45-1.22,5.31,5.31,0,0,1,3.19,1,5.71,5.71,0,0,1,2,2.75,12.39,12.39,0,0,1,.69,4.4v9.79a12.39,12.39,0,0,1-.72,4.47,6.06,6.06,0,0,1-2.09,2.82,5.63,5.63,0,0,1-3.32,1A5.27,5.27,0,0,1,543,94.37Z"/><path class="cls-2" d="M556.42,69.82h4.08V95.16h-4.08Zm11.37,3.52h-.29a7.6,7.6,0,0,0-5,1.54,5.61,5.61,0,0,0-2,4.27L560,74.24a9.89,9.89,0,0,1,3.42-3.58A8.74,8.74,0,0,1,568,69.38v4Z"/><path class="cls-2" d="M573.62,94.54A6.48,6.48,0,0,1,571,91.66a10.37,10.37,0,0,1-.91-4.55V78.29a11.87,11.87,0,0,1,.89-4.81,6.64,6.64,0,0,1,2.58-3,7.49,7.49,0,0,1,4.05-1.05,8.12,8.12,0,0,1,4.11,1,6.28,6.28,0,0,1,2.59,2.8,10.33,10.33,0,0,1,.89,4.49V84.1h-12.4V80.56h8.42V77.73a5.39,5.39,0,0,0-.94-3.4,3.18,3.18,0,0,0-2.67-1.21A3,3,0,0,0,575,74.4a6.08,6.08,0,0,0-.93,3.63v9.2a5.06,5.06,0,0,0,1,3.31,3.37,3.37,0,0,0,2.76,1.18,3.53,3.53,0,0,0,2.59-.91,3.37,3.37,0,0,0,.9-2.58v-.17l4,0v.15a7.21,7.21,0,0,1-2,5.4,7.57,7.57,0,0,1-5.52,1.9A8.24,8.24,0,0,1,573.62,94.54Z"/><path class="cls-2" d="M591.41,94.71a5.49,5.49,0,0,1-2-2.61,10.57,10.57,0,0,1-.71-4.09V77.24a11.22,11.22,0,0,1,.71-4.23,5.84,5.84,0,0,1,2-2.7,5.48,5.48,0,0,1,3.22-.93,5.2,5.2,0,0,1,3.3,1.18,8.09,8.09,0,0,1,2.41,3.29l-.51,3.47A6,6,0,0,0,599.4,75a3.08,3.08,0,0,0-1.21-1.48,3.5,3.5,0,0,0-1.92-.51,3.19,3.19,0,0,0-2.62,1.14,5,5,0,0,0-.92,3.2V88a4.29,4.29,0,0,0,.92,3,3.31,3.31,0,0,0,2.62,1,3.55,3.55,0,0,0,1.91-.5,3.16,3.16,0,0,0,1.21-1.43,5.48,5.48,0,0,0,.42-2.27l.34,3.4A6.67,6.67,0,0,1,598,94.44a5.25,5.25,0,0,1-3.4,1.16A5.59,5.59,0,0,1,591.41,94.71Zm-.71,8.84a7.2,7.2,0,0,1-1.93-5.36V97.9h4.05v.29a3.61,3.61,0,0,0,.93,2.65,4.06,4.06,0,0,0,5.15,0,3.5,3.5,0,0,0,.91-2.57V69.82h4.07V98.31a7.75,7.75,0,0,1-.9,3.87,5.92,5.92,0,0,1-2.64,2.45,9.45,9.45,0,0,1-4.17.84A7.41,7.41,0,0,1,590.7,103.55Z"/><path class="cls-2" d="M612.33,88.33a3.23,3.23,0,0,0,.88,2.44,3.53,3.53,0,0,0,2.56.85,3.47,3.47,0,0,0,2.55-.84,3.43,3.43,0,0,0,.85-2.55l.34,3.2a6.37,6.37,0,0,1-2,3.09,5.26,5.26,0,0,1-3.29,1,5.4,5.4,0,0,1-4.41-1.84,8.08,8.08,0,0,1-1.53-5.29V69.82h4.08Zm6.84-18.51h4.07V95.16h-4.07Z"/><path class="cls-2" d="M627.62,69.82h4.07V95.16h-4.07Zm11.4,7.6a4.79,4.79,0,0,0-.91-3.18,3.44,3.44,0,0,0-2.76-1,3.35,3.35,0,0,0-2.74,1.12,5.35,5.35,0,0,0-.92,3.42l-.51-3.63a7.58,7.58,0,0,1,2.37-3.54,5.58,5.58,0,0,1,3.54-1.18,5.46,5.46,0,0,1,4.49,1.87,8.6,8.6,0,0,1,1.51,5.51v18.4H639Z"/><path class="cls-2" d="M645.51,69.82h10.94v3.84H645.51Zm4,23.77a7.63,7.63,0,0,1-1.43-5V62.45h4.08V88.6a3.29,3.29,0,0,0,.6,2.11,2.13,2.13,0,0,0,1.77.74h1.88v3.84h-2.39A5.58,5.58,0,0,1,649.55,93.59Z"/><path class="cls-2" d="M660.84,93.76a7.72,7.72,0,0,1-1.61-5.33q0-4.28,2-6.39t5.86-2.11H671l.34,3.34h-4.22a3.56,3.56,0,0,0-3,1.29,6.2,6.2,0,0,0-1,3.87,3.88,3.88,0,0,0,.89,2.82,3.6,3.6,0,0,0,2.7.91,4,4,0,0,0,3.06-1.1,4.78,4.78,0,0,0,1-3.32l.52,2.22a7.23,7.23,0,0,1-.65,3.1,4,4,0,0,1-1.84,1.86,6.84,6.84,0,0,1-3.08.61A6.23,6.23,0,0,1,660.84,93.76Zm9.89-17.15A3.39,3.39,0,0,0,667,72.87a3.11,3.11,0,0,0-2.44,1,3.9,3.9,0,0,0-.86,2.78l-4,0a7.13,7.13,0,0,1,1.92-5.33,7.44,7.44,0,0,1,5.45-1.9,8.84,8.84,0,0,1,4,.86,5.88,5.88,0,0,1,2.57,2.46,8.15,8.15,0,0,1,.87,3.91V95.16h-3.88Z"/><path class="cls-2" d="M681.26,94.66a5.77,5.77,0,0,1-2.6-2.57,8.81,8.81,0,0,1-.9-4.15v-.1h3.91v.1a4.27,4.27,0,0,0,1,3,4.37,4.37,0,0,0,5.59,0,3.93,3.93,0,0,0,1-2.85,3.15,3.15,0,0,0-.46-1.77,3.26,3.26,0,0,0-1.2-1.1,18.49,18.49,0,0,0-2-.86l-.27-.06-.29-.09a.8.8,0,0,0-.2-.07l-.19-.05a21.24,21.24,0,0,1-3.31-1.4A6.13,6.13,0,0,1,679,80.56a7,7,0,0,1-.92-3.8,8.92,8.92,0,0,1,.83-4,5.65,5.65,0,0,1,2.43-2.5,8.2,8.2,0,0,1,3.9-.86,8.52,8.52,0,0,1,3.9.81,5.45,5.45,0,0,1,2.42,2.4,8.45,8.45,0,0,1,.83,3.9v.07h-3.91v-.1a3.77,3.77,0,0,0-.81-2.62,3.13,3.13,0,0,0-2.43-.89,3,3,0,0,0-2.41,1,4.13,4.13,0,0,0-.82,2.76,3.24,3.24,0,0,0,.52,1.93,3.59,3.59,0,0,0,1.36,1.16,15.58,15.58,0,0,0,2.2.84l.13,0,.14,0a.12.12,0,0,0,.08,0l.09,0a21.06,21.06,0,0,1,3.4,1.3,5.78,5.78,0,0,1,2.24,2.14,7.42,7.42,0,0,1,.93,4,8.56,8.56,0,0,1-.88,4,5.85,5.85,0,0,1-2.6,2.51,9.37,9.37,0,0,1-4.19.85A9.09,9.09,0,0,1,681.26,94.66Z"/><path class="cls-2" d="M707.33,94.71a5.55,5.55,0,0,1-2.05-2.61,10.76,10.76,0,0,1-.71-4.09V77.24a11.42,11.42,0,0,1,.71-4.23,5.79,5.79,0,0,1,2-2.7,5.47,5.47,0,0,1,3.21-.93,5.2,5.2,0,0,1,3.3,1.18,8.37,8.37,0,0,1,2.41,3.29l-.51,3.54a6,6,0,0,0-.41-2.33,3.25,3.25,0,0,0-1.21-1.48,3.48,3.48,0,0,0-1.92-.51,3.16,3.16,0,0,0-2.61,1.15,4.94,4.94,0,0,0-.93,3.2V87.91a4.32,4.32,0,0,0,.93,3,3.3,3.3,0,0,0,2.61,1,3.56,3.56,0,0,0,1.92-.5A3.22,3.22,0,0,0,715.32,90a5.69,5.69,0,0,0,.41-2.27l.34,3.47a6.82,6.82,0,0,1-2.15,3.25,5.2,5.2,0,0,1-3.39,1.16A5.61,5.61,0,0,1,707.33,94.71Zm8.4-35h4.08V95.16h-4.08Z"/><path class="cls-2" d="M727.24,94.54a6.46,6.46,0,0,1-2.63-2.88,10.37,10.37,0,0,1-.92-4.55V78.29a11.87,11.87,0,0,1,.89-4.81,6.7,6.7,0,0,1,2.58-3,7.49,7.49,0,0,1,4.05-1.05,8.12,8.12,0,0,1,4.11,1,6.23,6.23,0,0,1,2.59,2.8,10.19,10.19,0,0,1,.89,4.49V84.1H726.4V80.56h8.42V77.73a5.39,5.39,0,0,0-.94-3.4,3.16,3.16,0,0,0-2.67-1.21,3,3,0,0,0-2.61,1.28,6.08,6.08,0,0,0-.93,3.63v9.2a5.06,5.06,0,0,0,1,3.31,3.37,3.37,0,0,0,2.76,1.18,3.52,3.52,0,0,0,2.58-.91,3.41,3.41,0,0,0,.91-2.58v-.17l4,0v.15a7.21,7.21,0,0,1-2,5.4,7.56,7.56,0,0,1-5.51,1.9A8.25,8.25,0,0,1,727.24,94.54Z"/><path class="cls-2" d="M97.52,153.41a3.29,3.29,0,0,0,.6,2.11,2,2,0,0,0,1.69.74h1.52v3.84h-2A5.53,5.53,0,0,1,95,158.34a7.26,7.26,0,0,1-1.55-5V124.6h4.08Z"/><path class="cls-2" d="M105,158.69a7.67,7.67,0,0,1-1.61-5.33q0-4.28,2-6.39c1.3-1.4,3.26-2.11,5.86-2.11h3.91l.34,3.35h-4.23a3.56,3.56,0,0,0-3,1.28,6.2,6.2,0,0,0-1,3.87,3.92,3.92,0,0,0,.89,2.82,3.61,3.61,0,0,0,2.7.91,3.92,3.92,0,0,0,3.06-1.1,4.71,4.71,0,0,0,1-3.32l.51,2.23a7.11,7.11,0,0,1-.65,3.1,4,4,0,0,1-1.84,1.85,6.84,6.84,0,0,1-3.08.61A6.2,6.2,0,0,1,105,158.69Zm9.89-17.15a3.39,3.39,0,0,0-3.74-3.73,3.12,3.12,0,0,0-2.44,1,4,4,0,0,0-.86,2.79l-4,0a7.11,7.11,0,0,1,1.93-5.33,7.44,7.44,0,0,1,5.44-1.9,8.91,8.91,0,0,1,4.06.86,5.88,5.88,0,0,1,2.56,2.47,8.08,8.08,0,0,1,.88,3.9V160.1h-3.88Z"/><path class="cls-2" d="M130.23,134.75h10.94v3.84H130.23Zm4.05,23.77a7.57,7.57,0,0,1-1.43-5V127.38h4.07v26.15a3.29,3.29,0,0,0,.6,2.11,2.13,2.13,0,0,0,1.77.75h1.88v3.83h-2.39A5.56,5.56,0,0,1,134.28,158.52Z"/><path class="cls-2" d="M144.32,134.75h4.08V160.1h-4.08Zm11.37,3.52h-.28a7.61,7.61,0,0,0-5.06,1.54,5.61,5.61,0,0,0-1.95,4.27l-.51-4.91a9.76,9.76,0,0,1,3.41-3.57,8.66,8.66,0,0,1,4.62-1.29v4Z"/><path class="cls-2" d="M158.92,128.28l6-8.66,3.22,2.34-6.47,8.2Zm.25,6.47h4.1V160.1h-4.1Z"/><path class="cls-2" d="M179.46,134.75h4.12l-7,25.35h-3.46l-7-25.35h4.13l4.61,19.46Z"/><path class="cls-2" d="M186.46,125.45h4.11v4.08h-4.11Zm0,9.3h4.11V160.1h-4.11Z"/><path class="cls-2" d="M196.4,158.69a7.72,7.72,0,0,1-1.61-5.33q0-4.28,2-6.39c1.31-1.4,3.26-2.11,5.86-2.11h3.91l.34,3.35h-4.22a3.57,3.57,0,0,0-3,1.28,6.26,6.26,0,0,0-1,3.87,3.92,3.92,0,0,0,.89,2.82,3.63,3.63,0,0,0,2.7.91,4,4,0,0,0,3.07-1.1,4.76,4.76,0,0,0,1-3.32l.51,2.23a7,7,0,0,1-.65,3.1,3.93,3.93,0,0,1-1.84,1.85,6.8,6.8,0,0,1-3.07.61A6.23,6.23,0,0,1,196.4,158.69Zm9.89-17.15a3.39,3.39,0,0,0-3.74-3.73,3.12,3.12,0,0,0-2.44,1,4,4,0,0,0-.85,2.79l-4,0a7.15,7.15,0,0,1,1.93-5.33,7.47,7.47,0,0,1,5.45-1.9,8.87,8.87,0,0,1,4,.86,5.82,5.82,0,0,1,2.56,2.47,8,8,0,0,1,.88,3.9V160.1h-3.88Z"/><path class="cls-2" d="M221.89,134.75H226l5.64,21.78-1.8,5.4Zm17.31,0-8,31.28a6.31,6.31,0,0,1-1.33,2.59,5.62,5.62,0,0,1-2.41,1.53,10.74,10.74,0,0,1-3.56.52h-.47v-3.86h.47a4,4,0,0,0,4.39-3.44l6.74-28.62Z"/><path class="cls-2" d="M250.43,134.75h4.08V170.4h-4.08Zm5.73,24.55a5.84,5.84,0,0,1-2-3.18l.34-3.89a6.64,6.64,0,0,0,.42,2.5,3.12,3.12,0,0,0,3.12,2.09,3.15,3.15,0,0,0,2.65-1.23,5.55,5.55,0,0,0,.94-3.45v-9.62a5.32,5.32,0,0,0-.94-3.37,3.18,3.18,0,0,0-2.65-1.2,3.4,3.4,0,0,0-1.92.52,3.19,3.19,0,0,0-1.2,1.52,6.37,6.37,0,0,0-.42,2.43L254,139a7.07,7.07,0,0,1,2.33-3.41,5.48,5.48,0,0,1,3.45-1.23,5.31,5.31,0,0,1,3.19,1,5.69,5.69,0,0,1,2,2.76,12.33,12.33,0,0,1,.69,4.39v9.79a12.39,12.39,0,0,1-.72,4.47,6,6,0,0,1-2.09,2.82,5.63,5.63,0,0,1-3.32,1A5.21,5.21,0,0,1,256.16,159.3Z"/><path class="cls-2" d="M270.8,158.69a7.67,7.67,0,0,1-1.62-5.33c0-2.85.66-5,2-6.39s3.25-2.11,5.86-2.11h3.9l.35,3.35H277a3.56,3.56,0,0,0-3,1.28,6.2,6.2,0,0,0-1,3.87,3.88,3.88,0,0,0,.89,2.82,3.6,3.6,0,0,0,2.7.91,3.94,3.94,0,0,0,3.06-1.1,4.71,4.71,0,0,0,1-3.32l.52,2.23a7.26,7.26,0,0,1-.65,3.1,4,4,0,0,1-1.84,1.85,6.84,6.84,0,0,1-3.08.61A6.2,6.2,0,0,1,270.8,158.69Zm9.88-17.15a3.38,3.38,0,0,0-3.73-3.73,3.11,3.11,0,0,0-2.44,1,4,4,0,0,0-.86,2.79l-3.95,0a7.11,7.11,0,0,1,1.93-5.33,7.44,7.44,0,0,1,5.44-1.9,8.84,8.84,0,0,1,4.05.86,5.85,5.85,0,0,1,2.57,2.47,8.08,8.08,0,0,1,.88,3.9V160.1h-3.89Z"/><path class="cls-2" d="M288.94,134.75H293V160.1h-4.07Zm11.36,3.52H300a7.58,7.58,0,0,0-5,1.54,5.62,5.62,0,0,0-2,4.27l-.51-4.91a9.79,9.79,0,0,1,3.42-3.57,8.65,8.65,0,0,1,4.61-1.29v4Z"/><path class="cls-2" d="M301.61,134.75h10.94v3.84H301.61Zm4,23.77a7.63,7.63,0,0,1-1.43-5V127.38h4.08v26.15a3.29,3.29,0,0,0,.6,2.11,2.12,2.12,0,0,0,1.77.75h1.88v3.83h-2.4A5.56,5.56,0,0,1,305.65,158.52Z"/><path class="cls-2" d="M315.92,125.45H320v4.08h-4.1Zm0,9.3H320V160.1h-4.1Z"/><path class="cls-2" d="M327.64,159.57A6.12,6.12,0,0,1,325,157a8.61,8.61,0,0,1-.9-4.09V142.25A9.33,9.33,0,0,1,325,138a6.28,6.28,0,0,1,2.63-2.72,8.58,8.58,0,0,1,4.14-.94,8.73,8.73,0,0,1,4.17.94A6.22,6.22,0,0,1,338.6,138a9.51,9.51,0,0,1,.9,4.32v.51h-3.95v-.51a4.5,4.5,0,0,0-1-3.09,3.46,3.46,0,0,0-2.72-1.09,3.42,3.42,0,0,0-2.7,1.08,4.41,4.41,0,0,0-1,3.05v10.64a3.81,3.81,0,0,0,.95,2.79,4.23,4.23,0,0,0,5.44,0,3.87,3.87,0,0,0,1-2.84v-.52l4,0v.49a8.6,8.6,0,0,1-.92,4.15,6.16,6.16,0,0,1-2.64,2.61,9,9,0,0,1-4.2.9A8.78,8.78,0,0,1,327.64,159.57Z"/><path class="cls-2" d="M342.68,125.45h4.1v4.08h-4.1Zm0,9.3h4.1V160.1h-4.1Z"/><path class="cls-2" d="M351.37,134.75h4.08V170.4h-4.08Zm5.72,24.55a5.89,5.89,0,0,1-2-3.18l.35-3.89a6.65,6.65,0,0,0,.41,2.5,3.37,3.37,0,0,0,1.21,1.56,3.33,3.33,0,0,0,1.92.53,3.13,3.13,0,0,0,2.64-1.23,5.55,5.55,0,0,0,.94-3.45v-9.62a5.32,5.32,0,0,0-.94-3.37A3.16,3.16,0,0,0,359,138a3.4,3.4,0,0,0-1.92.52,3.21,3.21,0,0,0-1.21,1.52,6.37,6.37,0,0,0-.41,2.43l-.52-3.47a7.14,7.14,0,0,1,2.33-3.41,5.49,5.49,0,0,1,3.46-1.23,5.31,5.31,0,0,1,3.19,1,5.82,5.82,0,0,1,2,2.76,12.58,12.58,0,0,1,.68,4.39v9.79a12.39,12.39,0,0,1-.72,4.47,6,6,0,0,1-2.08,2.82,5.66,5.66,0,0,1-3.33,1A5.23,5.23,0,0,1,357.09,159.3Z"/><path class="cls-2" d="M371.73,158.69a7.72,7.72,0,0,1-1.61-5.33q0-4.28,1.95-6.39c1.3-1.4,3.26-2.11,5.86-2.11h3.91l.34,3.35H378a3.57,3.57,0,0,0-3,1.28,6.26,6.26,0,0,0-1,3.87,3.92,3.92,0,0,0,.89,2.82,3.63,3.63,0,0,0,2.7.91,3.92,3.92,0,0,0,3.06-1.1,4.71,4.71,0,0,0,1-3.32l.51,2.23a7.11,7.11,0,0,1-.65,3.1,4,4,0,0,1-1.84,1.85,6.81,6.81,0,0,1-3.08.61A6.21,6.21,0,0,1,371.73,158.69Zm9.89-17.15a3.39,3.39,0,0,0-3.74-3.73,3.12,3.12,0,0,0-2.44,1,4,4,0,0,0-.85,2.79l-4,0a7.11,7.11,0,0,1,1.93-5.33,7.47,7.47,0,0,1,5.45-1.9,8.9,8.9,0,0,1,4.05.86,5.82,5.82,0,0,1,2.56,2.47,8,8,0,0,1,.88,3.9V160.1h-3.88Z"/><path class="cls-2" d="M398.93,134.75H403V170.4h-4.08Zm5.72,24.55a5.82,5.82,0,0,1-2-3.18l.34-3.89a6.65,6.65,0,0,0,.41,2.5,3.37,3.37,0,0,0,1.21,1.56,3.33,3.33,0,0,0,1.92.53,3.15,3.15,0,0,0,2.65-1.23,5.62,5.62,0,0,0,.94-3.45v-9.62a5.38,5.38,0,0,0-.94-3.37,3.18,3.18,0,0,0-2.65-1.2,3.4,3.4,0,0,0-1.92.52,3.21,3.21,0,0,0-1.21,1.52,6.37,6.37,0,0,0-.41,2.43l-.52-3.47a7.15,7.15,0,0,1,2.34-3.41,5.48,5.48,0,0,1,3.45-1.23,5.31,5.31,0,0,1,3.19,1,5.82,5.82,0,0,1,2,2.76,12.35,12.35,0,0,1,.68,4.39v9.79a12.39,12.39,0,0,1-.72,4.47,6,6,0,0,1-2.08,2.82,5.65,5.65,0,0,1-3.32,1A5.24,5.24,0,0,1,404.65,159.3Z"/><path class="cls-2" d="M420.92,159.6a5.79,5.79,0,0,1-2.51-2.53,8.6,8.6,0,0,1-.85-4V141.57a8.31,8.31,0,0,1,.85-3.92,5.73,5.73,0,0,1,2.51-2.48,8.43,8.43,0,0,1,3.94-.86,8.34,8.34,0,0,1,3.92.86,5.82,5.82,0,0,1,2.48,2.48,8.44,8.44,0,0,1,.85,3.92v11.59a8.62,8.62,0,0,1-.85,4,5.87,5.87,0,0,1-2.48,2.5,8.34,8.34,0,0,1-3.92.85A8.43,8.43,0,0,1,420.92,159.6Zm6.27-3.95a3.61,3.61,0,0,0,.84-2.56V141.64a3.53,3.53,0,0,0-.85-2.52,3.11,3.11,0,0,0-2.37-.9,3,3,0,0,0-2.33.9,3.57,3.57,0,0,0-.84,2.52v11.45a3.6,3.6,0,0,0,.83,2.56,3,3,0,0,0,2.34.91A3.06,3.06,0,0,0,427.19,155.65Z"/><path class="cls-2" d="M436,134.75h4.08V160.1H436Zm11.37,3.52h-.28a7.61,7.61,0,0,0-5.06,1.54,5.61,5.61,0,0,0-1.95,4.27l-.51-4.91A9.76,9.76,0,0,1,443,135.6a8.66,8.66,0,0,1,4.62-1.29v4Z"/><path class="cls-2" d="M462,159.65A5.56,5.56,0,0,1,459.9,157a10.54,10.54,0,0,1-.71-4.09V142.18a11.23,11.23,0,0,1,.71-4.24,5.84,5.84,0,0,1,2-2.7,5.47,5.47,0,0,1,3.21-.93,5.26,5.26,0,0,1,3.31,1.18,8.09,8.09,0,0,1,2.41,3.29l-.52,3.47a6,6,0,0,0-.4-2.33,3.08,3.08,0,0,0-1.21-1.48,3.52,3.52,0,0,0-1.93-.51,3.16,3.16,0,0,0-2.61,1.15,4.93,4.93,0,0,0-.93,3.19v10.65a4.3,4.3,0,0,0,.93,3,3.3,3.3,0,0,0,2.61,1,3.48,3.48,0,0,0,1.92-.5,3.16,3.16,0,0,0,1.21-1.43,5.45,5.45,0,0,0,.41-2.27l.35,3.4a6.74,6.74,0,0,1-2.14,3.26,5.31,5.31,0,0,1-3.41,1.16A5.66,5.66,0,0,1,462,159.65Zm-.71,8.83a7.2,7.2,0,0,1-1.93-5.36v-.29h4.05v.29a3.6,3.6,0,0,0,.93,2.65,3.46,3.46,0,0,0,6-2.52v-28.5h4.08v28.5a7.8,7.8,0,0,1-.9,3.87,6,6,0,0,1-2.64,2.44,9.48,9.48,0,0,1-4.17.84A7.41,7.41,0,0,1,461.24,168.48Z"/><path class="cls-2" d="M478.79,134.75h4.08V160.1h-4.08Zm11.37,3.52h-.28a7.61,7.61,0,0,0-5.06,1.54,5.61,5.61,0,0,0-1.95,4.27l-.51-4.91a9.79,9.79,0,0,1,3.42-3.57,8.6,8.6,0,0,1,4.61-1.29v4Z"/><path class="cls-2" d="M494.66,158.69a7.72,7.72,0,0,1-1.61-5.33q0-4.28,2-6.39c1.3-1.4,3.25-2.11,5.85-2.11h3.91l.34,3.35h-4.22a3.54,3.54,0,0,0-3,1.28,6.19,6.19,0,0,0-1,3.87,3.88,3.88,0,0,0,.9,2.82,3.59,3.59,0,0,0,2.69.91,4,4,0,0,0,3.07-1.1,4.76,4.76,0,0,0,1-3.32l.51,2.23a7.12,7.12,0,0,1-.64,3.1,4,4,0,0,1-1.85,1.85,6.8,6.8,0,0,1-3.07.61A6.23,6.23,0,0,1,494.66,158.69Zm9.89-17.15a3.39,3.39,0,0,0-3.73-3.73,3.13,3.13,0,0,0-2.45,1,4,4,0,0,0-.85,2.79l-4,0a7.15,7.15,0,0,1,1.93-5.33,7.47,7.47,0,0,1,5.45-1.9,8.84,8.84,0,0,1,4.05.86,5.82,5.82,0,0,1,2.56,2.47,8,8,0,0,1,.88,3.9V160.1h-3.88Z"/><path class="cls-2" d="M512.8,134.75h4.08V160.1H512.8Zm11.41,7.6a4.79,4.79,0,0,0-.91-3.18,3.44,3.44,0,0,0-2.76-1,3.32,3.32,0,0,0-2.74,1.13,5.34,5.34,0,0,0-.92,3.41l-.51-3.63a7.58,7.58,0,0,1,2.37-3.54,5.61,5.61,0,0,1,3.54-1.18,5.46,5.46,0,0,1,4.49,1.87,8.6,8.6,0,0,1,1.51,5.51V160.1h-4.07Z"/><path class="cls-2" d="M534.92,159.65a5.63,5.63,0,0,1-2-2.62,10.74,10.74,0,0,1-.7-4.09V142.18a11.44,11.44,0,0,1,.7-4.24,5.79,5.79,0,0,1,2-2.7,5.47,5.47,0,0,1,3.21-.93,5.23,5.23,0,0,1,3.3,1.18,8.39,8.39,0,0,1,2.42,3.29l-.52,3.54a6,6,0,0,0-.41-2.33,3.3,3.3,0,0,0-1.21-1.48,3.48,3.48,0,0,0-1.92-.51,3.16,3.16,0,0,0-2.61,1.15,4.94,4.94,0,0,0-.93,3.2v10.5a4.31,4.31,0,0,0,.93,3,3.3,3.3,0,0,0,2.61,1,3.56,3.56,0,0,0,1.92-.5,3.16,3.16,0,0,0,1.21-1.43,5.65,5.65,0,0,0,.41-2.27l.34,3.47a6.89,6.89,0,0,1-2.14,3.26,5.31,5.31,0,0,1-3.4,1.16A5.69,5.69,0,0,1,534.92,159.65Zm8.4-35.05h4.08v35.5h-4.08Z"/><path class="cls-2" d="M554.84,159.47a6.48,6.48,0,0,1-2.64-2.88,10.37,10.37,0,0,1-.92-4.55v-8.81a11.8,11.8,0,0,1,.89-4.81,6.74,6.74,0,0,1,2.58-3.06,7.58,7.58,0,0,1,4-1.05,8.29,8.29,0,0,1,4.12,1,6.24,6.24,0,0,1,2.58,2.81,10.14,10.14,0,0,1,.89,4.48V149H554V145.5h8.43v-2.84a5.46,5.46,0,0,0-.94-3.4,3.19,3.19,0,0,0-2.68-1.21,3,3,0,0,0-2.61,1.28,6.13,6.13,0,0,0-.93,3.63v9.2a5.06,5.06,0,0,0,1,3.31,3.37,3.37,0,0,0,2.76,1.18,3.54,3.54,0,0,0,2.59-.91,3.44,3.44,0,0,0,.9-2.58V153l4,0v.14a7.17,7.17,0,0,1-2,5.4,7.56,7.56,0,0,1-5.51,1.9A8.18,8.18,0,0,1,554.84,159.47Z"/><path class="cls-2" d="M572.62,159.6A5.9,5.9,0,0,1,570,157a8.93,8.93,0,0,1-.89-4.15v-.1H573v.1a4.22,4.22,0,0,0,1,3,3.62,3.62,0,0,0,2.81,1,3.69,3.69,0,0,0,2.78-1,4,4,0,0,0,.95-2.85,3.17,3.17,0,0,0-.45-1.76,3.14,3.14,0,0,0-1.21-1.1,15.89,15.89,0,0,0-2-.87l-.26-.06-.3-.09-.19-.07-.2-.05a20.55,20.55,0,0,1-3.3-1.4,6.13,6.13,0,0,1-2.23-2.16,7,7,0,0,1-.91-3.81,8.79,8.79,0,0,1,.83-4,5.6,5.6,0,0,1,2.43-2.5,8.13,8.13,0,0,1,3.89-.86,8.54,8.54,0,0,1,3.91.81,5.45,5.45,0,0,1,2.41,2.41,8.25,8.25,0,0,1,.83,3.89v.07h-3.9v-.09a3.74,3.74,0,0,0-.82-2.63,3.16,3.16,0,0,0-2.43-.89,3,3,0,0,0-2.4,1,4.12,4.12,0,0,0-.82,2.76,3.31,3.31,0,0,0,.51,1.93,3.62,3.62,0,0,0,1.37,1.16,15.58,15.58,0,0,0,2.2.84l.13,0,.13,0a.19.19,0,0,0,.09,0h.08a21.22,21.22,0,0,1,3.41,1.3,5.76,5.76,0,0,1,2.23,2.14,7.42,7.42,0,0,1,.93,4,8.48,8.48,0,0,1-.88,4.05,5.78,5.78,0,0,1-2.6,2.5,10.65,10.65,0,0,1-8.36,0Z"/><path class="cls-2" d="M596.43,134.75h4.07V170.4h-4.07Zm5.72,24.55a5.84,5.84,0,0,1-2-3.18l.34-3.89a6.64,6.64,0,0,0,.42,2.5,3.37,3.37,0,0,0,1.21,1.56,3.32,3.32,0,0,0,1.91.53,3.13,3.13,0,0,0,2.65-1.23,5.55,5.55,0,0,0,.94-3.45v-9.62a5.32,5.32,0,0,0-.94-3.37A3.16,3.16,0,0,0,604,138a3.39,3.39,0,0,0-1.91.52,3.21,3.21,0,0,0-1.21,1.52,6.37,6.37,0,0,0-.42,2.43L600,139a7.14,7.14,0,0,1,2.33-3.41,5.49,5.49,0,0,1,3.46-1.23,5.28,5.28,0,0,1,3.18,1,5.77,5.77,0,0,1,2,2.76,12.58,12.58,0,0,1,.68,4.39v9.79a12.39,12.39,0,0,1-.72,4.47,6,6,0,0,1-2.09,2.82,5.61,5.61,0,0,1-3.32,1A5.23,5.23,0,0,1,602.15,159.3Z"/><path class="cls-2" d="M615.54,134.75h4.08V160.1h-4.08Zm11.37,3.52h-.28a7.63,7.63,0,0,0-5.06,1.54,5.61,5.61,0,0,0-2,4.27l-.51-4.91a9.79,9.79,0,0,1,3.42-3.57,8.62,8.62,0,0,1,4.61-1.29v4Z"/><path class="cls-2" d="M632.75,159.47a6.48,6.48,0,0,1-2.64-2.88,10.37,10.37,0,0,1-.92-4.55v-8.81a11.8,11.8,0,0,1,.89-4.81,6.74,6.74,0,0,1,2.58-3.06,7.58,7.58,0,0,1,4.05-1.05,8.29,8.29,0,0,1,4.12,1,6.24,6.24,0,0,1,2.58,2.81,10.14,10.14,0,0,1,.89,4.48V149H631.9V145.5h8.43v-2.84a5.46,5.46,0,0,0-.94-3.4,3.19,3.19,0,0,0-2.68-1.21,3,3,0,0,0-2.61,1.28,6.13,6.13,0,0,0-.93,3.63v9.2a5.06,5.06,0,0,0,1,3.31,3.37,3.37,0,0,0,2.76,1.18,3.54,3.54,0,0,0,2.59-.91,3.44,3.44,0,0,0,.9-2.58V153l4,0v.14a7.17,7.17,0,0,1-2,5.4,7.56,7.56,0,0,1-5.51,1.9A8.18,8.18,0,0,1,632.75,159.47Z"/><path class="cls-2" d="M648.26,134.75h4.08V160.1h-4.08Zm10.94,7.6a5.32,5.32,0,0,0-.78-3.18,2.82,2.82,0,0,0-2.42-1,3.32,3.32,0,0,0-2.75,1.14,5.4,5.4,0,0,0-.91,3.43l-.51-3.66a7.79,7.79,0,0,1,2.36-3.54,5.59,5.59,0,0,1,3.54-1.18,5.35,5.35,0,0,1,3.06.84,5.06,5.06,0,0,1,1.88,2.46,11.33,11.33,0,0,1,.63,4V160.1h-4.1Zm11,0a4.79,4.79,0,0,0-.91-3.18,3.47,3.47,0,0,0-2.75-1,2.73,2.73,0,0,0-2.42,1.14,6.11,6.11,0,0,0-.78,3.43l-.83-3.35a7.18,7.18,0,0,1,2.22-3.76,5.45,5.45,0,0,1,3.54-1.27,6.09,6.09,0,0,1,3.31.84,5,5,0,0,1,2,2.47,10.58,10.58,0,0,1,.69,4.07V160.1h-4.08Z"/><path class="cls-2" d="M678.83,125.45h4.1v4.08h-4.1Zm0,9.3h4.1V160.1h-4.1Z"/><path class="cls-2" d="M690.39,159.6a5.77,5.77,0,0,1-2.5-2.53,8.6,8.6,0,0,1-.86-4V141.57a8.31,8.31,0,0,1,.86-3.92,5.71,5.71,0,0,1,2.5-2.48,8.45,8.45,0,0,1,3.94-.86,8.31,8.31,0,0,1,3.92.86,5.77,5.77,0,0,1,2.48,2.48,8.31,8.31,0,0,1,.85,3.92v11.59a8.5,8.5,0,0,1-.85,4,5.81,5.81,0,0,1-2.48,2.5,8.31,8.31,0,0,1-3.92.85A8.45,8.45,0,0,1,690.39,159.6Zm6.27-3.95a3.57,3.57,0,0,0,.85-2.56V141.64a3.53,3.53,0,0,0-.86-2.52,3.11,3.11,0,0,0-2.37-.9,3,3,0,0,0-2.33.9,3.57,3.57,0,0,0-.84,2.52v11.45a3.65,3.65,0,0,0,.83,2.56,3,3,0,0,0,2.34.91A3.06,3.06,0,0,0,696.66,155.65Z"/><path class="cls-2" d="M707.74,159.6a5.84,5.84,0,0,1-2.6-2.58,8.81,8.81,0,0,1-.89-4.15v-.1h3.9v.1a4.27,4.27,0,0,0,1,3,3.63,3.63,0,0,0,2.81,1,3.67,3.67,0,0,0,2.78-1,3.93,3.93,0,0,0,1-2.85,3.09,3.09,0,0,0-.46-1.76,3.18,3.18,0,0,0-1.2-1.1,16.54,16.54,0,0,0-2-.87l-.27-.06-.29-.09-.2-.07-.19-.05a20.31,20.31,0,0,1-3.31-1.4,6.18,6.18,0,0,1-2.22-2.16,7,7,0,0,1-.92-3.81,8.92,8.92,0,0,1,.83-4,5.7,5.7,0,0,1,2.43-2.5,8.2,8.2,0,0,1,3.9-.86,8.52,8.52,0,0,1,3.9.81,5.42,5.42,0,0,1,2.42,2.41,8.38,8.38,0,0,1,.83,3.89v.07H715v-.09a3.78,3.78,0,0,0-.81-2.63,3.16,3.16,0,0,0-2.43-.89,3,3,0,0,0-2.41,1,4.17,4.17,0,0,0-.82,2.76,3.24,3.24,0,0,0,.52,1.93,3.59,3.59,0,0,0,1.36,1.16,15.58,15.58,0,0,0,2.2.84l.13,0,.14,0s0,0,.08,0H713a21.22,21.22,0,0,1,3.41,1.3,5.82,5.82,0,0,1,2.23,2.14,7.42,7.42,0,0,1,.93,4,8.6,8.6,0,0,1-.88,4.05,5.83,5.83,0,0,1-2.6,2.5,9.37,9.37,0,0,1-4.19.85A9.25,9.25,0,0,1,707.74,159.6Z"/><path class="cls-2" d="M721.8,155.65h4.44v4.45H721.8Z"/></g></g></svg>