<svg xmlns="http://www.w3.org/2000/svg" viewBox="0 0 333.33 294.35"><defs><style>.cls-1{fill:#1d1d1b;}.cls-2{fill:#e3051b;}</style></defs><g id="Capa_2" data-name="Capa 2"><g id="textos"><path class="cls-1" d="M4.22,11.64h9.55V68.86H4.22ZM8.58,35.32H18.89a4.8,4.8,0,0,0,2.18-.46,3.14,3.14,0,0,0,1.4-1.29,4.17,4.17,0,0,0,.47-2V25.17a5,5,0,0,0-.47-2.24,3.25,3.25,0,0,0-1.4-1.44A4.67,4.67,0,0,0,18.89,21H8.58V11.64H18.3a18.81,18.81,0,0,1,7.92,1.52,11.06,11.06,0,0,1,5,4.44,13.58,13.58,0,0,1,1.73,7v6.69a14.25,14.25,0,0,1-1.73,7.21,11.17,11.17,0,0,1-5,4.58,18.22,18.22,0,0,1-7.9,1.58H8.58Zm8,7.59,8.92-1.81,9.13,27.76H24.12Z" transform="translate(0 -11.09)"/><path class="cls-1" d="M39,11.68h9.76V68.86H39Zm4.33,0H64.39V21.2H43.31Zm0,24H62.42v9.48H43.31Zm0,23.64H64.39v9.51H43.31Z" transform="translate(0 -11.09)"/><path class="cls-1" d="M73.67,67.78A11.44,11.44,0,0,1,68.74,63,15.84,15.84,0,0,1,67,55.34V52.27l9.71-.08v3.07A4.66,4.66,0,0,0,78,58.66a4.55,4.55,0,0,0,3.38,1.24,4.35,4.35,0,0,0,3.29-1.22,4.66,4.66,0,0,0,1.16-3.34v-5a4.36,4.36,0,0,0-.89-2.73,8.12,8.12,0,0,0-2.28-2c-.93-.56-2.19-1.24-3.79-2l-.3-.16-.29-.16L77.73,43a32.85,32.85,0,0,1-5.43-3.37A13.73,13.73,0,0,1,68.56,35,15.14,15.14,0,0,1,67.07,28V25a15.63,15.63,0,0,1,1.67-7.49,11.22,11.22,0,0,1,4.86-4.78,16.47,16.47,0,0,1,7.66-1.65,16,16,0,0,1,7.52,1.65,11.15,11.15,0,0,1,4.79,4.82,16.16,16.16,0,0,1,1.66,7.61V28.4l-9.72.11V25.25a4.91,4.91,0,0,0-1.12-3.44,4,4,0,0,0-3.13-1.24A4.52,4.52,0,0,0,78,21.69a4.12,4.12,0,0,0-1.16,3.09v3.81a4.6,4.6,0,0,0,.85,2.79,7.47,7.47,0,0,0,2.12,2c.85.54,2,1.19,3.56,2,.29.13.58.27.88.43l.93.47.14.08a.74.74,0,0,0,.13.08,42.46,42.46,0,0,1,5.27,3.2,12,12,0,0,1,3.42,4.15,14.54,14.54,0,0,1,1.42,6.85v4.76A16.19,16.19,0,0,1,93.87,63,11.28,11.28,0,0,1,89,67.78a16.13,16.13,0,0,1-7.63,1.67A16.49,16.49,0,0,1,73.67,67.78Z" transform="translate(0 -11.09)"/><path class="cls-1" d="M100.14,11.68h9.76V68.86h-9.76Zm4.57,25.64h10.1a3.72,3.72,0,0,0,2-.55,3.53,3.53,0,0,0,1.34-1.61,6.26,6.26,0,0,0,.47-2.52V25.92a7,7,0,0,0-.45-2.64,3.66,3.66,0,0,0-1.32-1.67,3.71,3.71,0,0,0-2.09-.57h-10.1V11.68h10.38a16.2,16.2,0,0,1,7.27,1.5A10.24,10.24,0,0,1,127,17.56a14.43,14.43,0,0,1,1.57,6.94v9.64A13.55,13.55,0,0,1,127,40.92a10.44,10.44,0,0,1-4.62,4.29,16.46,16.46,0,0,1-7.24,1.47H104.71Z" transform="translate(0 -11.09)"/><path class="cls-1" d="M139.69,67.86a11.25,11.25,0,0,1-5-4.6A14.27,14.27,0,0,1,133,56V24.54a14.33,14.33,0,0,1,1.73-7.27,11.16,11.16,0,0,1,5-4.61,20.59,20.59,0,0,1,15.77,0,11.24,11.24,0,0,1,5,4.61,14.43,14.43,0,0,1,1.73,7.27V56a14.37,14.37,0,0,1-1.73,7.26,11.33,11.33,0,0,1-5,4.6,20.35,20.35,0,0,1-15.77,0Zm10.46-8.75a3.8,3.8,0,0,0,1.63-1.69,5.89,5.89,0,0,0,.55-2.67v-29a5.77,5.77,0,0,0-.55-2.63,3.83,3.83,0,0,0-1.63-1.7,5.33,5.33,0,0,0-2.57-.59,5.24,5.24,0,0,0-2.56.59,3.84,3.84,0,0,0-1.61,1.7,5.77,5.77,0,0,0-.55,2.63v29a5.89,5.89,0,0,0,.55,2.67A3.81,3.81,0,0,0,145,59.11a5.24,5.24,0,0,0,2.56.59A5.33,5.33,0,0,0,150.15,59.11Z" transform="translate(0 -11.09)"/><path class="cls-1" d="M166.81,11.68h7.67l13.45,38.15-1.06,1.53V11.68h8.88V68.82H188l-13.3-35.94,1-1.57V68.82h-8.93Z" transform="translate(0 -11.09)"/><path class="cls-1" d="M201.14,11.68h9.76V68.86h-9.76Zm6.49,47.82H215a3.84,3.84,0,0,0,3-1.2A4.94,4.94,0,0,0,219,54.94V25.6A4.94,4.94,0,0,0,218,22.24a3.84,3.84,0,0,0-3-1.2h-7.32V11.68h8.3a15.1,15.1,0,0,1,7,1.51,10.35,10.35,0,0,1,4.45,4.41,14.58,14.58,0,0,1,1.53,6.9V56A14.59,14.59,0,0,1,227.38,63a10.32,10.32,0,0,1-4.47,4.4,15.09,15.09,0,0,1-7,1.51h-8.26Z" transform="translate(0 -11.09)"/><path class="cls-1" d="M242.48,68.86h-9.75V11.68h9.75Z" transform="translate(0 -11.09)"/><path class="cls-1" d="M252.94,67.78A11.44,11.44,0,0,1,248,63a15.84,15.84,0,0,1-1.71-7.61V52.27l9.71-.08v3.07a4.66,4.66,0,0,0,1.22,3.4,4.55,4.55,0,0,0,3.38,1.24,4.35,4.35,0,0,0,3.29-1.22,4.66,4.66,0,0,0,1.16-3.34v-5a4.36,4.36,0,0,0-.89-2.73,8.12,8.12,0,0,0-2.28-2c-.93-.56-2.2-1.24-3.79-2l-.3-.16-.29-.16L257,43a33.16,33.16,0,0,1-5.42-3.37A13.73,13.73,0,0,1,247.83,35,15.14,15.14,0,0,1,246.34,28V25A15.63,15.63,0,0,1,248,17.52a11.25,11.25,0,0,1,4.85-4.78,16.51,16.51,0,0,1,7.67-1.65,16,16,0,0,1,7.52,1.65,11.15,11.15,0,0,1,4.79,4.82,16.29,16.29,0,0,1,1.66,7.61V28.4l-9.72.11V25.25a4.91,4.91,0,0,0-1.12-3.44,4,4,0,0,0-3.13-1.24,4.52,4.52,0,0,0-3.28,1.12,4.12,4.12,0,0,0-1.16,3.09v3.81a4.6,4.6,0,0,0,.85,2.79,7.47,7.47,0,0,0,2.12,2c.85.54,2,1.19,3.56,2,.29.13.58.27.88.43l.93.47a.74.74,0,0,1,.13.08l.14.08a42.46,42.46,0,0,1,5.27,3.2,12,12,0,0,1,3.42,4.15,14.54,14.54,0,0,1,1.42,6.85v4.76A16.19,16.19,0,0,1,273.14,63a11.28,11.28,0,0,1-4.86,4.83,16.16,16.16,0,0,1-7.63,1.67A16.49,16.49,0,0,1,252.94,67.78Z" transform="translate(0 -11.09)"/><path class="cls-1" d="M276.27,11.68H304.9V21H276.27Zm9.44,4.8h9.75V68.86h-9.75Z" transform="translate(0 -11.09)"/><path class="cls-1" d="M307.93,11.68h9.75V68.86h-9.75Zm4.32,0h21.08V21.2H312.25Zm0,24h19.12v9.48H312.25Zm0,23.64h21.08v9.51H312.25Z" transform="translate(0 -11.09)"/><path class="cls-2" d="M8.5,128.62a9,9,0,0,1-3.72-3.93,13.82,13.82,0,0,1-1.29-6.23V95.31a13.77,13.77,0,0,1,1.29-6.22A8.93,8.93,0,0,1,8.5,85.15a11.85,11.85,0,0,1,5.85-1.35,11.94,11.94,0,0,1,5.86,1.35,8.84,8.84,0,0,1,3.72,3.95,14,14,0,0,1,1.28,6.24V99H17.4V95.34a5.41,5.41,0,0,0-.34-2,2.7,2.7,0,0,0-1-1.29,3,3,0,0,0-1.66-.45,3,3,0,0,0-1.62.43,2.66,2.66,0,0,0-1,1.28,5,5,0,0,0-.36,2v23.15a4.93,4.93,0,0,0,.36,2,2.66,2.66,0,0,0,1,1.26,3,3,0,0,0,1.62.44A3.09,3.09,0,0,0,16,121.7a2.7,2.7,0,0,0,1-1.26,5.41,5.41,0,0,0,.34-2v-3.64h7.81v3.64a14,14,0,0,1-1.28,6.24,8.84,8.84,0,0,1-3.72,4A11.84,11.84,0,0,1,14.35,130,11.74,11.74,0,0,1,8.5,128.62Z" transform="translate(0 -11.09)"/><path class="cls-2" d="M32.94,128.72a9,9,0,0,1-4-3.64,11.28,11.28,0,0,1-1.37-5.75V94.44A11.37,11.37,0,0,1,29,88.68a8.81,8.81,0,0,1,4-3.64,14.38,14.38,0,0,1,6.24-1.24A14.32,14.32,0,0,1,45.42,85a8.83,8.83,0,0,1,4,3.64,11.47,11.47,0,0,1,1.37,5.76v24.89a11.38,11.38,0,0,1-1.37,5.75,9,9,0,0,1-4,3.64A14.17,14.17,0,0,1,39.18,130,14.23,14.23,0,0,1,32.94,128.72Zm8.28-6.93a3,3,0,0,0,1.29-1.33,4.74,4.74,0,0,0,.44-2.12v-23a4.59,4.59,0,0,0-.44-2.08A3,3,0,0,0,41.22,92a4.21,4.21,0,0,0-2-.47,4.1,4.1,0,0,0-2,.47,3.07,3.07,0,0,0-1.28,1.34,4.6,4.6,0,0,0-.43,2.08v23a4.74,4.74,0,0,0,.43,2.12,3,3,0,0,0,1.28,1.33,4.1,4.1,0,0,0,2,.47A4.21,4.21,0,0,0,41.22,121.79Z" transform="translate(0 -11.09)"/><path class="cls-2" d="M54.4,84.23H62v45.28H54.4ZM57.86,103H66a3.9,3.9,0,0,0,1.73-.36,2.5,2.5,0,0,0,1.1-1,3.24,3.24,0,0,0,.38-1.6v-5a3.93,3.93,0,0,0-.38-1.78A2.56,2.56,0,0,0,67.74,92,3.65,3.65,0,0,0,66,91.64H57.86V84.23h7.68a14.86,14.86,0,0,1,6.27,1.2,8.65,8.65,0,0,1,4,3.52,10.72,10.72,0,0,1,1.37,5.55v5.29a11.3,11.3,0,0,1-1.37,5.71,8.84,8.84,0,0,1-4,3.63,14.44,14.44,0,0,1-6.26,1.24H57.86Zm6.28,6,7.07-1.43,7.22,22H70.15Z" transform="translate(0 -11.09)"/><path class="cls-2" d="M81.91,84.23h7.57v45.28H81.91ZM85.37,103h8.15a3.87,3.87,0,0,0,1.73-.36,2.44,2.44,0,0,0,1.1-1,3.24,3.24,0,0,0,.38-1.6v-5a3.93,3.93,0,0,0-.38-1.78A2.51,2.51,0,0,0,95.25,92a3.62,3.62,0,0,0-1.73-.39H85.37V84.23h7.68a14.94,14.94,0,0,1,6.28,1.2,8.67,8.67,0,0,1,4,3.52,10.63,10.63,0,0,1,1.37,5.55v5.29a11.2,11.2,0,0,1-1.37,5.71,8.84,8.84,0,0,1-4,3.63,14.44,14.44,0,0,1-6.26,1.24H85.37Zm6.28,6,7.07-1.43,7.22,22H97.66Z" transform="translate(0 -11.09)"/><path class="cls-2" d="M109.43,84.26h7.71v45.25h-7.71Zm3.42,0h16.68v7.53H112.85Zm0,19H128v7.5H112.85Zm0,18.7h16.68v7.53H112.85Z" transform="translate(0 -11.09)"/><path class="cls-2" d="M137.25,128.62a9,9,0,0,1-3.72-3.93,13.82,13.82,0,0,1-1.29-6.23V95.31a13.77,13.77,0,0,1,1.29-6.22,8.93,8.93,0,0,1,3.72-3.94,13.39,13.39,0,0,1,11.72,0,8.88,8.88,0,0,1,3.71,3.95A14,14,0,0,1,154,95.34V99h-7.81V95.34a5.41,5.41,0,0,0-.34-2,2.7,2.7,0,0,0-1.05-1.29,3.28,3.28,0,0,0-3.28,0,2.72,2.72,0,0,0-1,1.28,5,5,0,0,0-.36,2v23.15a4.93,4.93,0,0,0,.36,2,2.72,2.72,0,0,0,1,1.26,3,3,0,0,0,1.62.44,3.09,3.09,0,0,0,1.68-.44,2.64,2.64,0,0,0,1-1.26,5.41,5.41,0,0,0,.34-2v-3.64H154v3.64a14,14,0,0,1-1.28,6.24,8.88,8.88,0,0,1-3.71,4,13.3,13.3,0,0,1-11.72,0Z" transform="translate(0 -11.09)"/><path class="cls-2" d="M154.49,84.26h22.66v7.41H154.49Zm7.47,3.8h7.72v41.45H162Z" transform="translate(0 -11.09)"/><path class="cls-2" d="M185.36,84.26h5.42l10.8,45.25h-7.66l-5.85-29.66-5.85,29.66h-7.66Zm-3.45,31h12.32v7.22H181.91Z" transform="translate(0 -11.09)"/><path class="cls-2" d="M226.26,84.26h7.22v45.25H226.6V97.92l.47,2-6.57,21.59h-3.86l-6.57-21,.63-2.62v31.59h-7V84.26h7.41l7.5,24.59Z" transform="translate(0 -11.09)"/><path class="cls-2" d="M237.74,84.26h7.72v45.25h-7.72Zm3.42,0h16.68v7.53H241.16Zm0,19h15.13v7.5H241.16Zm0,18.7h16.68v7.53H241.16Z" transform="translate(0 -11.09)"/><path class="cls-2" d="M260.55,84.26h6.07l10.65,30.19-.85,1.21V84.26h7v45.22h-6.13L266.81,101l.81-1.25v29.69h-7.07Z" transform="translate(0 -11.09)"/><path class="cls-2" d="M287.1,84.26h22.66v7.41H287.1Zm7.47,3.8h7.72v41.45h-7.72Z" transform="translate(0 -11.09)"/><path class="cls-2" d="M312.15,84.26h7.72v45.25h-7.72Zm3.43,0h16.68v7.53H315.58Zm0,19H330.7v7.5H315.58Zm0,18.7h16.68v7.53H315.58Z" transform="translate(0 -11.09)"/><path class="cls-1" d="M0,149.31H35.6V161H0Zm11.74,6H23.86v65.13H11.74Z" transform="translate(0 -11.09)"/><path class="cls-1" d="M45.79,219.16a14.07,14.07,0,0,1-6.23-5.72,17.76,17.76,0,0,1-2.15-9V165.3a17.91,17.91,0,0,1,2.15-9.05,13.9,13.9,0,0,1,6.23-5.72,22.61,22.61,0,0,1,9.81-1.95,22.57,22.57,0,0,1,9.8,1.95,14,14,0,0,1,6.24,5.72,18,18,0,0,1,2.15,9.05v39.12a17.87,17.87,0,0,1-2.15,9,14.15,14.15,0,0,1-6.24,5.72,22.27,22.27,0,0,1-9.8,2A22.32,22.32,0,0,1,45.79,219.16Zm13-10.88a4.79,4.79,0,0,0,2-2.1,7.32,7.32,0,0,0,.68-3.33V166.77a7.22,7.22,0,0,0-.68-3.28,4.79,4.79,0,0,0-2-2.1,6.58,6.58,0,0,0-3.2-.74,6.44,6.44,0,0,0-3.18.74,4.85,4.85,0,0,0-2,2.1,7.35,7.35,0,0,0-.68,3.28v36.08a7.46,7.46,0,0,0,.68,3.33,4.85,4.85,0,0,0,2,2.1,6.44,6.44,0,0,0,3.18.73A6.58,6.58,0,0,0,58.8,208.28Z" transform="translate(0 -11.09)"/><path class="cls-1" d="M79.51,149.31H91.64v71.1H79.51Zm8.07,59.46h9.09a4.79,4.79,0,0,0,3.77-1.49,6.11,6.11,0,0,0,1.32-4.18V166.62a6.09,6.09,0,0,0-1.32-4.18A4.79,4.79,0,0,0,96.67,161H87.58V149.31H97.89a18.73,18.73,0,0,1,8.71,1.88,12.81,12.81,0,0,1,5.52,5.48,18.11,18.11,0,0,1,1.91,8.58v39.22a18.11,18.11,0,0,1-1.91,8.58,12.75,12.75,0,0,1-5.55,5.47,18.68,18.68,0,0,1-8.72,1.89H87.58Z" transform="translate(0 -11.09)"/><path class="cls-1" d="M131.34,149.31h8.51l17,71.1h-12l-9.19-46.6-9.2,46.6h-12ZM125.91,198h19.37v11.35H125.91Z" transform="translate(0 -11.09)"/><path class="cls-1" d="M163.47,219.06a14.31,14.31,0,0,1-6.14-6,19.64,19.64,0,0,1-2.12-9.46v-3.82l12.07-.1v3.82a5.78,5.78,0,0,0,1.52,4.23,5.65,5.65,0,0,0,4.2,1.54,5.4,5.4,0,0,0,4.09-1.52,5.77,5.77,0,0,0,1.44-4.15v-6.21a5.45,5.45,0,0,0-1.1-3.4,10.19,10.19,0,0,0-2.84-2.5c-1.15-.7-2.73-1.54-4.72-2.51l-.36-.2-.37-.2-.63-.29a40.53,40.53,0,0,1-6.75-4.18,17.23,17.23,0,0,1-4.65-5.74,18.92,18.92,0,0,1-1.86-8.81v-3.66a19.58,19.58,0,0,1,2.08-9.32,14,14,0,0,1,6-5.94,20.49,20.49,0,0,1,9.54-2,19.87,19.87,0,0,1,9.34,2,13.9,13.9,0,0,1,6,6,20.23,20.23,0,0,1,2,9.46v4l-12.07.15v-4.06a6.15,6.15,0,0,0-1.4-4.28,5,5,0,0,0-3.88-1.54,5.69,5.69,0,0,0-4.09,1.39,5.1,5.1,0,0,0-1.44,3.84v4.75a5.82,5.82,0,0,0,1.05,3.47,9.31,9.31,0,0,0,2.64,2.47c1.06.67,2.54,1.47,4.43,2.42.36.16.72.34,1.1.54l1.15.58.17.1a1.28,1.28,0,0,0,.17.1,53.85,53.85,0,0,1,6.55,4,15.16,15.16,0,0,1,4.26,5.16,18.16,18.16,0,0,1,1.76,8.51v5.92a20.11,20.11,0,0,1-2.08,9.46,14.08,14.08,0,0,1-6,6,20.12,20.12,0,0,1-9.49,2.08A20.52,20.52,0,0,1,163.47,219.06Z" transform="translate(0 -11.09)"/><path class="cls-1" d="M215.5,149.31h12.12v71.1H215.5Zm5,59.46h25.62v11.64H220.49Z" transform="translate(0 -11.09)"/><path class="cls-1" d="M264.89,149.31h8.5l17,71.1h-12l-9.19-46.6L260,220.41h-12ZM259.46,198h19.36v11.35H259.46Z" transform="translate(0 -11.09)"/><path class="cls-1" d="M297,219.06a14.23,14.23,0,0,1-6.13-6,19.64,19.64,0,0,1-2.13-9.46v-3.82l12.08-.1v3.82a5.78,5.78,0,0,0,1.51,4.23,5.66,5.66,0,0,0,4.21,1.54,5.36,5.36,0,0,0,4.08-1.52,5.77,5.77,0,0,0,1.44-4.15v-6.21A5.39,5.39,0,0,0,311,194a10.29,10.29,0,0,0-2.83-2.5q-1.74-1-4.72-2.51l-.37-.2-.37-.2-.63-.29a41,41,0,0,1-6.75-4.18,17.08,17.08,0,0,1-4.64-5.74,18.92,18.92,0,0,1-1.86-8.81v-3.66a19.47,19.47,0,0,1,2.08-9.32,14,14,0,0,1,6-5.94,20.52,20.52,0,0,1,9.54-2,19.84,19.84,0,0,1,9.34,2,13.85,13.85,0,0,1,6,6,20.23,20.23,0,0,1,2.06,9.46v4l-12.08.15v-4.06a6.14,6.14,0,0,0-1.39-4.28,5,5,0,0,0-3.89-1.54,5.67,5.67,0,0,0-4.08,1.39,5.07,5.07,0,0,0-1.45,3.84v4.75a5.76,5.76,0,0,0,1.06,3.47,9.31,9.31,0,0,0,2.64,2.47c1.05.67,2.53,1.47,4.42,2.42.36.16.73.34,1.1.54l1.15.58.17.1.17.1a53.08,53.08,0,0,1,6.55,4,14.94,14.94,0,0,1,4.26,5.16,18.16,18.16,0,0,1,1.76,8.51v5.92a20,20,0,0,1-2.08,9.46,14.08,14.08,0,0,1-6,6,20.1,20.1,0,0,1-9.48,2.08A20.57,20.57,0,0,1,297,219.06Z" transform="translate(0 -11.09)"/><path class="cls-1" d="M4.56,239H15.78v65.76H4.56ZM9.81,268.5H21.43a4.22,4.22,0,0,0,2.35-.64A4,4,0,0,0,25.32,266a7.1,7.1,0,0,0,.54-2.89v-7.74a7.94,7.94,0,0,0-.52-3,4.08,4.08,0,0,0-1.51-1.92,4.27,4.27,0,0,0-2.4-.65H9.81V239H21.75a18.8,18.8,0,0,1,8.36,1.72,11.84,11.84,0,0,1,5.29,5,16.45,16.45,0,0,1,1.81,8v11.08a15.64,15.64,0,0,1-1.83,7.81,12,12,0,0,1-5.31,4.92,18.85,18.85,0,0,1-8.32,1.7H9.81Z" transform="translate(0 -11.09)"/><path class="cls-1" d="M42.28,239h11v65.8h-11Zm5,27.22H59.15a5.63,5.63,0,0,0,2.51-.52,3.56,3.56,0,0,0,1.6-1.49,4.75,4.75,0,0,0,.55-2.33v-7.33a5.7,5.7,0,0,0-.55-2.57,3.6,3.6,0,0,0-1.6-1.65,5.25,5.25,0,0,0-2.51-.57H47.3V239H58.47a21.65,21.65,0,0,1,9.11,1.74,12.64,12.64,0,0,1,5.77,5.11,15.65,15.65,0,0,1,2,8.07v7.69a16.47,16.47,0,0,1-2,8.3,13,13,0,0,1-5.79,5.27,21.05,21.05,0,0,1-9.09,1.8H47.3Zm9.13,8.73,10.27-2.08,10.49,31.93h-12Z" transform="translate(0 -11.09)"/><path class="cls-1" d="M82.26,239H93.47v65.76H82.26Zm5,0h24.24v11H87.23Zm0,27.63h22v10.9h-22Zm0,27.18h24.24v10.95H87.23Z" transform="translate(0 -11.09)"/><path class="cls-1" d="M148.24,269.27v19.67a19.05,19.05,0,0,1-1.92,8.86,13.21,13.21,0,0,1-5.59,5.68,18.29,18.29,0,0,1-8.77,2,19.28,19.28,0,0,1-8.91-1.9,13.06,13.06,0,0,1-5.67-5.51,17.73,17.73,0,0,1-2-8.64v-34.1a20.1,20.1,0,0,1,1.92-9.11,13.24,13.24,0,0,1,5.59-5.83,20,20,0,0,1,17.38-.07,13.05,13.05,0,0,1,5.5,5.65,19.31,19.31,0,0,1,1.9,8.86v5.07H136.17v-5.07a6.39,6.39,0,0,0-.55-2.73,3.89,3.89,0,0,0-1.56-1.76,4.5,4.5,0,0,0-2.37-.61,4.89,4.89,0,0,0-2.6.67,4.39,4.39,0,0,0-1.7,1.95,7,7,0,0,0-.59,3v34.1a4.9,4.9,0,0,0,.61,2.46,4,4,0,0,0,1.79,1.63,6.24,6.24,0,0,0,2.76.57,6.41,6.41,0,0,0,2.83-.59,4.17,4.17,0,0,0,1.83-1.72,5.48,5.48,0,0,0,.63-2.71v-9h-5.52V269.27Z" transform="translate(0 -11.09)"/><path class="cls-1" d="M159.16,303.48a12.9,12.9,0,0,1-5.4-5.7,19.85,19.85,0,0,1-1.86-8.93V239h11.26v50.15a5.5,5.5,0,0,0,1.18,3.74,4.14,4.14,0,0,0,3.26,1.33,4.27,4.27,0,0,0,3.32-1.33,5.4,5.4,0,0,0,1.2-3.74V239h11.26v49.84a19.71,19.71,0,0,1-1.88,8.93,13.05,13.05,0,0,1-5.42,5.7,19.24,19.24,0,0,1-16.92,0Z" transform="translate(0 -11.09)"/><path class="cls-1" d="M188,239h8.82l15.46,43.87L211,284.64V239h10.22v65.71h-8.91L197,263.39l1.17-1.81v43.14H188Z" transform="translate(0 -11.09)"/><path class="cls-1" d="M226.52,239h32.93v10.77H226.52Zm10.86,5.52h11.21v60.24H237.38Z" transform="translate(0 -11.09)"/><path class="cls-1" d="M271.39,239h7.87L295,304.77H283.82l-8.5-43.1-8.5,43.1H255.69Zm-5,45h17.9v10.5h-17.9Z" transform="translate(0 -11.09)"/><path class="cls-1" d="M301.1,303.52a13.25,13.25,0,0,1-5.68-5.56,18.18,18.18,0,0,1-2-8.75v-3.53l11.17-.09v3.53A5.31,5.31,0,0,0,306,293a5.2,5.2,0,0,0,3.89,1.43,4.93,4.93,0,0,0,3.77-1.41,5.33,5.33,0,0,0,1.34-3.84v-5.74a5,5,0,0,0-1-3.15,9.33,9.33,0,0,0-2.62-2.3q-1.61-1-4.37-2.33l-.34-.18-.33-.18-.59-.28a37.54,37.54,0,0,1-6.24-3.86,15.92,15.92,0,0,1-4.3-5.32,17.41,17.41,0,0,1-1.72-8.14v-3.39a18,18,0,0,1,1.92-8.61,13,13,0,0,1,5.59-5.5,19,19,0,0,1,8.82-1.9,18.41,18.41,0,0,1,8.63,1.9,12.79,12.79,0,0,1,5.52,5.54,18.68,18.68,0,0,1,1.9,8.75v3.71l-11.17.14v-3.76a5.68,5.68,0,0,0-1.29-4,4.6,4.6,0,0,0-3.59-1.43,5.22,5.22,0,0,0-3.78,1.29,4.7,4.7,0,0,0-1.33,3.55v4.39a5.37,5.37,0,0,0,1,3.21,8.73,8.73,0,0,0,2.44,2.28c1,.62,2.35,1.37,4.09,2.24.34.15.67.32,1,.5l1.06.54.16.09.16.09a50.66,50.66,0,0,1,6.06,3.69,13.69,13.69,0,0,1,3.93,4.77,16.68,16.68,0,0,1,1.63,7.87v5.47a18.53,18.53,0,0,1-1.92,8.75,13,13,0,0,1-5.58,5.56,18.72,18.72,0,0,1-8.78,1.92A19.05,19.05,0,0,1,301.1,303.52Z" transform="translate(0 -11.09)"/></g></g></svg>