<svg xmlns="http://www.w3.org/2000/svg" viewBox="0 0 449.56 246.74"><defs><style>.cls-1{fill:#e3051b;}</style></defs><g id="Capa_2" data-name="Capa 2"><g id="textos"><path d="M3.11,14.9h7.21V58.08H3.11ZM6.4,32.77h7.78a3.86,3.86,0,0,0,1.65-.34,2.43,2.43,0,0,0,1-1,3.09,3.09,0,0,0,.36-1.53V25.11a3.7,3.7,0,0,0-.36-1.69,2.46,2.46,0,0,0-1-1.09A3.58,3.58,0,0,0,14.18,22H6.4V14.9h7.34a14.27,14.27,0,0,1,6,1.14A8.27,8.27,0,0,1,23.5,19.4a10.22,10.22,0,0,1,1.31,5.29v5a10.78,10.78,0,0,1-1.31,5.45,8.45,8.45,0,0,1-3.8,3.45,13.63,13.63,0,0,1-6,1.19H6.4Zm6,5.73,6.74-1.37L26,58.08H18.13Z" transform="translate(-3.11 0)"/><path d="M29.35,14.93h7.36V58.08H29.35Zm3.26,0H48.52v7.18H32.61Zm0,18.13H47v7.16H32.61Zm0,17.84H48.52v7.18H32.61Z" transform="translate(-3.11 0)"/><path d="M72.65,34.79V47.7a12.49,12.49,0,0,1-1.26,5.81,8.62,8.62,0,0,1-3.66,3.73A12.07,12.07,0,0,1,62,58.53a12.7,12.7,0,0,1-5.85-1.25,8.56,8.56,0,0,1-3.72-3.62A11.7,11.7,0,0,1,51.11,48V25.61a13.22,13.22,0,0,1,1.26-6A8.75,8.75,0,0,1,56,15.8a11.81,11.81,0,0,1,5.76-1.32,11.77,11.77,0,0,1,5.66,1.28,8.55,8.55,0,0,1,3.6,3.71,12.63,12.63,0,0,1,1.25,5.82v3.32H64.73V25.29a4.16,4.16,0,0,0-.36-1.8,2.63,2.63,0,0,0-1-1.16,3.07,3.07,0,0,0-1.56-.4,3.21,3.21,0,0,0-1.71.45A2.93,2.93,0,0,0,59,23.65a4.6,4.6,0,0,0-.38,2V48a3.14,3.14,0,0,0,.4,1.62,2.54,2.54,0,0,0,1.17,1.07,4.6,4.6,0,0,0,3.66,0A2.68,2.68,0,0,0,65,49.54a3.69,3.69,0,0,0,.41-1.78V41.85H61.82V34.79Z" transform="translate(-3.11 0)"/><path d="M75.18,7.75,82.66,0l5.4,5.19-8.19,7.07ZM82.9,58.08H75.53V14.93H82.9Z" transform="translate(-3.11 0)"/><path d="M90.79,57.27a8.68,8.68,0,0,1-3.72-3.65,12,12,0,0,1-1.29-5.75V45.56l7.33-.06v2.31A3.47,3.47,0,0,0,94,50.38a3.38,3.38,0,0,0,2.55.94,3.28,3.28,0,0,0,2.48-.92,3.55,3.55,0,0,0,.87-2.53V44.1A3.34,3.34,0,0,0,99.27,42a6.08,6.08,0,0,0-1.73-1.51c-.7-.43-1.65-.94-2.86-1.53l-.22-.12-.23-.12-.38-.18a25.23,25.23,0,0,1-4.1-2.53,10.47,10.47,0,0,1-2.82-3.49,11.52,11.52,0,0,1-1.12-5.34V25a11.82,11.82,0,0,1,1.26-5.65,8.45,8.45,0,0,1,3.66-3.61,12.44,12.44,0,0,1,5.79-1.25,12,12,0,0,1,5.67,1.25,8.38,8.38,0,0,1,3.62,3.64,12.26,12.26,0,0,1,1.25,5.74v2.43l-7.33.09V25.17a3.75,3.75,0,0,0-.85-2.6,3,3,0,0,0-2.36-.93,3.43,3.43,0,0,0-2.48.84,3.11,3.11,0,0,0-.87,2.33v2.88a3.56,3.56,0,0,0,.63,2.11,5.78,5.78,0,0,0,1.61,1.5c.64.4,1.54.89,2.68,1.47.22.1.44.2.67.32l.7.36.1.06.11.06a32.94,32.94,0,0,1,4,2.42,9.08,9.08,0,0,1,2.59,3.13,11,11,0,0,1,1.06,5.16v3.59A12.2,12.2,0,0,1,106,53.62a8.54,8.54,0,0,1-3.66,3.65,12.3,12.3,0,0,1-5.76,1.26A12.5,12.5,0,0,1,90.79,57.27Z" transform="translate(-3.11 0)"/><path d="M108.39,14.93H130V22H108.39Zm7.13,3.62h7.36V58.08h-7.36Z" transform="translate(-3.11 0)"/><path d="M132.29,14.9h7.21V58.08h-7.21Zm3.29,17.87h7.78a3.86,3.86,0,0,0,1.65-.34,2.43,2.43,0,0,0,1.05-1,3.09,3.09,0,0,0,.36-1.53V25.11a3.7,3.7,0,0,0-.36-1.69A2.46,2.46,0,0,0,145,22.33a3.58,3.58,0,0,0-1.65-.37h-7.78V14.9h7.33a14.21,14.21,0,0,1,6,1.14,8.24,8.24,0,0,1,3.79,3.36,10.22,10.22,0,0,1,1.3,5.29v5a10.78,10.78,0,0,1-1.3,5.45,8.45,8.45,0,0,1-3.8,3.45,13.64,13.64,0,0,1-6,1.19h-7.33Zm6,5.73,6.74-1.37,6.88,20.95h-7.89Z" transform="translate(-3.11 0)"/><path d="M165.26,14.93h5.17l10.3,43.15h-7.3L167.85,29.8l-5.58,28.28H155ZM162,44.49h11.75v6.89H162Z" transform="translate(-3.11 0)"/><path d="M178.56,14.93h21.61V22H178.56Zm7.13,3.62h7.36V58.08h-7.36Z" transform="translate(-3.11 0)"/><path d="M202.46,14.93h7.36V58.08h-7.36Zm3.26,0h15.91v7.18H205.72Zm0,18.13h14.43v7.16H205.72Zm0,17.84h15.91v7.18H205.72Z" transform="translate(-3.11 0)"/><path d="M247.1,41.55V58.08h-7.36V41.55l-8.07-26.62h7.65l4,17.87,3.86-17.87h7.66Z" transform="translate(-3.11 0)"/><path d="M266.39,14.93h7.36V58.08h-7.36Zm3.45,19.35h7.63a2.8,2.8,0,0,0,1.54-.42,2.71,2.71,0,0,0,1-1.21,4.81,4.81,0,0,0,.35-1.9V25.67a5.21,5.21,0,0,0-.34-2,2.75,2.75,0,0,0-1-1.26,2.86,2.86,0,0,0-1.57-.43h-7.63V14.93h7.83a12.17,12.17,0,0,1,5.49,1.13,7.75,7.75,0,0,1,3.48,3.31,10.8,10.8,0,0,1,1.18,5.23v7.28a10.26,10.26,0,0,1-1.2,5.12,7.82,7.82,0,0,1-3.49,3.23,12.37,12.37,0,0,1-5.46,1.11h-7.83Z" transform="translate(-3.11 0)"/><path d="M297.29,14.93h5.17l10.3,43.15h-7.3L299.88,29.8,294.3,58.08H287ZM294,44.49h11.75v6.89H294Z" transform="translate(-3.11 0)"/><path d="M314.75,14.9H322V58.08h-7.21ZM318,32.77h7.78a3.78,3.78,0,0,0,1.64-.34,2.4,2.4,0,0,0,1.06-1,3.09,3.09,0,0,0,.35-1.53V25.11a3.7,3.7,0,0,0-.35-1.69,2.43,2.43,0,0,0-1.06-1.09,3.51,3.51,0,0,0-1.64-.37H318V14.9h7.33a14.21,14.21,0,0,1,6,1.14,8.29,8.29,0,0,1,3.79,3.36,10.22,10.22,0,0,1,1.3,5.29v5a10.78,10.78,0,0,1-1.3,5.45,8.45,8.45,0,0,1-3.8,3.45,13.64,13.64,0,0,1-6,1.19H318Zm6,5.73,6.73-1.37,6.89,20.95h-7.9Z" transform="translate(-3.11 0)"/><path d="M338,14.93h21.6V22H338Zm7.12,3.62h7.36V58.08h-7.36Z" transform="translate(-3.11 0)"/><path d="M368.68,58.08h-7.36V14.93h7.36Z" transform="translate(-3.11 0)"/><path d="M376.93,57.24a8.62,8.62,0,0,1-3.55-3.76,13.15,13.15,0,0,1-1.23-5.93V25.47a13.16,13.16,0,0,1,1.23-5.94,8.73,8.73,0,0,1,3.55-3.76,11.28,11.28,0,0,1,5.58-1.29,11.42,11.42,0,0,1,5.6,1.29,8.51,8.51,0,0,1,3.54,3.77,13.44,13.44,0,0,1,1.22,5.95V29h-7.45V25.49a4.91,4.91,0,0,0-.33-1.89,2.56,2.56,0,0,0-1-1.24,3,3,0,0,0-1.59-.43,2.77,2.77,0,0,0-1.54.42,2.59,2.59,0,0,0-1,1.22,4.92,4.92,0,0,0-.34,1.9V47.55a4.82,4.82,0,0,0,.34,1.88,2.54,2.54,0,0,0,1,1.2,2.77,2.77,0,0,0,1.54.42,2.89,2.89,0,0,0,1.6-.42,2.4,2.4,0,0,0,1-1.2,4.92,4.92,0,0,0,.33-1.91V44.05h7.45v3.47a13.41,13.41,0,0,1-1.22,5.95,8.45,8.45,0,0,1-3.54,3.77,11.42,11.42,0,0,1-5.6,1.29A11.28,11.28,0,0,1,376.93,57.24Z" transform="translate(-3.11 0)"/><path d="M402.52,58.08h-7.36V14.93h7.36Z" transform="translate(-3.11 0)"/><path d="M406,14.93h7.36V58.08H406Zm3.44,19.35h7.63a2.81,2.81,0,0,0,1.55-.42,2.63,2.63,0,0,0,1-1.21,4.63,4.63,0,0,0,.36-1.9V25.67a5.21,5.21,0,0,0-.34-2,2.75,2.75,0,0,0-1-1.26,2.87,2.87,0,0,0-1.58-.43h-7.63V14.93h7.84a12.17,12.17,0,0,1,5.49,1.13,7.72,7.72,0,0,1,3.47,3.31,10.8,10.8,0,0,1,1.19,5.23v7.28a10.26,10.26,0,0,1-1.2,5.12,7.87,7.87,0,0,1-3.49,3.23,12.37,12.37,0,0,1-5.46,1.11h-7.84Z" transform="translate(-3.11 0)"/><path d="M436.89,14.93h5.16l10.3,43.15h-7.3L439.47,29.8l-5.58,28.28h-7.3ZM433.6,44.49h11.75v6.89H433.6Z" transform="translate(-3.11 0)"/><path class="cls-1" d="M47.6,114.35v25.4a24.65,24.65,0,0,1-2.48,11.45,17.09,17.09,0,0,1-7.22,7.33,23.67,23.67,0,0,1-11.33,2.54,25,25,0,0,1-11.5-2.45,16.89,16.89,0,0,1-7.33-7.13A22.93,22.93,0,0,1,5.2,140.34v-44A25.87,25.87,0,0,1,7.68,84.53,17.16,17.16,0,0,1,14.89,77a23.25,23.25,0,0,1,11.33-2.6,23.16,23.16,0,0,1,11.13,2.51,16.84,16.84,0,0,1,7.09,7.3A24.8,24.8,0,0,1,46.9,95.66v6.54H32V95.66a8.17,8.17,0,0,0-.7-3.53,5,5,0,0,0-2-2.28,5.82,5.82,0,0,0-3.07-.79,6.28,6.28,0,0,0-3.36.88,5.67,5.67,0,0,0-2.19,2.51,9.15,9.15,0,0,0-.75,3.85v44a6.35,6.35,0,0,0,.78,3.18,5.19,5.19,0,0,0,2.31,2.1,8.08,8.08,0,0,0,3.56.73,8.15,8.15,0,0,0,3.65-.76,5.31,5.31,0,0,0,2.37-2.22,7.1,7.1,0,0,0,.82-3.5V128.25H26.28v-13.9Z" transform="translate(-3.11 0)"/><path class="cls-1" d="M61.7,158.53a16.79,16.79,0,0,1-7-7.36,25.75,25.75,0,0,1-2.39-11.53V75.28H66.87V140a7.05,7.05,0,0,0,1.52,4.82,5.31,5.31,0,0,0,4.21,1.73,5.47,5.47,0,0,0,4.29-1.73A7,7,0,0,0,78.44,140V75.28H93v64.36a25.35,25.35,0,0,1-2.43,11.53,16.89,16.89,0,0,1-7,7.36,22.32,22.32,0,0,1-11,2.54A22.2,22.2,0,0,1,61.7,158.53Z" transform="translate(-3.11 0)"/><path class="cls-1" d="M112.72,75.28h10.16l20.27,84.91H128.78l-11-55.65-11,55.65H92.45Zm-6.48,58.16h23.12V147H106.24Z" transform="translate(-3.11 0)"/><path class="cls-1" d="M147.06,75.22h14.19v85H147.06Zm6.48,35.16h15.31a7.3,7.3,0,0,0,3.24-.68,4.65,4.65,0,0,0,2.07-1.92,6.06,6.06,0,0,0,.7-3V95.31a7.31,7.31,0,0,0-.7-3.33,4.84,4.84,0,0,0-2.07-2.13,6.79,6.79,0,0,0-3.24-.73H153.54V75.22H168a28,28,0,0,1,11.77,2.25,16.32,16.32,0,0,1,7.44,6.6,20.05,20.05,0,0,1,2.57,10.42v9.93a21.09,21.09,0,0,1-2.57,10.72,16.64,16.64,0,0,1-7.47,6.8A27,27,0,0,1,168,124.28H153.54Zm11.8,11.27L178.6,119l13.55,41.23H176.61Z" transform="translate(-3.11 0)"/><path class="cls-1" d="M198.69,75.28h14.49v84.91H198.69Zm9.64,71h10.86a5.68,5.68,0,0,0,4.5-1.78,7.28,7.28,0,0,0,1.57-5V96a7.28,7.28,0,0,0-1.57-5,5.68,5.68,0,0,0-4.5-1.78H208.33V75.28h12.32a22.3,22.3,0,0,1,10.4,2.25,15.22,15.22,0,0,1,6.6,6.54,21.66,21.66,0,0,1,2.27,10.25v46.83a21.69,21.69,0,0,1-2.27,10.25,15.23,15.23,0,0,1-6.63,6.54,22.46,22.46,0,0,1-10.43,2.25H208.33Z" transform="translate(-3.11 0)"/><path class="cls-1" d="M260.07,160.19H245.59V75.28h14.48Z" transform="translate(-3.11 0)"/><path class="cls-1" d="M281.92,75.28h10.16l20.27,84.91H298l-11-55.65-11,55.65H261.65Zm-6.48,58.16h23.12V147H275.44Z" transform="translate(-3.11 0)"/><path class="cls-1" d="M316.26,75.28h11.39l20,56.65-1.57,2.27V75.28h13.19v84.85h-11.5L328,106.76l1.52-2.34v55.71H316.26Z" transform="translate(-3.11 0)"/><path class="cls-1" d="M367.25,75.28h14.48v84.91H367.25Zm6.42,0H405V89.41h-31.3Zm0,35.68h28.38V125H373.67Zm0,35.1H405v14.13h-31.3Z" transform="translate(-3.11 0)"/><path class="cls-1" d="M418.76,158.59a17.07,17.07,0,0,1-7.33-7.19,23.49,23.49,0,0,1-2.54-11.3v-4.55l14.43-.12V140a6.88,6.88,0,0,0,1.81,5,6.74,6.74,0,0,0,5,1.84,6.41,6.41,0,0,0,4.87-1.81,6.93,6.93,0,0,0,1.73-5v-7.41a6.48,6.48,0,0,0-1.32-4.06,12,12,0,0,0-3.38-3q-2.08-1.26-5.64-3l-.44-.23-.44-.24-.75-.35a48.75,48.75,0,0,1-8.06-5,20.6,20.6,0,0,1-5.55-6.86A22.57,22.57,0,0,1,409,99.46V95.07A23.32,23.32,0,0,1,411.43,84a16.7,16.7,0,0,1,7.21-7.1A24.56,24.56,0,0,1,430,74.4a23.81,23.81,0,0,1,11.16,2.45A16.52,16.52,0,0,1,448.31,84a24.08,24.08,0,0,1,2.45,11.3v4.79l-14.42.17V95.43a7.33,7.33,0,0,0-1.67-5.11A5.92,5.92,0,0,0,430,88.48a6.74,6.74,0,0,0-4.88,1.66,6.11,6.11,0,0,0-1.72,4.58v5.67a6.92,6.92,0,0,0,1.26,4.15,11.26,11.26,0,0,0,3.15,2.95c1.27.79,3,1.76,5.29,2.89.42.19.86.4,1.31.64l1.37.7.21.12.2.11a65.78,65.78,0,0,1,7.83,4.76,17.92,17.92,0,0,1,5.08,6.16,21.68,21.68,0,0,1,2.1,10.17v7.06a24,24,0,0,1-2.48,11.3,16.85,16.85,0,0,1-7.21,7.19,24.17,24.17,0,0,1-11.33,2.48A24.65,24.65,0,0,1,418.76,158.59Z" transform="translate(-3.11 0)"/><path class="cls-1" d="M4.29,175.94h12V246H4.29Zm8,58.61h9a4.71,4.71,0,0,0,3.71-1.47,6.06,6.06,0,0,0,1.3-4.12V193a6.06,6.06,0,0,0-1.3-4.12,4.71,4.71,0,0,0-3.71-1.47h-9V175.94H22.41A18.36,18.36,0,0,1,31,177.8a12.61,12.61,0,0,1,5.45,5.39,17.9,17.9,0,0,1,1.88,8.46v38.66a17.84,17.84,0,0,1-1.88,8.45,12.57,12.57,0,0,1-5.47,5.4A18.55,18.55,0,0,1,22.36,246H12.24Z" transform="translate(-3.11 0)"/><path class="cls-1" d="M44,175.94H55.91V246H44Zm5.3,0H75.09V187.6H49.26Zm0,29.45H72.68V217H49.26Zm0,29H75.09V246H49.26Z" transform="translate(-3.11 0)"/><path class="cls-1" d="M97.17,175.94h12V246h-12Zm4.91,58.61h25.26V246H102.08Z" transform="translate(-3.11 0)"/><path class="cls-1" d="M145.85,175.94h8.38L171,246H159.1L150,200.09,141,246H129.12Zm-5.35,48h19.08v11.19H140.5Z" transform="translate(-3.11 0)"/><path class="cls-1" d="M199.83,244.64a13.86,13.86,0,0,1-5.76-6.09,21.41,21.41,0,0,1-2-9.64V193.05a21.41,21.41,0,0,1,2-9.64,13.86,13.86,0,0,1,5.76-6.09,20.64,20.64,0,0,1,18.14,0,13.56,13.56,0,0,1,5.76,6.12,21.67,21.67,0,0,1,2,9.66v5.64h-12.1V193.1a8.06,8.06,0,0,0-.53-3.09,4.22,4.22,0,0,0-1.61-2,4.69,4.69,0,0,0-2.58-.69,4.59,4.59,0,0,0-2.51.67,4.26,4.26,0,0,0-1.61,2,7.78,7.78,0,0,0-.55,3.08v35.86a7.64,7.64,0,0,0,.55,3.06,4.28,4.28,0,0,0,1.61,1.95,4.6,4.6,0,0,0,2.51.68,4.72,4.72,0,0,0,2.6-.68,4.07,4.07,0,0,0,1.59-1.95,8,8,0,0,0,.53-3.11v-5.64h12.1v5.64a21.67,21.67,0,0,1-2,9.66,13.56,13.56,0,0,1-5.76,6.12,20.64,20.64,0,0,1-18.14,0Z" transform="translate(-3.11 0)"/><path class="cls-1" d="M230.39,175.94h12V246h-12Zm5.3,0h25.83V187.6H235.69Zm0,29.45h23.42V217H235.69Zm0,29h25.83V246H235.69Z" transform="translate(-3.11 0)"/><path class="cls-1" d="M265.72,175.89h11.71V246H265.72Zm5.35,29h12.62a6,6,0,0,0,2.68-.56,3.88,3.88,0,0,0,1.71-1.59,5.08,5.08,0,0,0,.58-2.48v-7.81a6.12,6.12,0,0,0-.58-2.74,3.94,3.94,0,0,0-1.71-1.76,5.55,5.55,0,0,0-2.68-.61H271.07V175.89H283a23,23,0,0,1,9.71,1.86,13.56,13.56,0,0,1,6.15,5.44A16.71,16.71,0,0,1,301,191.8V200a17.45,17.45,0,0,1-2.12,8.84,13.77,13.77,0,0,1-6.17,5.62,22.45,22.45,0,0,1-9.69,1.93h-11.9Zm9.73,9.3L291.74,212l11.18,34H290.1Z" transform="translate(-3.11 0)"/><path class="cls-1" d="M303.5,175.94h12.68l6.7,48.39,6.7-48.39h12.67L329.34,246H316.42Z" transform="translate(-3.11 0)"/><path class="cls-1" d="M345,175.94H357V246H345Zm5.3,0h25.84V187.6H350.3Zm0,29.45h23.43V217H350.3Zm0,29h25.84V246H350.3Z" transform="translate(-3.11 0)"/><path class="cls-1" d="M409.3,186.54l-17.4,48h17.88V246H379.61V235.41l17.54-48H380.48V175.94H409.3Z" transform="translate(-3.11 0)"/><path class="cls-1" d="M427.56,175.94H436L452.67,246H440.82l-9.06-45.93L422.7,246H410.84Zm-5.35,48H441.3v11.19H422.21Z" transform="translate(-3.11 0)"/></g></g></svg>