<svg xmlns="http://www.w3.org/2000/svg" viewBox="0 0 449.88 240.46"><defs><style>.cls-1{fill:#e3051b;}</style></defs><g id="Capa_2" data-name="Capa 2"><g id="textos"><path d="M11.16,59.07H2.8V10h8.36Z" transform="translate(-2.8 -9.51)"/><path d="M15.11,10h6.58L33.23,42.74l-.91,1.32V10h7.62V59H33.29L21.89,28.2l.88-1.35V59H15.11Z" transform="translate(-2.8 -9.51)"/><path d="M69.05,32.59V47.26a14.11,14.11,0,0,1-1.43,6.61,9.81,9.81,0,0,1-4.17,4.24,13.61,13.61,0,0,1-6.54,1.47,14.51,14.51,0,0,1-6.65-1.42A9.84,9.84,0,0,1,46,54a13.26,13.26,0,0,1-1.47-6.44V22.16A14.89,14.89,0,0,1,46,15.37,10,10,0,0,1,50.16,11a13.43,13.43,0,0,1,6.55-1.5A13.38,13.38,0,0,1,63.13,11a9.72,9.72,0,0,1,4.1,4.22,14.3,14.3,0,0,1,1.42,6.61v3.78h-8.6V21.79a4.79,4.79,0,0,0-.41-2,3,3,0,0,0-1.16-1.31A3.34,3.34,0,0,0,56.71,18a3.6,3.6,0,0,0-1.94.51,3.22,3.22,0,0,0-1.27,1.45,5.26,5.26,0,0,0-.44,2.22V47.6a3.67,3.67,0,0,0,.46,1.84,3,3,0,0,0,1.33,1.21,4.74,4.74,0,0,0,2.06.42A4.79,4.79,0,0,0,59,50.64a3.09,3.09,0,0,0,1.36-1.29,4,4,0,0,0,.48-2V40.62H56.74v-8Z" transform="translate(-2.8 -9.51)"/><path d="M73,10h8.2V59.07H73Zm3.75,20.3h8.84a4.19,4.19,0,0,0,1.87-.38,2.66,2.66,0,0,0,1.2-1.12,3.48,3.48,0,0,0,.4-1.73V21.59a4.25,4.25,0,0,0-.4-1.92,2.75,2.75,0,0,0-1.2-1.23A3.94,3.94,0,0,0,85.59,18H76.75V10h8.33a16.27,16.27,0,0,1,6.8,1.29,9.49,9.49,0,0,1,4.3,3.82,11.61,11.61,0,0,1,1.48,6v5.73A12.2,12.2,0,0,1,96.18,33,9.6,9.6,0,0,1,91.86,37a15.65,15.65,0,0,1-6.78,1.35H76.75Zm6.81,6.51,7.66-1.55,7.83,23.82h-9Z" transform="translate(-2.8 -9.51)"/><path d="M102.83,10h8.36V59.07h-8.36Zm3.71,0h18.08v8.16H106.54Zm0,20.61h16.39v8.13H106.54Zm0,20.28h18.08v8.16H106.54Z" transform="translate(-2.8 -9.51)"/><path d="M132.58,58.14A9.85,9.85,0,0,1,128.35,54a13.51,13.51,0,0,1-1.47-6.52V44.83l8.33-.06V47.4a4,4,0,0,0,1,2.92,3.91,3.91,0,0,0,2.9,1.06A3.72,3.72,0,0,0,142,50.33a4,4,0,0,0,1-2.86V43.18a3.71,3.71,0,0,0-.76-2.34,6.8,6.8,0,0,0-2-1.72c-.8-.49-1.89-1.07-3.26-1.74l-.25-.14-.26-.13-.43-.2A28.65,28.65,0,0,1,131.4,34a11.85,11.85,0,0,1-3.2-4A13,13,0,0,1,126.91,24V21.46A13.42,13.42,0,0,1,128.35,15a9.58,9.58,0,0,1,4.16-4.1,14.23,14.23,0,0,1,6.58-1.42,13.77,13.77,0,0,1,6.45,1.42,9.53,9.53,0,0,1,4.11,4.13,13.9,13.9,0,0,1,1.42,6.53v2.77l-8.33.1v-2.8a4.18,4.18,0,0,0-1-2.95,3.42,3.42,0,0,0-2.68-1.07,3.88,3.88,0,0,0-2.81,1,3.51,3.51,0,0,0-1,2.65v3.28a3.94,3.94,0,0,0,.73,2.39,6.3,6.3,0,0,0,1.82,1.7,34.25,34.25,0,0,0,3,1.67c.25.12.5.24.76.38l.79.4.12.07.12.06A38.42,38.42,0,0,1,147.19,34a10.31,10.31,0,0,1,2.93,3.56,12.5,12.5,0,0,1,1.22,5.87v4.09A13.74,13.74,0,0,1,149.9,54a9.64,9.64,0,0,1-4.16,4.15,13.89,13.89,0,0,1-6.55,1.44A14.17,14.17,0,0,1,132.58,58.14Z" transform="translate(-2.8 -9.51)"/><path d="M165.31,10h5.87l11.7,49.05h-8.3l-6.34-32.15L161.9,59.07h-8.3Zm-3.75,33.6h13.36v7.83H161.56Z" transform="translate(-2.8 -9.51)"/><path d="M211.15,40.28V59.07h-8.36V40.28L193.61,10h8.71l4.58,20.31L211.29,10H220Z" transform="translate(-2.8 -9.51)"/><path d="M233.08,10h8.37V59.07h-8.37ZM237,32h8.67a3.14,3.14,0,0,0,1.75-.47,3,3,0,0,0,1.15-1.38A5.3,5.3,0,0,0,249,28V22.23a6.11,6.11,0,0,0-.38-2.26,3,3,0,0,0-1.13-1.43,3.18,3.18,0,0,0-1.79-.49H237V10h8.9a14,14,0,0,1,6.24,1.28,8.83,8.83,0,0,1,3.95,3.76,12.32,12.32,0,0,1,1.35,6v8.26a11.55,11.55,0,0,1-1.37,5.82,8.89,8.89,0,0,1-4,3.68A14.1,14.1,0,0,1,245.9,40H237Z" transform="translate(-2.8 -9.51)"/><path d="M268.2,10h5.87l11.71,49.05h-8.3l-6.34-32.15L264.8,59.07h-8.3Zm-3.74,33.6h13.36v7.83H264.46Z" transform="translate(-2.8 -9.51)"/><path d="M288,10h8.2V59.07H288Zm3.75,20.3h8.83a4.24,4.24,0,0,0,1.88-.38,2.64,2.64,0,0,0,1.19-1.12,3.49,3.49,0,0,0,.41-1.73V21.59a4.25,4.25,0,0,0-.41-1.92,2.72,2.72,0,0,0-1.19-1.23,4,4,0,0,0-1.88-.43h-8.83V10h8.33a16.27,16.27,0,0,1,6.8,1.29,9.49,9.49,0,0,1,4.3,3.82,11.61,11.61,0,0,1,1.48,6v5.73A12.2,12.2,0,0,1,311.22,33,9.6,9.6,0,0,1,306.9,37a15.65,15.65,0,0,1-6.78,1.35h-8.33Zm6.81,6.51,7.66-1.55,7.82,23.82h-9Z" transform="translate(-2.8 -9.51)"/><path d="M314.49,10h24.56v8H314.49Zm8.1,4.12H331V59.07h-8.36Z" transform="translate(-2.8 -9.51)"/><path d="M349.34,59.07H341V10h8.37Z" transform="translate(-2.8 -9.51)"/><path d="M358.72,58.11a9.74,9.74,0,0,1-4-4.27,15,15,0,0,1-1.4-6.75V22a15,15,0,0,1,1.4-6.75,9.74,9.74,0,0,1,4-4.27,14.45,14.45,0,0,1,12.7,0,9.58,9.58,0,0,1,4,4.29A15.2,15.2,0,0,1,376.84,22V26h-8.47V22a5.88,5.88,0,0,0-.37-2.16,3,3,0,0,0-1.13-1.4,3.54,3.54,0,0,0-3.56,0,3,3,0,0,0-1.13,1.39,5.41,5.41,0,0,0-.39,2.16V47.09a5.36,5.36,0,0,0,.39,2.15,2.93,2.93,0,0,0,1.13,1.36,3.14,3.14,0,0,0,1.75.47,3.27,3.27,0,0,0,1.82-.47A2.86,2.86,0,0,0,368,49.24a5.84,5.84,0,0,0,.37-2.18v-4h8.47v4a15.2,15.2,0,0,1-1.39,6.76,9.58,9.58,0,0,1-4,4.29,14.45,14.45,0,0,1-12.7,0Z" transform="translate(-2.8 -9.51)"/><path d="M387.8,59.07h-8.36V10h8.36Z" transform="translate(-2.8 -9.51)"/><path d="M391.75,10h8.37V59.07h-8.37Zm3.91,22h8.67a3.17,3.17,0,0,0,1.76-.47,3,3,0,0,0,1.14-1.38,5.3,5.3,0,0,0,.41-2.16V22.23a5.9,5.9,0,0,0-.39-2.26,3,3,0,0,0-1.13-1.43,3.14,3.14,0,0,0-1.79-.49h-8.67V10h8.91a14,14,0,0,1,6.24,1.28,8.88,8.88,0,0,1,3.95,3.76,12.32,12.32,0,0,1,1.35,6v8.26a11.65,11.65,0,0,1-1.37,5.82,8.89,8.89,0,0,1-4,3.68A14.13,14.13,0,0,1,404.57,40h-8.91Z" transform="translate(-2.8 -9.51)"/><path d="M426.87,10h5.87l11.71,49.05h-8.3L429.8,26.92l-6.34,32.15h-8.3Zm-3.75,33.6h13.36v7.83H423.12Z" transform="translate(-2.8 -9.51)"/><path class="cls-1" d="M47.6,117.58V143a24.65,24.65,0,0,1-2.48,11.45,17,17,0,0,1-7.22,7.33,23.67,23.67,0,0,1-11.33,2.54,25,25,0,0,1-11.5-2.45,16.89,16.89,0,0,1-7.33-7.13A22.93,22.93,0,0,1,5.2,143.57v-44A25.83,25.83,0,0,1,7.68,87.77a17.18,17.18,0,0,1,7.21-7.54,23.25,23.25,0,0,1,11.33-2.6,23.16,23.16,0,0,1,11.13,2.51,16.84,16.84,0,0,1,7.09,7.3A24.8,24.8,0,0,1,46.9,98.89v6.54H32V98.89a8.17,8.17,0,0,0-.7-3.53,5.09,5.09,0,0,0-2-2.28,5.82,5.82,0,0,0-3.07-.79,6.28,6.28,0,0,0-3.36.88,5.67,5.67,0,0,0-2.19,2.51,9.15,9.15,0,0,0-.75,3.85v44a6.32,6.32,0,0,0,.78,3.18,5.13,5.13,0,0,0,2.31,2.1,8.08,8.08,0,0,0,3.56.73,8.15,8.15,0,0,0,3.65-.76,5.31,5.31,0,0,0,2.37-2.22,7.1,7.1,0,0,0,.82-3.5V131.48H26.28v-13.9Z" transform="translate(-2.8 -9.51)"/><path class="cls-1" d="M61.7,161.76a16.74,16.74,0,0,1-7-7.36,25.75,25.75,0,0,1-2.39-11.53V78.51H66.87v64.77a7,7,0,0,0,1.52,4.81,5.31,5.31,0,0,0,4.21,1.73,5.47,5.47,0,0,0,4.29-1.73,6.94,6.94,0,0,0,1.55-4.81V78.51H93v64.36a25.35,25.35,0,0,1-2.43,11.53,16.84,16.84,0,0,1-7,7.36,22.32,22.32,0,0,1-11,2.54A22.2,22.2,0,0,1,61.7,161.76Z" transform="translate(-2.8 -9.51)"/><path class="cls-1" d="M112.72,78.51h10.16l20.27,84.91H128.78l-11-55.65-11,55.65H92.45Zm-6.48,58.17h23.12v13.55H106.24Z" transform="translate(-2.8 -9.51)"/><path class="cls-1" d="M147.06,78.45h14.19v85H147.06Zm6.48,35.16h15.31a7.44,7.44,0,0,0,3.24-.67,4.67,4.67,0,0,0,2.07-1.93,6.06,6.06,0,0,0,.7-3V98.54a7.36,7.36,0,0,0-.7-3.33,4.84,4.84,0,0,0-2.07-2.13,6.79,6.79,0,0,0-3.24-.73H153.54V78.45H168a28,28,0,0,1,11.77,2.25,16.32,16.32,0,0,1,7.44,6.6,20.05,20.05,0,0,1,2.57,10.42v9.93a21.09,21.09,0,0,1-2.57,10.72,16.59,16.59,0,0,1-7.47,6.8A27,27,0,0,1,168,127.51H153.54Zm11.8,11.27,13.26-2.69,13.55,41.23H176.61Z" transform="translate(-2.8 -9.51)"/><path class="cls-1" d="M198.69,78.51h14.49v84.91H198.69Zm9.64,71h10.86a5.68,5.68,0,0,0,4.5-1.78,7.27,7.27,0,0,0,1.57-5V99.18a7.28,7.28,0,0,0-1.57-5,5.68,5.68,0,0,0-4.5-1.78H208.33V78.51h12.32a22.3,22.3,0,0,1,10.4,2.25,15.32,15.32,0,0,1,6.6,6.54,21.69,21.69,0,0,1,2.27,10.25v46.84a21.65,21.65,0,0,1-2.27,10.24,15.25,15.25,0,0,1-6.63,6.55,22.46,22.46,0,0,1-10.43,2.24H208.33Z" transform="translate(-2.8 -9.51)"/><path class="cls-1" d="M260.07,163.42H245.59V78.51h14.48Z" transform="translate(-2.8 -9.51)"/><path class="cls-1" d="M281.92,78.51h10.16l20.27,84.91H298l-11-55.65-11,55.65H261.65Zm-6.48,58.17h23.12v13.55H275.44Z" transform="translate(-2.8 -9.51)"/><path class="cls-1" d="M316.26,78.51h11.39l20,56.65-1.57,2.28V78.51h13.19v84.86h-11.5L328,110l1.52-2.34v55.72H316.26Z" transform="translate(-2.8 -9.51)"/><path class="cls-1" d="M367.25,78.51h14.48v84.91H367.25Zm6.42,0H405V92.64h-31.3Zm0,35.68h28.38v14.08H373.67Zm0,35.1H405v14.13h-31.3Z" transform="translate(-2.8 -9.51)"/><path class="cls-1" d="M418.76,161.82a17.07,17.07,0,0,1-7.33-7.19,23.49,23.49,0,0,1-2.54-11.3v-4.55l14.43-.12v4.56a6.88,6.88,0,0,0,1.81,5.05,6.7,6.7,0,0,0,5,1.84A6.38,6.38,0,0,0,435,148.3a6.91,6.91,0,0,0,1.73-5v-7.41a6.48,6.48,0,0,0-1.32-4.06,12,12,0,0,0-3.38-3q-2.08-1.26-5.64-3l-.44-.23-.44-.24-.75-.35a48.75,48.75,0,0,1-8.06-5,20.6,20.6,0,0,1-5.55-6.86A22.57,22.57,0,0,1,409,102.69V98.31a23.36,23.36,0,0,1,2.48-11.13,16.68,16.68,0,0,1,7.21-7.09A24.43,24.43,0,0,1,430,77.63a23.69,23.69,0,0,1,11.16,2.46,16.5,16.5,0,0,1,7.12,7.15,24.08,24.08,0,0,1,2.45,11.3v4.79l-14.42.17V98.66a7.33,7.33,0,0,0-1.67-5.11A5.92,5.92,0,0,0,430,91.71a6.74,6.74,0,0,0-4.88,1.66A6.12,6.12,0,0,0,423.43,98v5.66a6.92,6.92,0,0,0,1.26,4.15,11.11,11.11,0,0,0,3.15,3q1.91,1.2,5.29,2.89c.42.19.86.41,1.31.64l1.37.7.21.12a1,1,0,0,0,.2.11,65.78,65.78,0,0,1,7.83,4.76,17.86,17.86,0,0,1,5.08,6.17,21.61,21.61,0,0,1,2.1,10.16v7.06a24,24,0,0,1-2.48,11.3,16.85,16.85,0,0,1-7.21,7.19,24.17,24.17,0,0,1-11.33,2.48A24.65,24.65,0,0,1,418.76,161.82Z" transform="translate(-2.8 -9.51)"/><path class="cls-1" d="M4.29,179.17h12v70.08H4.29Zm8,58.61h9a4.71,4.71,0,0,0,3.71-1.47,6,6,0,0,0,1.3-4.12v-36a6.06,6.06,0,0,0-1.3-4.12,4.71,4.71,0,0,0-3.71-1.47h-9V179.17H22.41A18.36,18.36,0,0,1,31,181a12.63,12.63,0,0,1,5.45,5.4,17.84,17.84,0,0,1,1.88,8.45v38.66A17.9,17.9,0,0,1,36.44,242,12.6,12.6,0,0,1,31,247.39a18.55,18.55,0,0,1-8.61,1.86H12.24Z" transform="translate(-2.8 -9.51)"/><path class="cls-1" d="M44,179.17H55.91v70.08H44Zm5.3,0H75.09v11.67H49.26Zm0,29.45H72.68v11.62H49.26Zm0,29H75.09v11.66H49.26Z" transform="translate(-2.8 -9.51)"/><path class="cls-1" d="M97.17,179.17h12v70.08h-12Zm4.91,58.61h25.26v11.47H102.08Z" transform="translate(-2.8 -9.51)"/><path class="cls-1" d="M145.85,179.17h8.38L171,249.25H159.1L150,203.32,141,249.25H129.12Zm-5.35,48h19.08v11.18H140.5Z" transform="translate(-2.8 -9.51)"/><path class="cls-1" d="M199.83,247.88a13.89,13.89,0,0,1-5.76-6.1,21.41,21.41,0,0,1-2-9.64V196.28a21.41,21.41,0,0,1,2-9.64,13.86,13.86,0,0,1,5.76-6.09,20.64,20.64,0,0,1,18.14,0,13.56,13.56,0,0,1,5.76,6.12,21.67,21.67,0,0,1,2,9.66V202h-12.1v-5.64a8,8,0,0,0-.53-3.08,4.13,4.13,0,0,0-1.61-2,5.07,5.07,0,0,0-5.09,0,4.26,4.26,0,0,0-1.61,2,7.81,7.81,0,0,0-.55,3.08v35.86a7.64,7.64,0,0,0,.55,3.06,4.28,4.28,0,0,0,1.61,2,4.6,4.6,0,0,0,2.51.68,4.72,4.72,0,0,0,2.6-.68,4.07,4.07,0,0,0,1.59-2,8,8,0,0,0,.53-3.11v-5.64h12.1v5.64a21.67,21.67,0,0,1-2,9.66,13.64,13.64,0,0,1-5.76,6.13,20.73,20.73,0,0,1-18.14,0Z" transform="translate(-2.8 -9.51)"/><path class="cls-1" d="M230.39,179.17h12v70.08h-12Zm5.3,0h25.83v11.67H235.69Zm0,29.45h23.42v11.62H235.69Zm0,29h25.83v11.66H235.69Z" transform="translate(-2.8 -9.51)"/><path class="cls-1" d="M265.72,179.12h11.71v70.13H265.72Zm5.35,29h12.62a6,6,0,0,0,2.68-.56,3.77,3.77,0,0,0,1.71-1.59,5.05,5.05,0,0,0,.58-2.48V195.7a6.12,6.12,0,0,0-.58-2.74,4,4,0,0,0-1.71-1.76,5.67,5.67,0,0,0-2.68-.6H271.07V179.12H283a23,23,0,0,1,9.71,1.86,13.53,13.53,0,0,1,6.15,5.45A16.64,16.64,0,0,1,301,195v8.19a17.51,17.51,0,0,1-2.12,8.85,13.75,13.75,0,0,1-6.17,5.61,22.3,22.3,0,0,1-9.69,1.93h-11.9Zm9.73,9.3,10.94-2.22,11.18,34H290.1Z" transform="translate(-2.8 -9.51)"/><path class="cls-1" d="M303.5,179.17h12.68l6.7,48.39,6.7-48.39h12.67l-12.91,70.08H316.42Z" transform="translate(-2.8 -9.51)"/><path class="cls-1" d="M345,179.17H357v70.08H345Zm5.3,0h25.84v11.67H350.3Zm0,29.45h23.43v11.62H350.3Zm0,29h25.84v11.66H350.3Z" transform="translate(-2.8 -9.51)"/><path class="cls-1" d="M409.3,189.78l-17.4,48h17.88v11.47H379.61v-10.6l17.54-48H380.48V179.17H409.3Z" transform="translate(-2.8 -9.51)"/><path class="cls-1" d="M427.56,179.17H436l16.72,70.08H440.82l-9.06-45.93-9.06,45.93H410.84Zm-5.35,48H441.3v11.18H422.21Z" transform="translate(-2.8 -9.51)"/></g></g></svg>